<svg xmlns="http://www.w3.org/2000/svg" width="101" height="114" fill="none"><g filter="url(#a)"><path fill="#151515" d="M98.332 26.605 51.53 1.006a3.34 3.34 0 0 0-3.24.02L2.415 26.824a3.34 3.34 0 0 0-1.702 2.918L.84 84.271a3.34 3.34 0 0 0 1.716 2.91l45.995 25.586a3.342 3.342 0 0 0 3.24.004l46.682-25.818a3.339 3.339 0 0 0 1.723-2.93l-.127-54.496a3.34 3.34 0 0 0-1.737-2.922Z"/></g><path fill="#00FFC2" d="M43.252 78.973V49.522c0-.267-.018-.482.375-.482 2.838.018 5.684.01 8.523.01.07 0 .142.017.258.035v3.721c.036.01.063.027.099.036.356-.464.696-.946 1.07-1.401a9.302 9.302 0 0 1 4.061-2.91 9.426 9.426 0 0 1 2.749-.562c1.267-.053 2.561-.035 3.81.179 2.053.348 3.865 1.258 5.364 2.749 1.419 1.4 2.356 3.087 2.865 4.988.267 1.009.437 2.044.598 3.07.107.714.16 1.446.16 2.16.01 5.8.01 11.602.01 17.403 0 .142-.01.285-.019.473h-.455c-2.74 0-5.47-.01-8.21.009-.455 0-.536-.152-.536-.563.01-5.337.027-10.682-.009-16.019-.009-.937-.098-1.91-.339-2.811-.437-1.58-1.437-2.722-3.025-3.302-1.339-.491-2.695-.58-4.07-.232-1.517.383-2.56 1.392-3.346 2.722-.607 1.026-.723 2.16-.732 3.293-.036 5.417-.018 10.825-.018 16.242v.634c-3.079.009-6.104.009-9.183.009ZM37.505 64.15c0 4.756-.01 9.513.009 14.27 0 .428-.09.589-.563.58a416.242 416.242 0 0 0-8.166 0c-.446 0-.544-.152-.544-.563.009-9.558.009-19.124 0-28.683 0-.383.107-.517.5-.517 2.749.018 5.497.018 8.255 0 .428 0 .509.16.509.544V64.15ZM32.775 34.003c2.936-.072 4.694 2.061 4.703 4.676.009 2.677-1.865 4.676-4.81 4.668-2.74 0-4.677-1.964-4.668-4.74.009-2.596 1.892-4.694 4.775-4.604Z"/><defs><filter id="a" width="101.153" height="114.261" x=".713" y=".596" color-interpolation-filters="sRGB" filterUnits="userSpaceOnUse"><feFlood flood-opacity="0" result="BackgroundImageFix"/><feBlend in="SourceGraphic" in2="BackgroundImageFix" result="shape"/><feColorMatrix in="SourceAlpha" result="hardAlpha" values="0 0 0 0 0 0 0 0 0 0 0 0 0 0 0 0 0 0 127 0"/><feOffset dx="1.67" dy="1.67"/><feGaussianBlur stdDeviation="2.505"/><feComposite in2="hardAlpha" k2="-1" k3="1" operator="arithmetic"/><feColorMatrix values="0 0 0 0 0 0 0 0 0 0 0 0 0 0 0 0 0 0 0.25 0"/><feBlend in2="shape" result="effect1_innerShadow_112_789"/></filter></defs></svg>