<svg xmlns="http://www.w3.org/2000/svg" width="100" height="114" fill="none"><g filter="url(#a)"><path fill="#151515" d="M97.681 26.466 50.88.998a3.34 3.34 0 0 0-3.227.019L1.778 26.685a3.34 3.34 0 0 0-1.71 2.923l.127 54.219a3.34 3.34 0 0 0 1.723 2.914l45.994 25.453a3.338 3.338 0 0 0 3.227.004l46.683-25.686a3.34 3.34 0 0 0 1.73-2.934l-.127-54.187a3.34 3.34 0 0 0-1.743-2.925Z"/></g><path fill="#00FFC2" d="M67.731 39.796h-33.75c-3.106 0-5.625 2.505-5.625 5.596v22.385c0 3.09 2.519 5.596 5.625 5.596h33.75c3.107 0 5.625-2.505 5.625-5.596V45.392c0-3.09-2.518-5.596-5.625-5.596Zm-9.258 14.933 11.906-10.151c.082.262.165.524.165.814v22.385c0 .194-.075.366-.113.55L58.472 54.728Zm9.258-12.135c.187 0 .352.07.528.106L50.855 57.54 33.454 42.7c.176-.035.34-.106.527-.106h33.75ZM31.28 68.324c-.039-.184-.111-.353-.111-.547V45.392c0-.29.084-.552.166-.814l11.902 10.148L31.28 68.323Zm2.701 2.251c-.284 0-.542-.082-.802-.161l12.195-13.865 4.568 3.894c.262.227.589.339.914.339.326 0 .652-.112.915-.34l4.567-3.893 12.195 13.865c-.258.08-.516.161-.802.161h-33.75Z"/><defs><filter id="a" width="101.153" height="113.69" x=".069" y=".592" color-interpolation-filters="sRGB" filterUnits="userSpaceOnUse"><feFlood flood-opacity="0" result="BackgroundImageFix"/><feBlend in="SourceGraphic" in2="BackgroundImageFix" result="shape"/><feColorMatrix in="SourceAlpha" result="hardAlpha" values="0 0 0 0 0 0 0 0 0 0 0 0 0 0 0 0 0 0 127 0"/><feOffset dx="1.67" dy="1.67"/><feGaussianBlur stdDeviation="2.505"/><feComposite in2="hardAlpha" k2="-1" k3="1" operator="arithmetic"/><feColorMatrix values="0 0 0 0 0 0 0 0 0 0 0 0 0 0 0 0 0 0 0.25 0"/><feBlend in2="shape" result="effect1_innerShadow_112_782"/></filter></defs></svg>