<svg xmlns="http://www.w3.org/2000/svg" width="101" height="114" fill="none"><g filter="url(#a)"><path fill="#151515" d="M98.332 26.605 51.53 1.006a3.34 3.34 0 0 0-3.24.02L2.415 26.824a3.34 3.34 0 0 0-1.702 2.918L.84 84.271a3.34 3.34 0 0 0 1.716 2.91l45.995 25.586a3.342 3.342 0 0 0 3.24.004l46.682-25.818a3.339 3.339 0 0 0 1.723-2.93l-.127-54.496a3.34 3.34 0 0 0-1.737-2.922Z"/></g><path fill="#00FFC2" d="M74 56.92c0 12.107-9.89 21.921-22.091 21.921-3.873 0-7.512-.99-10.678-2.727L29 80l3.987-11.761a21.69 21.69 0 0 1-3.17-11.319C29.817 44.814 39.709 35 51.91 35 64.112 35 74 44.814 74 56.92ZM51.909 38.492c-10.242 0-18.573 8.267-18.573 18.43 0 4.032 1.315 7.767 3.538 10.804l-2.32 6.845 7.137-2.268a18.561 18.561 0 0 0 10.218 3.048c10.241 0 18.574-8.266 18.574-18.428S62.15 38.49 51.909 38.49Zm11.156 23.478c-.137-.224-.497-.358-1.038-.627-.543-.268-3.206-1.569-3.7-1.748-.497-.178-.859-.269-1.22.269-.36.538-1.398 1.748-1.715 2.106-.316.36-.631.404-1.173.136-.541-.269-2.285-.837-4.354-2.667-1.61-1.424-2.697-3.182-3.013-3.72-.315-.538-.032-.829.238-1.096.244-.241.542-.627.813-.941.271-.314.361-.537.54-.896.182-.359.092-.672-.044-.942-.136-.269-1.22-2.913-1.67-3.989-.451-1.075-.902-.895-1.218-.895-.316 0-.678-.046-1.039-.046-.36 0-.947.135-1.444.673-.496.538-1.895 1.837-1.895 4.481s1.94 5.199 2.211 5.556c.271.358 3.745 5.96 9.25 8.112 5.506 2.15 5.506 1.433 6.499 1.343.992-.09 3.203-1.3 3.656-2.553.45-1.257.45-2.332.316-2.556Z"/><defs><filter id="a" width="101.153" height="114.261" x=".713" y=".596" color-interpolation-filters="sRGB" filterUnits="userSpaceOnUse"><feFlood flood-opacity="0" result="BackgroundImageFix"/><feBlend in="SourceGraphic" in2="BackgroundImageFix" result="shape"/><feColorMatrix in="SourceAlpha" result="hardAlpha" values="0 0 0 0 0 0 0 0 0 0 0 0 0 0 0 0 0 0 127 0"/><feOffset dx="1.67" dy="1.67"/><feGaussianBlur stdDeviation="2.505"/><feComposite in2="hardAlpha" k2="-1" k3="1" operator="arithmetic"/><feColorMatrix values="0 0 0 0 0 0 0 0 0 0 0 0 0 0 0 0 0 0 0.25 0"/><feBlend in2="shape" result="effect1_innerShadow_112_802"/></filter></defs></svg>