<svg xmlns="http://www.w3.org/2000/svg" width="100" height="114" fill="none"><g filter="url(#a)"><path fill="#151515" d="M97.688 26.605 50.886 1.006a3.34 3.34 0 0 0-3.24.02L1.772 26.824a3.34 3.34 0 0 0-1.703 2.918l.127 54.528a3.34 3.34 0 0 0 1.717 2.91l45.994 25.586a3.342 3.342 0 0 0 3.24.004l46.682-25.818a3.34 3.34 0 0 0 1.724-2.93l-.128-54.496a3.34 3.34 0 0 0-1.737-2.922Z"/></g><path fill="#00FFC2" d="M49.5 34a22.5 22.5 0 1 1 0 45 22.5 22.5 0 0 1 0-45Zm0 3.675c-10.339 0-18.75 8.411-18.75 18.825a18.825 18.825 0 0 0 12.889 17.888c.056.008.112.014.168.018.762.038 1.047-.484 1.047-.937l-.026-3.203c-5.213 1.136-6.316-2.527-6.316-2.527-.85-2.175-2.08-2.753-2.08-2.753-1.703-1.17.127-1.147.127-1.147 1.369.097 2.265 1.08 2.655 1.612l.217.33c1.673 2.876 4.388 2.048 5.457 1.568.172-1.219.652-2.048 1.188-2.52-4.162-.476-8.538-2.093-8.538-9.308 0-2.055.73-3.735 1.93-5.055l-.112-.319c-.24-.76-.57-2.467.297-4.664l.15-.027c.465-.06 2.055-.049 5.006 1.958a17.89 17.89 0 0 1 4.691-.634c1.594.008 3.199.218 4.695.637 3.581-2.437 5.152-1.934 5.152-1.934 1.02 2.595.375 4.507.188 4.987 1.2 1.313 1.924 2.996 1.924 5.051 0 7.238-4.384 8.828-8.562 9.293.675.581 1.276 1.732 1.276 3.487l-.023 5.168c0 .487.319 1.057 1.211.919A18.825 18.825 0 0 0 68.25 56.5c0-10.414-8.411-18.825-18.75-18.825Z"/><defs><filter id="a" width="101.153" height="114.261" x=".069" y=".596" color-interpolation-filters="sRGB" filterUnits="userSpaceOnUse"><feFlood flood-opacity="0" result="BackgroundImageFix"/><feBlend in="SourceGraphic" in2="BackgroundImageFix" result="shape"/><feColorMatrix in="SourceAlpha" result="hardAlpha" values="0 0 0 0 0 0 0 0 0 0 0 0 0 0 0 0 0 0 127 0"/><feOffset dx="1.67" dy="1.67"/><feGaussianBlur stdDeviation="2.505"/><feComposite in2="hardAlpha" k2="-1" k3="1" operator="arithmetic"/><feColorMatrix values="0 0 0 0 0 0 0 0 0 0 0 0 0 0 0 0 0 0 0.25 0"/><feBlend in2="shape" result="effect1_innerShadow_146_151"/></filter></defs></svg>