<svg width="742" height="235" viewBox="0 0 742 235" fill="none" xmlns="http://www.w3.org/2000/svg">
<g filter="url(#filter0_dii_120_561)">
<path d="M91.664 102.258L117.543 55.2049C118.102 54.1885 118.098 52.9559 117.532 51.9435L91.6685 5.70322C91.0742 4.64066 89.9519 3.98243 88.7344 3.98243L33.8439 3.98243C32.6264 3.98243 31.504 4.64066 30.9097 5.70322L5.04647 51.9435C4.48026 52.9559 4.47587 54.1885 5.03485 55.2049L30.9142 102.258C31.5051 103.333 32.6339 104 33.86 104L88.7182 104C89.9443 104 91.0732 103.333 91.664 102.258Z" fill="url(#paint0_linear_120_561)"/>
</g>
<path d="M84.148 28.3665C83.938 28.1325 83.6362 28 83.3212 28H39.5629C39.2479 28 38.946 28.1325 38.736 28.3665C38.5216 28.6005 38.4166 28.9141 38.4472 29.232L42.3891 73.8003C42.4285 74.2683 42.7522 74.6569 43.1984 74.7894L61.1314 79.9558C61.2276 79.9868 61.3326 80 61.4376 80C61.5426 80 61.6433 79.9868 61.7439 79.9558L79.69 74.7894C80.1362 74.6569 80.4556 74.2683 80.4993 73.8003L84.4368 29.232C84.4674 28.9141 84.3624 28.6005 84.148 28.3665ZM74.7113 43.7334H64.1764H53.6415L54.1446 49.4871H74.2038L72.6988 66.4922L61.4333 69.9277L61.3239 69.8923L50.1896 66.4878L49.5815 59.5594H55.0371L55.2733 62.2486L61.4989 63.5645L67.6107 62.2486L68.2626 54.9715H49.1746L47.6915 38.2357H61.4442H75.1969L74.7113 43.7334Z" fill="#00FFC2"/>
<path d="M47.417 95V90.77H43.622V95H41.552V84.8H43.622V88.97H47.417V84.8H49.487V95H47.417ZM55.6784 89.21H53.8334V92.285C53.8334 92.585 53.8384 92.8 53.8484 92.93C53.8684 93.05 53.9234 93.155 54.0134 93.245C54.1134 93.335 54.2634 93.38 54.4634 93.38L55.6034 93.35L55.6934 94.955C55.0234 95.105 54.5134 95.18 54.1634 95.18C53.2634 95.18 52.6484 94.98 52.3184 94.58C51.9884 94.17 51.8234 93.42 51.8234 92.33V89.21H50.9384V87.5H51.8234V85.415H53.8334V87.5H55.6784V89.21ZM58.9973 95H56.9873V87.5H58.9823V87.92C59.6723 87.52 60.2623 87.32 60.7523 87.32C61.5623 87.32 62.1873 87.555 62.6273 88.025C63.5473 87.555 64.3873 87.32 65.1473 87.32C66.1373 87.32 66.8223 87.61 67.2023 88.19C67.5923 88.76 67.7873 89.675 67.7873 90.935V95H65.7773V90.995C65.7773 90.355 65.7073 89.885 65.5673 89.585C65.4273 89.275 65.1473 89.12 64.7273 89.12C64.4073 89.12 64.0173 89.19 63.5573 89.33L63.3323 89.405C63.3723 90.155 63.3923 90.725 63.3923 91.115V95H61.3823V91.145C61.3823 90.405 61.3173 89.885 61.1873 89.585C61.0573 89.275 60.7723 89.12 60.3323 89.12C59.9423 89.12 59.5573 89.19 59.1773 89.33L58.9973 89.39V95ZM69.6603 95V84.5H71.6703V95H69.6603ZM80.0332 85.1V86.9H75.6082L75.3532 89.045C75.9732 88.805 76.5632 88.685 77.1232 88.685C79.2632 88.685 80.3332 89.68 80.3332 91.67C80.3332 92.79 80.0382 93.655 79.4482 94.265C78.8582 94.875 78.0232 95.18 76.9432 95.18C76.4832 95.18 75.9582 95.135 75.3682 95.045C74.7882 94.955 74.3232 94.86 73.9732 94.76L73.4332 94.625L73.6582 93.095C74.8682 93.285 75.8782 93.38 76.6882 93.38C77.1782 93.38 77.5532 93.25 77.8132 92.99C78.0732 92.73 78.2032 92.36 78.2032 91.88C78.2032 91.39 78.0932 91.035 77.8732 90.815C77.6532 90.595 77.3432 90.485 76.9432 90.485C76.2732 90.485 75.6832 90.55 75.1732 90.68L74.9482 90.74L73.7182 90.455L73.9882 85.1H80.0332Z" fill="white"/>
<path d="M47.417 95V90.77H43.622V95H41.552V84.8H43.622V88.97H47.417V84.8H49.487V95H47.417ZM55.6784 89.21H53.8334V92.285C53.8334 92.585 53.8384 92.8 53.8484 92.93C53.8684 93.05 53.9234 93.155 54.0134 93.245C54.1134 93.335 54.2634 93.38 54.4634 93.38L55.6034 93.35L55.6934 94.955C55.0234 95.105 54.5134 95.18 54.1634 95.18C53.2634 95.18 52.6484 94.98 52.3184 94.58C51.9884 94.17 51.8234 93.42 51.8234 92.33V89.21H50.9384V87.5H51.8234V85.415H53.8334V87.5H55.6784V89.21ZM58.9973 95H56.9873V87.5H58.9823V87.92C59.6723 87.52 60.2623 87.32 60.7523 87.32C61.5623 87.32 62.1873 87.555 62.6273 88.025C63.5473 87.555 64.3873 87.32 65.1473 87.32C66.1373 87.32 66.8223 87.61 67.2023 88.19C67.5923 88.76 67.7873 89.675 67.7873 90.935V95H65.7773V90.995C65.7773 90.355 65.7073 89.885 65.5673 89.585C65.4273 89.275 65.1473 89.12 64.7273 89.12C64.4073 89.12 64.0173 89.19 63.5573 89.33L63.3323 89.405C63.3723 90.155 63.3923 90.725 63.3923 91.115V95H61.3823V91.145C61.3823 90.405 61.3173 89.885 61.1873 89.585C61.0573 89.275 60.7723 89.12 60.3323 89.12C59.9423 89.12 59.5573 89.19 59.1773 89.33L58.9973 89.39V95ZM69.6603 95V84.5H71.6703V95H69.6603ZM80.0332 85.1V86.9H75.6082L75.3532 89.045C75.9732 88.805 76.5632 88.685 77.1232 88.685C79.2632 88.685 80.3332 89.68 80.3332 91.67C80.3332 92.79 80.0382 93.655 79.4482 94.265C78.8582 94.875 78.0232 95.18 76.9432 95.18C76.4832 95.18 75.9582 95.135 75.3682 95.045C74.7882 94.955 74.3232 94.86 73.9732 94.76L73.4332 94.625L73.6582 93.095C74.8682 93.285 75.8782 93.38 76.6882 93.38C77.1782 93.38 77.5532 93.25 77.8132 92.99C78.0732 92.73 78.2032 92.36 78.2032 91.88C78.2032 91.39 78.0932 91.035 77.8732 90.815C77.6532 90.595 77.3432 90.485 76.9432 90.485C76.2732 90.485 75.6832 90.55 75.1732 90.68L74.9482 90.74L73.7182 90.455L73.9882 85.1H80.0332Z" fill="#00FFC2"/>
<g filter="url(#filter1_dii_120_561)">
<path d="M504.664 102.258L530.543 55.2049C531.102 54.1885 531.098 52.9559 530.532 51.9435L504.669 5.70322C504.074 4.64066 502.952 3.98243 501.734 3.98243L446.844 3.98243C445.626 3.98243 444.504 4.64066 443.91 5.70322L418.046 51.9435C417.48 52.9559 417.476 54.1885 418.035 55.2049L443.914 102.258C444.505 103.333 445.634 104 446.86 104L501.718 104C502.944 104 504.073 103.333 504.664 102.258Z" fill="url(#paint1_linear_120_561)"/>
</g>
<path d="M474.042 38.4C477.242 38.4 479.642 39.05 481.242 40.35C482.875 41.65 483.692 43.6 483.692 46.2C483.692 48.8 483.425 50.7 482.892 51.9C482.392 53.0667 481.309 54.2833 479.642 55.55C477.975 56.7833 476.925 57.7333 476.492 58.4C476.059 59.0667 475.842 59.8 475.842 60.6V62.15H470.492C469.459 61.0167 468.942 59.5 468.942 57.6C468.942 56.4 469.992 54.95 472.092 53.25C474.225 51.55 475.525 50.3833 475.992 49.75C476.492 49.0833 476.742 48.2833 476.742 47.35C476.742 45.3833 475.325 44.4 472.492 44.4C470.492 44.4 468.442 44.6 466.342 45L465.292 45.2L464.942 40.15C467.809 38.9833 470.842 38.4 474.042 38.4ZM469.392 73V64.95H476.592V73H469.392Z" fill="white"/>
<path d="M474.042 38.4C477.242 38.4 479.642 39.05 481.242 40.35C482.875 41.65 483.692 43.6 483.692 46.2C483.692 48.8 483.425 50.7 482.892 51.9C482.392 53.0667 481.309 54.2833 479.642 55.55C477.975 56.7833 476.925 57.7333 476.492 58.4C476.059 59.0667 475.842 59.8 475.842 60.6V62.15H470.492C469.459 61.0167 468.942 59.5 468.942 57.6C468.942 56.4 469.992 54.95 472.092 53.25C474.225 51.55 475.525 50.3833 475.992 49.75C476.492 49.0833 476.742 48.2833 476.742 47.35C476.742 45.3833 475.325 44.4 472.492 44.4C470.492 44.4 468.442 44.6 466.342 45L465.292 45.2L464.942 40.15C467.809 38.9833 470.842 38.4 474.042 38.4ZM469.392 73V64.95H476.592V73H469.392Z" fill="#00FFC2"/>
<g filter="url(#filter2_dii_120_561)">
<path d="M608.664 162.258L634.543 115.205C635.102 114.189 635.098 112.956 634.532 111.944L608.669 65.7032C608.074 64.6407 606.952 63.9824 605.734 63.9824L550.844 63.9824C549.626 63.9824 548.504 64.6407 547.91 65.7032L522.046 111.944C521.48 112.956 521.476 114.189 522.035 115.205L547.914 162.258C548.505 163.333 549.634 164 550.86 164H605.718C606.944 164 608.073 163.333 608.664 162.258Z" fill="url(#paint2_linear_120_561)"/>
</g>
<path d="M578.042 98.4C581.242 98.4 583.642 99.05 585.242 100.35C586.875 101.65 587.692 103.6 587.692 106.2C587.692 108.8 587.425 110.7 586.892 111.9C586.392 113.067 585.309 114.283 583.642 115.55C581.975 116.783 580.925 117.733 580.492 118.4C580.059 119.067 579.842 119.8 579.842 120.6V122.15H574.492C573.459 121.017 572.942 119.5 572.942 117.6C572.942 116.4 573.992 114.95 576.092 113.25C578.225 111.55 579.525 110.383 579.992 109.75C580.492 109.083 580.742 108.283 580.742 107.35C580.742 105.383 579.325 104.4 576.492 104.4C574.492 104.4 572.442 104.6 570.342 105L569.292 105.2L568.942 100.15C571.809 98.9833 574.842 98.4 578.042 98.4ZM573.392 133V124.95H580.592V133H573.392Z" fill="white"/>
<path d="M578.042 98.4C581.242 98.4 583.642 99.05 585.242 100.35C586.875 101.65 587.692 103.6 587.692 106.2C587.692 108.8 587.425 110.7 586.892 111.9C586.392 113.067 585.309 114.283 583.642 115.55C581.975 116.783 580.925 117.733 580.492 118.4C580.059 119.067 579.842 119.8 579.842 120.6V122.15H574.492C573.459 121.017 572.942 119.5 572.942 117.6C572.942 116.4 573.992 114.95 576.092 113.25C578.225 111.55 579.525 110.383 579.992 109.75C580.492 109.083 580.742 108.283 580.742 107.35C580.742 105.383 579.325 104.4 576.492 104.4C574.492 104.4 572.442 104.6 570.342 105L569.292 105.2L568.942 100.15C571.809 98.9833 574.842 98.4 578.042 98.4ZM573.392 133V124.95H580.592V133H573.392Z" fill="#00FFC2"/>
<g filter="url(#filter3_dii_120_561)">
<path d="M711.664 222.258L737.544 175.205C738.102 174.189 738.098 172.956 737.532 171.944L711.669 125.703C711.074 124.641 709.952 123.982 708.734 123.982L653.844 123.982C652.626 123.982 651.504 124.641 650.91 125.703L625.047 171.944C624.48 172.956 624.476 174.189 625.035 175.205L650.914 222.258C651.505 223.333 652.634 224 653.86 224H708.718C709.944 224 711.073 223.333 711.664 222.258Z" fill="url(#paint3_linear_120_561)"/>
</g>
<path d="M681.042 158.4C684.242 158.4 686.642 159.05 688.242 160.35C689.875 161.65 690.692 163.6 690.692 166.2C690.692 168.8 690.425 170.7 689.892 171.9C689.392 173.067 688.309 174.283 686.642 175.55C684.975 176.783 683.925 177.733 683.492 178.4C683.059 179.067 682.842 179.8 682.842 180.6V182.15H677.492C676.459 181.017 675.942 179.5 675.942 177.6C675.942 176.4 676.992 174.95 679.092 173.25C681.225 171.55 682.525 170.383 682.992 169.75C683.492 169.083 683.742 168.283 683.742 167.35C683.742 165.383 682.325 164.4 679.492 164.4C677.492 164.4 675.442 164.6 673.342 165L672.292 165.2L671.942 160.15C674.809 158.983 677.842 158.4 681.042 158.4ZM676.392 193V184.95H683.592V193H676.392Z" fill="white"/>
<path d="M681.042 158.4C684.242 158.4 686.642 159.05 688.242 160.35C689.875 161.65 690.692 163.6 690.692 166.2C690.692 168.8 690.425 170.7 689.892 171.9C689.392 173.067 688.309 174.283 686.642 175.55C684.975 176.783 683.925 177.733 683.492 178.4C683.059 179.067 682.842 179.8 682.842 180.6V182.15H677.492C676.459 181.017 675.942 179.5 675.942 177.6C675.942 176.4 676.992 174.95 679.092 173.25C681.225 171.55 682.525 170.383 682.992 169.75C683.492 169.083 683.742 168.283 683.742 167.35C683.742 165.383 682.325 164.4 679.492 164.4C677.492 164.4 675.442 164.6 673.342 165L672.292 165.2L671.942 160.15C674.809 158.983 677.842 158.4 681.042 158.4ZM676.392 193V184.95H683.592V193H676.392Z" fill="#00FFC2"/>
<g filter="url(#filter4_dii_120_561)">
<path d="M711.664 102.258L737.544 55.2049C738.102 54.1885 738.098 52.9559 737.532 51.9435L711.669 5.70322C711.074 4.64066 709.952 3.98243 708.734 3.98243L653.844 3.98243C652.626 3.98243 651.504 4.64066 650.91 5.70322L625.047 51.9435C624.48 52.9559 624.476 54.1885 625.035 55.2049L650.914 102.258C651.505 103.333 652.634 104 653.86 104L708.718 104C709.944 104 711.073 103.333 711.664 102.258Z" fill="url(#paint4_linear_120_561)"/>
</g>
<path d="M681.042 38.4C684.242 38.4 686.642 39.05 688.242 40.35C689.875 41.65 690.692 43.6 690.692 46.2C690.692 48.8 690.425 50.7 689.892 51.9C689.392 53.0667 688.309 54.2833 686.642 55.55C684.975 56.7833 683.925 57.7333 683.492 58.4C683.059 59.0667 682.842 59.8 682.842 60.6V62.15H677.492C676.459 61.0167 675.942 59.5 675.942 57.6C675.942 56.4 676.992 54.95 679.092 53.25C681.225 51.55 682.525 50.3833 682.992 49.75C683.492 49.0833 683.742 48.2833 683.742 47.35C683.742 45.3833 682.325 44.4 679.492 44.4C677.492 44.4 675.442 44.6 673.342 45L672.292 45.2L671.942 40.15C674.809 38.9833 677.842 38.4 681.042 38.4ZM676.392 73V64.95H683.592V73H676.392Z" fill="white"/>
<path d="M681.042 38.4C684.242 38.4 686.642 39.05 688.242 40.35C689.875 41.65 690.692 43.6 690.692 46.2C690.692 48.8 690.425 50.7 689.892 51.9C689.392 53.0667 688.309 54.2833 686.642 55.55C684.975 56.7833 683.925 57.7333 683.492 58.4C683.059 59.0667 682.842 59.8 682.842 60.6V62.15H677.492C676.459 61.0167 675.942 59.5 675.942 57.6C675.942 56.4 676.992 54.95 679.092 53.25C681.225 51.55 682.525 50.3833 682.992 49.75C683.492 49.0833 683.742 48.2833 683.742 47.35C683.742 45.3833 682.325 44.4 679.492 44.4C677.492 44.4 675.442 44.6 673.342 45L672.292 45.2L671.942 40.15C674.809 38.9833 677.842 38.4 681.042 38.4ZM676.392 73V64.95H683.592V73H676.392Z" fill="#00FFC2"/>
<g filter="url(#filter5_dii_120_561)">
<path d="M91.664 221.258L117.543 174.205C118.102 173.189 118.098 171.956 117.532 170.944L91.6685 124.703C91.0742 123.641 89.9519 122.982 88.7344 122.982L33.8439 122.982C32.6264 122.982 31.504 123.641 30.9097 124.703L5.04647 170.944C4.48026 171.956 4.47587 173.189 5.03485 174.205L30.9142 221.258C31.5051 222.333 32.6339 223 33.86 223H88.7182C89.9443 223 91.0732 222.333 91.664 221.258Z" fill="url(#paint5_linear_120_561)"/>
</g>
<path fill-rule="evenodd" clip-rule="evenodd" d="M83.0815 147C83.813 147 84.3873 147.627 84.3238 148.355L80.3832 193.526L61.442 199L42.5008 193.526L38.5603 148.355C38.4967 147.627 39.0711 147 39.8025 147H83.0815ZM50.349 177.105H55.7607L55.8928 180.526L61.442 182.44L66.9912 180.526L67.3928 174.368H55.4912L55.2164 168.895H67.6677L68.0693 163.421H49.403L48.996 157.947H73.7559L73.0794 168.895L72.1281 184.632L61.442 188.192L50.7559 184.632L50.349 177.105Z" fill="#00FFC2"/>
<path d="M53.017 211.835C51.957 212.065 51.002 212.18 50.152 212.18C49.302 212.18 48.622 212.075 48.112 211.865C47.602 211.655 47.202 211.32 46.912 210.86C46.622 210.4 46.422 209.86 46.312 209.24C46.202 208.62 46.147 207.84 46.147 206.9C46.147 204.93 46.422 203.56 46.972 202.79C47.532 202.01 48.557 201.62 50.047 201.62C50.907 201.62 51.902 201.755 53.032 202.025L52.972 203.675C51.982 203.525 51.157 203.45 50.497 203.45C49.847 203.45 49.382 203.54 49.102 203.72C48.822 203.89 48.612 204.22 48.472 204.71C48.342 205.2 48.277 206.035 48.277 207.215C48.277 208.395 48.412 209.215 48.682 209.675C48.962 210.125 49.512 210.35 50.332 210.35C51.162 210.35 52.042 210.28 52.972 210.14L53.017 211.835ZM59.9015 206.375C58.6615 206.215 57.7915 206.135 57.2915 206.135C56.8015 206.135 56.4815 206.18 56.3315 206.27C56.1915 206.36 56.1215 206.505 56.1215 206.705C56.1215 206.895 56.2165 207.03 56.4065 207.11C56.6065 207.18 57.1065 207.29 57.9065 207.44C58.7165 207.58 59.2915 207.815 59.6315 208.145C59.9715 208.475 60.1415 209.01 60.1415 209.75C60.1415 211.37 59.1365 212.18 57.1265 212.18C56.4665 212.18 55.6665 212.09 54.7265 211.91L54.2465 211.82L54.3065 210.14C55.5465 210.3 56.4065 210.38 56.8865 210.38C57.3765 210.38 57.7065 210.335 57.8765 210.245C58.0565 210.145 58.1465 210 58.1465 209.81C58.1465 209.62 58.0515 209.48 57.8615 209.39C57.6815 209.3 57.2015 209.19 56.4215 209.06C55.6515 208.93 55.0765 208.71 54.6965 208.4C54.3165 208.09 54.1265 207.54 54.1265 206.75C54.1265 205.95 54.3965 205.35 54.9365 204.95C55.4765 204.54 56.1715 204.335 57.0215 204.335C57.6115 204.335 58.4165 204.43 59.4365 204.62L59.9315 204.71L59.9015 206.375ZM66.9767 206.375C65.7367 206.215 64.8667 206.135 64.3667 206.135C63.8767 206.135 63.5567 206.18 63.4067 206.27C63.2667 206.36 63.1967 206.505 63.1967 206.705C63.1967 206.895 63.2917 207.03 63.4817 207.11C63.6817 207.18 64.1817 207.29 64.9817 207.44C65.7917 207.58 66.3667 207.815 66.7067 208.145C67.0467 208.475 67.2167 209.01 67.2167 209.75C67.2167 211.37 66.2117 212.18 64.2017 212.18C63.5417 212.18 62.7417 212.09 61.8017 211.91L61.3217 211.82L61.3817 210.14C62.6217 210.3 63.4817 210.38 63.9617 210.38C64.4517 210.38 64.7817 210.335 64.9517 210.245C65.1317 210.145 65.2217 210 65.2217 209.81C65.2217 209.62 65.1267 209.48 64.9367 209.39C64.7567 209.3 64.2767 209.19 63.4967 209.06C62.7267 208.93 62.1517 208.71 61.7717 208.4C61.3917 208.09 61.2017 207.54 61.2017 206.75C61.2017 205.95 61.4717 205.35 62.0117 204.95C62.5517 204.54 63.2467 204.335 64.0967 204.335C64.6867 204.335 65.4917 204.43 66.5117 204.62L67.0067 204.71L66.9767 206.375ZM68.6669 202.46C69.5869 202.1 70.6119 201.92 71.7419 201.92C72.8819 201.92 73.7119 202.14 74.2319 202.58C74.7519 203.01 75.0119 203.705 75.0119 204.665C75.0119 205.625 74.6269 206.36 73.8569 206.87C74.3369 207.13 74.6769 207.4 74.8769 207.68C75.0869 207.96 75.1919 208.405 75.1919 209.015C75.1919 210.085 74.9219 210.88 74.3819 211.4C73.8519 211.92 72.9969 212.18 71.8169 212.18C70.9469 212.18 70.0319 212.05 69.0719 211.79L68.5919 211.67L68.6969 210.095C69.8169 210.285 70.7569 210.38 71.5169 210.38C72.5469 210.38 73.0619 209.94 73.0619 209.06C73.0619 208.69 72.9269 208.395 72.6569 208.175C72.3969 207.955 72.0519 207.845 71.6219 207.845H69.6269V206.135H71.6219C71.9519 206.135 72.2419 205.995 72.4919 205.715C72.7519 205.435 72.8819 205.125 72.8819 204.785C72.8819 204.075 72.3869 203.72 71.3969 203.72C70.7069 203.72 69.9719 203.79 69.1919 203.93L68.8019 203.99L68.6669 202.46Z" fill="white"/>
<path d="M53.017 211.835C51.957 212.065 51.002 212.18 50.152 212.18C49.302 212.18 48.622 212.075 48.112 211.865C47.602 211.655 47.202 211.32 46.912 210.86C46.622 210.4 46.422 209.86 46.312 209.24C46.202 208.62 46.147 207.84 46.147 206.9C46.147 204.93 46.422 203.56 46.972 202.79C47.532 202.01 48.557 201.62 50.047 201.62C50.907 201.62 51.902 201.755 53.032 202.025L52.972 203.675C51.982 203.525 51.157 203.45 50.497 203.45C49.847 203.45 49.382 203.54 49.102 203.72C48.822 203.89 48.612 204.22 48.472 204.71C48.342 205.2 48.277 206.035 48.277 207.215C48.277 208.395 48.412 209.215 48.682 209.675C48.962 210.125 49.512 210.35 50.332 210.35C51.162 210.35 52.042 210.28 52.972 210.14L53.017 211.835ZM59.9015 206.375C58.6615 206.215 57.7915 206.135 57.2915 206.135C56.8015 206.135 56.4815 206.18 56.3315 206.27C56.1915 206.36 56.1215 206.505 56.1215 206.705C56.1215 206.895 56.2165 207.03 56.4065 207.11C56.6065 207.18 57.1065 207.29 57.9065 207.44C58.7165 207.58 59.2915 207.815 59.6315 208.145C59.9715 208.475 60.1415 209.01 60.1415 209.75C60.1415 211.37 59.1365 212.18 57.1265 212.18C56.4665 212.18 55.6665 212.09 54.7265 211.91L54.2465 211.82L54.3065 210.14C55.5465 210.3 56.4065 210.38 56.8865 210.38C57.3765 210.38 57.7065 210.335 57.8765 210.245C58.0565 210.145 58.1465 210 58.1465 209.81C58.1465 209.62 58.0515 209.48 57.8615 209.39C57.6815 209.3 57.2015 209.19 56.4215 209.06C55.6515 208.93 55.0765 208.71 54.6965 208.4C54.3165 208.09 54.1265 207.54 54.1265 206.75C54.1265 205.95 54.3965 205.35 54.9365 204.95C55.4765 204.54 56.1715 204.335 57.0215 204.335C57.6115 204.335 58.4165 204.43 59.4365 204.62L59.9315 204.71L59.9015 206.375ZM66.9767 206.375C65.7367 206.215 64.8667 206.135 64.3667 206.135C63.8767 206.135 63.5567 206.18 63.4067 206.27C63.2667 206.36 63.1967 206.505 63.1967 206.705C63.1967 206.895 63.2917 207.03 63.4817 207.11C63.6817 207.18 64.1817 207.29 64.9817 207.44C65.7917 207.58 66.3667 207.815 66.7067 208.145C67.0467 208.475 67.2167 209.01 67.2167 209.75C67.2167 211.37 66.2117 212.18 64.2017 212.18C63.5417 212.18 62.7417 212.09 61.8017 211.91L61.3217 211.82L61.3817 210.14C62.6217 210.3 63.4817 210.38 63.9617 210.38C64.4517 210.38 64.7817 210.335 64.9517 210.245C65.1317 210.145 65.2217 210 65.2217 209.81C65.2217 209.62 65.1267 209.48 64.9367 209.39C64.7567 209.3 64.2767 209.19 63.4967 209.06C62.7267 208.93 62.1517 208.71 61.7717 208.4C61.3917 208.09 61.2017 207.54 61.2017 206.75C61.2017 205.95 61.4717 205.35 62.0117 204.95C62.5517 204.54 63.2467 204.335 64.0967 204.335C64.6867 204.335 65.4917 204.43 66.5117 204.62L67.0067 204.71L66.9767 206.375ZM68.6669 202.46C69.5869 202.1 70.6119 201.92 71.7419 201.92C72.8819 201.92 73.7119 202.14 74.2319 202.58C74.7519 203.01 75.0119 203.705 75.0119 204.665C75.0119 205.625 74.6269 206.36 73.8569 206.87C74.3369 207.13 74.6769 207.4 74.8769 207.68C75.0869 207.96 75.1919 208.405 75.1919 209.015C75.1919 210.085 74.9219 210.88 74.3819 211.4C73.8519 211.92 72.9969 212.18 71.8169 212.18C70.9469 212.18 70.0319 212.05 69.0719 211.79L68.5919 211.67L68.6969 210.095C69.8169 210.285 70.7569 210.38 71.5169 210.38C72.5469 210.38 73.0619 209.94 73.0619 209.06C73.0619 208.69 72.9269 208.395 72.6569 208.175C72.3969 207.955 72.0519 207.845 71.6219 207.845H69.6269V206.135H71.6219C71.9519 206.135 72.2419 205.995 72.4919 205.715C72.7519 205.435 72.8819 205.125 72.8819 204.785C72.8819 204.075 72.3869 203.72 71.3969 203.72C70.7069 203.72 69.9719 203.79 69.1919 203.93L68.8019 203.99L68.6669 202.46Z" fill="#00FFC2"/>
<g filter="url(#filter6_dii_120_561)">
<path d="M196.664 161.258L222.543 114.205C223.102 113.189 223.098 111.956 222.532 110.944L196.669 64.7032C196.074 63.6407 194.952 62.9824 193.734 62.9824L138.844 62.9824C137.626 62.9824 136.504 63.6407 135.91 64.7032L110.046 110.944C109.48 111.956 109.476 113.189 110.035 114.205L135.914 161.258C136.505 162.333 137.634 163 138.86 163H193.718C194.944 163 196.073 162.333 196.664 161.258Z" fill="url(#paint6_linear_120_561)"/>
</g>
<path d="M189.149 87.3674C188.936 87.1334 188.637 87 188.322 87H144.562C144.247 87 143.948 87.1334 143.735 87.3674C143.523 87.6014 143.418 87.9157 143.446 88.231L147.389 132.801C147.43 133.266 147.752 133.659 148.197 133.788L166.128 138.957C166.228 138.985 166.332 139 166.435 139C166.538 139 166.643 138.985 166.742 138.957L184.689 133.788C185.135 133.659 185.456 133.266 185.497 132.801L189.438 88.231C189.466 87.9157 189.36 87.6014 189.149 87.3674ZM151.882 117.526L159.722 119.722V97.1739H164.202V126.565L151.882 123.116V117.526ZM181.062 109.609L179.882 123.457L168.682 126.565V121.364L176.242 119.267L176.522 115.028L168.682 116.391V97.1739H182.122L181.735 101.696H173.162V110.739L181.062 109.609Z" fill="#00FFC2"/>
<path d="M134.727 154.05V152.25C135.127 152.25 135.417 152.175 135.597 152.025C135.777 151.875 135.867 151.595 135.867 151.185V142.8H137.922L137.937 151.275C137.937 152.365 137.692 153.1 137.202 153.48C136.722 153.86 135.897 154.05 134.727 154.05ZM145.643 147.84V150.96C145.663 151.2 145.703 151.37 145.763 151.47C145.823 151.56 145.948 151.625 146.138 151.665L146.078 153.18C145.568 153.18 145.158 153.145 144.848 153.075C144.548 153.005 144.243 152.865 143.933 152.655C143.213 153.005 142.478 153.18 141.728 153.18C140.178 153.18 139.403 152.36 139.403 150.72C139.403 149.92 139.618 149.355 140.048 149.025C140.478 148.685 141.138 148.485 142.028 148.425L143.633 148.305V147.84C143.633 147.53 143.563 147.32 143.423 147.21C143.283 147.09 143.058 147.03 142.748 147.03L139.928 147.15L139.868 145.755C140.938 145.465 141.953 145.32 142.913 145.32C143.883 145.32 144.578 145.52 144.998 145.92C145.428 146.32 145.643 146.96 145.643 147.84ZM142.268 149.82C141.708 149.87 141.428 150.17 141.428 150.72C141.428 151.27 141.673 151.545 142.163 151.545C142.543 151.545 142.958 151.485 143.408 151.365L143.633 151.305V149.7L142.268 149.82ZM146.767 145.5H148.867L150.067 151.29H150.487L151.747 145.5H153.787L151.987 153H148.567L146.767 145.5ZM160.599 147.84V150.96C160.619 151.2 160.659 151.37 160.719 151.47C160.779 151.56 160.904 151.625 161.094 151.665L161.034 153.18C160.524 153.18 160.114 153.145 159.804 153.075C159.504 153.005 159.199 152.865 158.889 152.655C158.169 153.005 157.434 153.18 156.684 153.18C155.134 153.18 154.359 152.36 154.359 150.72C154.359 149.92 154.574 149.355 155.004 149.025C155.434 148.685 156.094 148.485 156.984 148.425L158.589 148.305V147.84C158.589 147.53 158.519 147.32 158.379 147.21C158.239 147.09 158.014 147.03 157.704 147.03L154.884 147.15L154.824 145.755C155.894 145.465 156.909 145.32 157.869 145.32C158.839 145.32 159.534 145.52 159.954 145.92C160.384 146.32 160.599 146.96 160.599 147.84ZM157.224 149.82C156.664 149.87 156.384 150.17 156.384 150.72C156.384 151.27 156.629 151.545 157.119 151.545C157.499 151.545 157.914 151.485 158.364 151.365L158.589 151.305V149.7L157.224 149.82ZM167.901 147.375C166.661 147.215 165.791 147.135 165.291 147.135C164.801 147.135 164.481 147.18 164.331 147.27C164.191 147.36 164.121 147.505 164.121 147.705C164.121 147.895 164.216 148.03 164.406 148.11C164.606 148.18 165.106 148.29 165.906 148.44C166.716 148.58 167.291 148.815 167.631 149.145C167.971 149.475 168.141 150.01 168.141 150.75C168.141 152.37 167.136 153.18 165.126 153.18C164.466 153.18 163.666 153.09 162.726 152.91L162.246 152.82L162.306 151.14C163.546 151.3 164.406 151.38 164.886 151.38C165.376 151.38 165.706 151.335 165.876 151.245C166.056 151.145 166.146 151 166.146 150.81C166.146 150.62 166.051 150.48 165.861 150.39C165.681 150.3 165.201 150.19 164.421 150.06C163.651 149.93 163.076 149.71 162.696 149.4C162.316 149.09 162.126 148.54 162.126 147.75C162.126 146.95 162.396 146.35 162.936 145.95C163.476 145.54 164.171 145.335 165.021 145.335C165.611 145.335 166.416 145.43 167.436 145.62L167.931 145.71L167.901 147.375ZM172.396 145.32C172.916 145.32 173.581 145.4 174.391 145.56L174.796 145.65L174.736 147.24C173.946 147.16 173.361 147.12 172.981 147.12C172.291 147.12 171.831 147.27 171.601 147.57C171.381 147.86 171.271 148.415 171.271 149.235C171.271 150.055 171.381 150.62 171.601 150.93C171.831 151.23 172.296 151.38 172.996 151.38L174.736 151.26L174.796 152.865C173.726 153.075 172.911 153.18 172.351 153.18C171.241 153.18 170.441 152.87 169.951 152.25C169.471 151.62 169.231 150.615 169.231 149.235C169.231 147.855 169.481 146.86 169.981 146.25C170.481 145.63 171.286 145.32 172.396 145.32ZM176.285 153V145.5H178.28V146.295C179.12 145.795 179.92 145.47 180.68 145.32V147.345C179.87 147.515 179.175 147.69 178.595 147.87L178.295 147.975V153H176.285ZM181.866 153V145.5H183.876V153H181.866ZM181.866 144.54V142.5H183.876V144.54H181.866ZM185.733 156.15V145.5H187.728V145.905C188.378 145.515 188.948 145.32 189.438 145.32C190.448 145.32 191.193 145.625 191.673 146.235C192.153 146.835 192.393 147.86 192.393 149.31C192.393 150.76 192.128 151.77 191.598 152.34C191.068 152.9 190.198 153.18 188.988 153.18C188.658 153.18 188.303 153.15 187.923 153.09L187.743 153.06V156.15H185.733ZM189.048 147.12C188.678 147.12 188.303 147.195 187.923 147.345L187.743 147.42V151.35C188.193 151.41 188.558 151.44 188.838 151.44C189.418 151.44 189.813 151.27 190.023 150.93C190.243 150.59 190.353 150.01 190.353 149.19C190.353 147.81 189.918 147.12 189.048 147.12ZM198.048 147.21H196.203V150.285C196.203 150.585 196.208 150.8 196.218 150.93C196.238 151.05 196.293 151.155 196.383 151.245C196.483 151.335 196.633 151.38 196.833 151.38L197.973 151.35L198.063 152.955C197.393 153.105 196.883 153.18 196.533 153.18C195.633 153.18 195.018 152.98 194.688 152.58C194.358 152.17 194.193 151.42 194.193 150.33V147.21H193.308V145.5H194.193V143.415H196.203V145.5H198.048V147.21Z" fill="white"/>
<path d="M134.727 154.05V152.25C135.127 152.25 135.417 152.175 135.597 152.025C135.777 151.875 135.867 151.595 135.867 151.185V142.8H137.922L137.937 151.275C137.937 152.365 137.692 153.1 137.202 153.48C136.722 153.86 135.897 154.05 134.727 154.05ZM145.643 147.84V150.96C145.663 151.2 145.703 151.37 145.763 151.47C145.823 151.56 145.948 151.625 146.138 151.665L146.078 153.18C145.568 153.18 145.158 153.145 144.848 153.075C144.548 153.005 144.243 152.865 143.933 152.655C143.213 153.005 142.478 153.18 141.728 153.18C140.178 153.18 139.403 152.36 139.403 150.72C139.403 149.92 139.618 149.355 140.048 149.025C140.478 148.685 141.138 148.485 142.028 148.425L143.633 148.305V147.84C143.633 147.53 143.563 147.32 143.423 147.21C143.283 147.09 143.058 147.03 142.748 147.03L139.928 147.15L139.868 145.755C140.938 145.465 141.953 145.32 142.913 145.32C143.883 145.32 144.578 145.52 144.998 145.92C145.428 146.32 145.643 146.96 145.643 147.84ZM142.268 149.82C141.708 149.87 141.428 150.17 141.428 150.72C141.428 151.27 141.673 151.545 142.163 151.545C142.543 151.545 142.958 151.485 143.408 151.365L143.633 151.305V149.7L142.268 149.82ZM146.767 145.5H148.867L150.067 151.29H150.487L151.747 145.5H153.787L151.987 153H148.567L146.767 145.5ZM160.599 147.84V150.96C160.619 151.2 160.659 151.37 160.719 151.47C160.779 151.56 160.904 151.625 161.094 151.665L161.034 153.18C160.524 153.18 160.114 153.145 159.804 153.075C159.504 153.005 159.199 152.865 158.889 152.655C158.169 153.005 157.434 153.18 156.684 153.18C155.134 153.18 154.359 152.36 154.359 150.72C154.359 149.92 154.574 149.355 155.004 149.025C155.434 148.685 156.094 148.485 156.984 148.425L158.589 148.305V147.84C158.589 147.53 158.519 147.32 158.379 147.21C158.239 147.09 158.014 147.03 157.704 147.03L154.884 147.15L154.824 145.755C155.894 145.465 156.909 145.32 157.869 145.32C158.839 145.32 159.534 145.52 159.954 145.92C160.384 146.32 160.599 146.96 160.599 147.84ZM157.224 149.82C156.664 149.87 156.384 150.17 156.384 150.72C156.384 151.27 156.629 151.545 157.119 151.545C157.499 151.545 157.914 151.485 158.364 151.365L158.589 151.305V149.7L157.224 149.82ZM167.901 147.375C166.661 147.215 165.791 147.135 165.291 147.135C164.801 147.135 164.481 147.18 164.331 147.27C164.191 147.36 164.121 147.505 164.121 147.705C164.121 147.895 164.216 148.03 164.406 148.11C164.606 148.18 165.106 148.29 165.906 148.44C166.716 148.58 167.291 148.815 167.631 149.145C167.971 149.475 168.141 150.01 168.141 150.75C168.141 152.37 167.136 153.18 165.126 153.18C164.466 153.18 163.666 153.09 162.726 152.91L162.246 152.82L162.306 151.14C163.546 151.3 164.406 151.38 164.886 151.38C165.376 151.38 165.706 151.335 165.876 151.245C166.056 151.145 166.146 151 166.146 150.81C166.146 150.62 166.051 150.48 165.861 150.39C165.681 150.3 165.201 150.19 164.421 150.06C163.651 149.93 163.076 149.71 162.696 149.4C162.316 149.09 162.126 148.54 162.126 147.75C162.126 146.95 162.396 146.35 162.936 145.95C163.476 145.54 164.171 145.335 165.021 145.335C165.611 145.335 166.416 145.43 167.436 145.62L167.931 145.71L167.901 147.375ZM172.396 145.32C172.916 145.32 173.581 145.4 174.391 145.56L174.796 145.65L174.736 147.24C173.946 147.16 173.361 147.12 172.981 147.12C172.291 147.12 171.831 147.27 171.601 147.57C171.381 147.86 171.271 148.415 171.271 149.235C171.271 150.055 171.381 150.62 171.601 150.93C171.831 151.23 172.296 151.38 172.996 151.38L174.736 151.26L174.796 152.865C173.726 153.075 172.911 153.18 172.351 153.18C171.241 153.18 170.441 152.87 169.951 152.25C169.471 151.62 169.231 150.615 169.231 149.235C169.231 147.855 169.481 146.86 169.981 146.25C170.481 145.63 171.286 145.32 172.396 145.32ZM176.285 153V145.5H178.28V146.295C179.12 145.795 179.92 145.47 180.68 145.32V147.345C179.87 147.515 179.175 147.69 178.595 147.87L178.295 147.975V153H176.285ZM181.866 153V145.5H183.876V153H181.866ZM181.866 144.54V142.5H183.876V144.54H181.866ZM185.733 156.15V145.5H187.728V145.905C188.378 145.515 188.948 145.32 189.438 145.32C190.448 145.32 191.193 145.625 191.673 146.235C192.153 146.835 192.393 147.86 192.393 149.31C192.393 150.76 192.128 151.77 191.598 152.34C191.068 152.9 190.198 153.18 188.988 153.18C188.658 153.18 188.303 153.15 187.923 153.09L187.743 153.06V156.15H185.733ZM189.048 147.12C188.678 147.12 188.303 147.195 187.923 147.345L187.743 147.42V151.35C188.193 151.41 188.558 151.44 188.838 151.44C189.418 151.44 189.813 151.27 190.023 150.93C190.243 150.59 190.353 150.01 190.353 149.19C190.353 147.81 189.918 147.12 189.048 147.12ZM198.048 147.21H196.203V150.285C196.203 150.585 196.208 150.8 196.218 150.93C196.238 151.05 196.293 151.155 196.383 151.245C196.483 151.335 196.633 151.38 196.833 151.38L197.973 151.35L198.063 152.955C197.393 153.105 196.883 153.18 196.533 153.18C195.633 153.18 195.018 152.98 194.688 152.58C194.358 152.17 194.193 151.42 194.193 150.33V147.21H193.308V145.5H194.193V143.415H196.203V145.5H198.048V147.21Z" fill="#00FFC2"/>
<g filter="url(#filter7_dii_120_561)">
<path d="M297.664 222.258L323.543 175.205C324.102 174.189 324.098 172.956 323.532 171.944L297.669 125.703C297.074 124.641 295.952 123.982 294.734 123.982L239.844 123.982C238.626 123.982 237.504 124.641 236.91 125.703L211.046 171.944C210.48 172.956 210.476 174.189 211.035 175.205L236.914 222.258C237.505 223.333 238.634 224 239.86 224H294.718C295.944 224 297.073 223.333 297.664 222.258Z" fill="url(#paint7_linear_120_561)"/>
</g>
<path d="M239.532 208.595C239.532 209.785 240.137 210.38 241.347 210.38C242.557 210.38 243.162 209.785 243.162 208.595V201.8H245.232V208.55C245.232 209.8 244.907 210.72 244.257 211.31C243.617 211.89 242.647 212.18 241.347 212.18C240.047 212.18 239.072 211.89 238.422 211.31C237.782 210.72 237.462 209.8 237.462 208.55V201.8H239.532V208.595ZM247.186 212V204.5H249.196V212H247.186ZM247.186 203.54V201.5H249.196V203.54H247.186ZM257.965 212H254.53V201.8H257.965C258.845 201.8 259.57 201.895 260.14 202.085C260.71 202.265 261.15 202.57 261.46 203C261.78 203.42 262 203.92 262.12 204.5C262.24 205.07 262.3 205.815 262.3 206.735C262.3 207.655 262.245 208.42 262.135 209.03C262.025 209.63 261.815 210.17 261.505 210.65C261.205 211.12 260.765 211.465 260.185 211.685C259.605 211.895 258.865 212 257.965 212ZM260.14 207.95C260.16 207.63 260.17 207.19 260.17 206.63C260.17 206.06 260.15 205.605 260.11 205.265C260.07 204.925 259.975 204.615 259.825 204.335C259.675 204.055 259.45 203.865 259.15 203.765C258.86 203.655 258.465 203.6 257.965 203.6H256.6V210.2H257.965C258.715 210.2 259.26 210.01 259.6 209.63C259.89 209.32 260.07 208.76 260.14 207.95ZM265.565 209.105C265.575 209.565 265.695 209.9 265.925 210.11C266.165 210.31 266.505 210.41 266.945 210.41C267.875 210.41 268.705 210.38 269.435 210.32L269.855 210.275L269.885 211.76C268.735 212.04 267.695 212.18 266.765 212.18C265.635 212.18 264.815 211.88 264.305 211.28C263.795 210.68 263.54 209.705 263.54 208.355C263.54 205.665 264.645 204.32 266.855 204.32C269.035 204.32 270.125 205.45 270.125 207.71L269.975 209.105H265.565ZM268.145 207.575C268.145 206.975 268.05 206.56 267.86 206.33C267.67 206.09 267.335 205.97 266.855 205.97C266.385 205.97 266.05 206.095 265.85 206.345C265.66 206.585 265.56 206.995 265.55 207.575H268.145ZM276.946 206.375C275.706 206.215 274.836 206.135 274.336 206.135C273.846 206.135 273.526 206.18 273.376 206.27C273.236 206.36 273.166 206.505 273.166 206.705C273.166 206.895 273.261 207.03 273.451 207.11C273.651 207.18 274.151 207.29 274.951 207.44C275.761 207.58 276.336 207.815 276.676 208.145C277.016 208.475 277.186 209.01 277.186 209.75C277.186 211.37 276.181 212.18 274.171 212.18C273.511 212.18 272.711 212.09 271.771 211.91L271.291 211.82L271.351 210.14C272.591 210.3 273.451 210.38 273.931 210.38C274.421 210.38 274.751 210.335 274.921 210.245C275.101 210.145 275.191 210 275.191 209.81C275.191 209.62 275.096 209.48 274.906 209.39C274.726 209.3 274.246 209.19 273.466 209.06C272.696 208.93 272.121 208.71 271.741 208.4C271.361 208.09 271.171 207.54 271.171 206.75C271.171 205.95 271.441 205.35 271.981 204.95C272.521 204.54 273.216 204.335 274.066 204.335C274.656 204.335 275.461 204.43 276.481 204.62L276.976 204.71L276.946 206.375ZM278.637 212V204.5H280.647V212H278.637ZM278.637 203.54V201.5H280.647V203.54H278.637ZM289.299 212.93C289.299 213.79 288.969 214.425 288.309 214.835C287.649 215.245 286.754 215.45 285.624 215.45C284.504 215.45 283.639 215.3 283.029 215C282.429 214.7 282.129 214.155 282.129 213.365C282.129 212.735 282.489 212.14 283.209 211.58C282.839 211.33 282.654 210.95 282.654 210.44C282.654 210.24 282.804 209.91 283.104 209.45L283.239 209.24C282.559 208.75 282.219 208.03 282.219 207.08C282.219 206.12 282.504 205.425 283.074 204.995C283.654 204.565 284.419 204.35 285.369 204.35C285.799 204.35 286.224 204.4 286.644 204.5L286.884 204.545L289.299 204.47V206.075L288.174 205.985C288.394 206.325 288.504 206.665 288.504 207.005C288.504 208.005 288.249 208.695 287.739 209.075C287.229 209.455 286.429 209.645 285.339 209.645C285.109 209.645 284.904 209.625 284.724 209.585C284.624 209.845 284.574 210.06 284.574 210.23C284.574 210.39 284.659 210.5 284.829 210.56C284.999 210.62 285.399 210.655 286.029 210.665C287.289 210.675 288.149 210.845 288.609 211.175C289.069 211.495 289.299 212.08 289.299 212.93ZM284.109 213.155C284.109 213.585 284.634 213.8 285.684 213.8C286.744 213.8 287.274 213.55 287.274 213.05C287.274 212.78 287.184 212.605 287.004 212.525C286.824 212.455 286.444 212.415 285.864 212.405L284.514 212.3C284.244 212.57 284.109 212.855 284.109 213.155ZM284.229 207.02C284.229 207.75 284.609 208.115 285.369 208.115C286.139 208.115 286.524 207.75 286.524 207.02C286.524 206.28 286.139 205.91 285.369 205.91C284.609 205.91 284.229 206.28 284.229 207.02ZM292.527 212H290.517V204.5H292.512V204.92C293.192 204.52 293.817 204.32 294.387 204.32C295.387 204.32 296.077 204.615 296.457 205.205C296.837 205.795 297.027 206.705 297.027 207.935V212H295.017V207.995C295.017 207.355 294.942 206.885 294.792 206.585C294.642 206.275 294.342 206.12 293.892 206.12C293.482 206.12 293.087 206.19 292.707 206.33L292.527 206.39V212Z" fill="white"/>
<path d="M239.532 208.595C239.532 209.785 240.137 210.38 241.347 210.38C242.557 210.38 243.162 209.785 243.162 208.595V201.8H245.232V208.55C245.232 209.8 244.907 210.72 244.257 211.31C243.617 211.89 242.647 212.18 241.347 212.18C240.047 212.18 239.072 211.89 238.422 211.31C237.782 210.72 237.462 209.8 237.462 208.55V201.8H239.532V208.595ZM247.186 212V204.5H249.196V212H247.186ZM247.186 203.54V201.5H249.196V203.54H247.186ZM257.965 212H254.53V201.8H257.965C258.845 201.8 259.57 201.895 260.14 202.085C260.71 202.265 261.15 202.57 261.46 203C261.78 203.42 262 203.92 262.12 204.5C262.24 205.07 262.3 205.815 262.3 206.735C262.3 207.655 262.245 208.42 262.135 209.03C262.025 209.63 261.815 210.17 261.505 210.65C261.205 211.12 260.765 211.465 260.185 211.685C259.605 211.895 258.865 212 257.965 212ZM260.14 207.95C260.16 207.63 260.17 207.19 260.17 206.63C260.17 206.06 260.15 205.605 260.11 205.265C260.07 204.925 259.975 204.615 259.825 204.335C259.675 204.055 259.45 203.865 259.15 203.765C258.86 203.655 258.465 203.6 257.965 203.6H256.6V210.2H257.965C258.715 210.2 259.26 210.01 259.6 209.63C259.89 209.32 260.07 208.76 260.14 207.95ZM265.565 209.105C265.575 209.565 265.695 209.9 265.925 210.11C266.165 210.31 266.505 210.41 266.945 210.41C267.875 210.41 268.705 210.38 269.435 210.32L269.855 210.275L269.885 211.76C268.735 212.04 267.695 212.18 266.765 212.18C265.635 212.18 264.815 211.88 264.305 211.28C263.795 210.68 263.54 209.705 263.54 208.355C263.54 205.665 264.645 204.32 266.855 204.32C269.035 204.32 270.125 205.45 270.125 207.71L269.975 209.105H265.565ZM268.145 207.575C268.145 206.975 268.05 206.56 267.86 206.33C267.67 206.09 267.335 205.97 266.855 205.97C266.385 205.97 266.05 206.095 265.85 206.345C265.66 206.585 265.56 206.995 265.55 207.575H268.145ZM276.946 206.375C275.706 206.215 274.836 206.135 274.336 206.135C273.846 206.135 273.526 206.18 273.376 206.27C273.236 206.36 273.166 206.505 273.166 206.705C273.166 206.895 273.261 207.03 273.451 207.11C273.651 207.18 274.151 207.29 274.951 207.44C275.761 207.58 276.336 207.815 276.676 208.145C277.016 208.475 277.186 209.01 277.186 209.75C277.186 211.37 276.181 212.18 274.171 212.18C273.511 212.18 272.711 212.09 271.771 211.91L271.291 211.82L271.351 210.14C272.591 210.3 273.451 210.38 273.931 210.38C274.421 210.38 274.751 210.335 274.921 210.245C275.101 210.145 275.191 210 275.191 209.81C275.191 209.62 275.096 209.48 274.906 209.39C274.726 209.3 274.246 209.19 273.466 209.06C272.696 208.93 272.121 208.71 271.741 208.4C271.361 208.09 271.171 207.54 271.171 206.75C271.171 205.95 271.441 205.35 271.981 204.95C272.521 204.54 273.216 204.335 274.066 204.335C274.656 204.335 275.461 204.43 276.481 204.62L276.976 204.71L276.946 206.375ZM278.637 212V204.5H280.647V212H278.637ZM278.637 203.54V201.5H280.647V203.54H278.637ZM289.299 212.93C289.299 213.79 288.969 214.425 288.309 214.835C287.649 215.245 286.754 215.45 285.624 215.45C284.504 215.45 283.639 215.3 283.029 215C282.429 214.7 282.129 214.155 282.129 213.365C282.129 212.735 282.489 212.14 283.209 211.58C282.839 211.33 282.654 210.95 282.654 210.44C282.654 210.24 282.804 209.91 283.104 209.45L283.239 209.24C282.559 208.75 282.219 208.03 282.219 207.08C282.219 206.12 282.504 205.425 283.074 204.995C283.654 204.565 284.419 204.35 285.369 204.35C285.799 204.35 286.224 204.4 286.644 204.5L286.884 204.545L289.299 204.47V206.075L288.174 205.985C288.394 206.325 288.504 206.665 288.504 207.005C288.504 208.005 288.249 208.695 287.739 209.075C287.229 209.455 286.429 209.645 285.339 209.645C285.109 209.645 284.904 209.625 284.724 209.585C284.624 209.845 284.574 210.06 284.574 210.23C284.574 210.39 284.659 210.5 284.829 210.56C284.999 210.62 285.399 210.655 286.029 210.665C287.289 210.675 288.149 210.845 288.609 211.175C289.069 211.495 289.299 212.08 289.299 212.93ZM284.109 213.155C284.109 213.585 284.634 213.8 285.684 213.8C286.744 213.8 287.274 213.55 287.274 213.05C287.274 212.78 287.184 212.605 287.004 212.525C286.824 212.455 286.444 212.415 285.864 212.405L284.514 212.3C284.244 212.57 284.109 212.855 284.109 213.155ZM284.229 207.02C284.229 207.75 284.609 208.115 285.369 208.115C286.139 208.115 286.524 207.75 286.524 207.02C286.524 206.28 286.139 205.91 285.369 205.91C284.609 205.91 284.229 206.28 284.229 207.02ZM292.527 212H290.517V204.5H292.512V204.92C293.192 204.52 293.817 204.32 294.387 204.32C295.387 204.32 296.077 204.615 296.457 205.205C296.837 205.795 297.027 206.705 297.027 207.935V212H295.017V207.995C295.017 207.355 294.942 206.885 294.792 206.585C294.642 206.275 294.342 206.12 293.892 206.12C293.482 206.12 293.087 206.19 292.707 206.33L292.527 206.39V212Z" fill="#00FFC2"/>
<path d="M274.929 195.82H272.57V192.282H264.314V195.82H261.955C261.798 195.82 261.648 195.883 261.538 195.993C261.427 196.104 261.365 196.254 261.365 196.41C261.365 196.567 261.427 196.717 261.538 196.827C261.648 196.938 261.798 197 261.955 197H274.929C275.086 197 275.236 196.938 275.346 196.827C275.457 196.717 275.519 196.567 275.519 196.41C275.519 196.254 275.457 196.104 275.346 195.993C275.236 195.883 275.086 195.82 274.929 195.82Z" fill="#00FFC2"/>
<path d="M245.442 186.974C245.443 188.069 245.879 189.118 246.653 189.892C247.426 190.666 248.476 191.101 249.57 191.102H287.314C288.408 191.101 289.458 190.666 290.231 189.892C291.005 189.118 291.441 188.069 291.442 186.974V186.385H245.442V186.974ZM266.673 188.154H270.211C270.368 188.154 270.518 188.216 270.628 188.326C270.739 188.437 270.801 188.587 270.801 188.743C270.801 188.9 270.739 189.05 270.628 189.161C270.518 189.271 270.368 189.333 270.211 189.333H266.673C266.516 189.333 266.366 189.271 266.256 189.161C266.145 189.05 266.083 188.9 266.083 188.743C266.083 188.587 266.145 188.437 266.256 188.326C266.366 188.216 266.516 188.154 266.673 188.154Z" fill="#00FFC2"/>
<path d="M287.314 156.897H280.827V159.256H287.314C287.783 159.258 288.232 159.445 288.563 159.776C288.895 160.108 289.082 160.557 289.083 161.026V182.256C289.083 182.413 289.02 182.562 288.91 182.673C288.799 182.783 288.65 182.846 288.493 182.846H248.391C248.234 182.846 248.085 182.783 247.974 182.673C247.864 182.562 247.801 182.413 247.801 182.256V161.026C247.802 160.557 247.989 160.108 248.321 159.776C248.652 159.445 249.101 159.258 249.57 159.256H256.057V156.897H249.57C248.476 156.899 247.426 157.334 246.652 158.108C245.879 158.882 245.443 159.931 245.442 161.026V185.205H291.442V161.026C291.441 159.931 291.005 158.882 290.232 158.108C289.458 157.334 288.408 156.899 287.314 156.897Z" fill="#00FFC2"/>
<path d="M271.391 156.897H269.032V159.256H271.391V156.897Z" fill="#00FFC2"/>
<path d="M248.98 161.026V181.667H256.057V160.436H249.57C249.414 160.436 249.264 160.499 249.154 160.609C249.043 160.72 248.981 160.869 248.98 161.026Z" fill="#00FFC2"/>
<path d="M271.391 160.436H269.032V181.667H271.391V160.436Z" fill="#00FFC2"/>
<path d="M287.904 161.026C287.903 160.869 287.841 160.72 287.73 160.609C287.62 160.499 287.47 160.436 287.314 160.436H280.827V181.667H287.904V161.026Z" fill="#00FFC2"/>
<path d="M263.724 151H257.827C257.67 151 257.521 151.063 257.41 151.173C257.3 151.284 257.237 151.433 257.237 151.59V153.359H260.186C260.342 153.359 260.492 153.421 260.603 153.532C260.713 153.642 260.775 153.792 260.775 153.949C260.775 154.105 260.713 154.255 260.603 154.366C260.492 154.476 260.342 154.538 260.186 154.538H257.237V156.897H260.186C260.342 156.897 260.492 156.96 260.603 157.07C260.713 157.181 260.775 157.331 260.775 157.487C260.775 157.644 260.713 157.794 260.603 157.904C260.492 158.015 260.342 158.077 260.186 158.077H257.237V160.436H260.186C260.342 160.436 260.492 160.498 260.603 160.609C260.713 160.719 260.775 160.869 260.775 161.026C260.775 161.182 260.713 161.332 260.603 161.443C260.492 161.553 260.342 161.615 260.186 161.615H257.237V163.974H260.186C260.342 163.974 260.492 164.036 260.603 164.147C260.713 164.258 260.775 164.408 260.775 164.564C260.775 164.721 260.713 164.871 260.603 164.981C260.492 165.092 260.342 165.154 260.186 165.154H257.237V167.513H260.186C260.342 167.513 260.492 167.575 260.603 167.686C260.713 167.796 260.775 167.946 260.775 168.103C260.775 168.259 260.713 168.409 260.603 168.52C260.492 168.63 260.342 168.692 260.186 168.692H257.237V171.051H260.186C260.342 171.051 260.492 171.113 260.603 171.224C260.713 171.335 260.775 171.485 260.775 171.641C260.775 171.797 260.713 171.947 260.603 172.058C260.492 172.169 260.342 172.231 260.186 172.231H257.237V174.59H260.186C260.342 174.59 260.492 174.652 260.603 174.762C260.713 174.873 260.775 175.023 260.775 175.179C260.775 175.336 260.713 175.486 260.603 175.596C260.492 175.707 260.342 175.769 260.186 175.769H257.237V178.128H260.186C260.342 178.128 260.492 178.19 260.603 178.301C260.713 178.412 260.775 178.562 260.775 178.718C260.775 178.874 260.713 179.024 260.603 179.135C260.492 179.246 260.342 179.308 260.186 179.308H257.237V181.667H263.724V151Z" fill="#00FFC2"/>
<path d="M267.852 151.59C267.852 151.433 267.79 151.284 267.679 151.173C267.569 151.063 267.419 151 267.263 151H264.904V181.667H267.852V151.59Z" fill="#00FFC2"/>
<path d="M276.636 151.326C276.582 151.235 276.505 151.159 276.412 151.106C276.32 151.054 276.215 151.026 276.109 151.026C276.002 151.026 275.898 151.054 275.805 151.106C275.713 151.159 275.636 151.235 275.581 151.326L272.795 156.897H279.422L276.636 151.326Z" fill="#00FFC2"/>
<path d="M279.647 158.077H276.698V181.667H279.647V158.077Z" fill="#00FFC2"/>
<path d="M275.519 158.077H272.57V181.667H275.519V158.077Z" fill="#00FFC2"/>
<g filter="url(#filter8_dii_120_561)">
<path d="M401.664 162.258L427.543 115.205C428.102 114.189 428.098 112.956 427.532 111.944L401.669 65.7032C401.074 64.6407 399.952 63.9824 398.734 63.9824L343.844 63.9824C342.626 63.9824 341.504 64.6407 340.91 65.7032L315.046 111.944C314.48 112.956 314.476 114.189 315.035 115.205L340.914 162.258C341.505 163.333 342.634 164 343.86 164H398.718C399.944 164 401.073 163.333 401.664 162.258Z" fill="url(#paint8_linear_120_561)"/>
</g>
<path d="M366.797 152.34V150.54H369.767V155.835C368.337 156.065 367.177 156.18 366.287 156.18C364.697 156.18 363.602 155.755 363.002 154.905C362.412 154.055 362.117 152.705 362.117 150.855C362.117 149.005 362.427 147.67 363.047 146.85C363.667 146.03 364.722 145.62 366.212 145.62C367.142 145.62 368.147 145.725 369.227 145.935L369.767 146.04L369.707 147.645C368.507 147.515 367.522 147.45 366.752 147.45C365.992 147.45 365.457 147.54 365.147 147.72C364.837 147.9 364.607 148.235 364.457 148.725C364.317 149.205 364.247 150.035 364.247 151.215C364.247 152.385 364.392 153.205 364.682 153.675C364.972 154.145 365.572 154.38 366.482 154.38L367.727 154.32V152.34H366.797ZM371.542 156V148.5H373.552V156H371.542ZM371.542 147.54V145.5H373.552V147.54H371.542ZM379.564 150.21H377.719V153.285C377.719 153.585 377.724 153.8 377.734 153.93C377.754 154.05 377.809 154.155 377.899 154.245C377.999 154.335 378.149 154.38 378.349 154.38L379.489 154.35L379.579 155.955C378.909 156.105 378.399 156.18 378.049 156.18C377.149 156.18 376.534 155.98 376.204 155.58C375.874 155.17 375.709 154.42 375.709 153.33V150.21H374.824V148.5H375.709V146.415H377.719V148.5H379.564V150.21Z" fill="white"/>
<path d="M366.797 152.34V150.54H369.767V155.835C368.337 156.065 367.177 156.18 366.287 156.18C364.697 156.18 363.602 155.755 363.002 154.905C362.412 154.055 362.117 152.705 362.117 150.855C362.117 149.005 362.427 147.67 363.047 146.85C363.667 146.03 364.722 145.62 366.212 145.62C367.142 145.62 368.147 145.725 369.227 145.935L369.767 146.04L369.707 147.645C368.507 147.515 367.522 147.45 366.752 147.45C365.992 147.45 365.457 147.54 365.147 147.72C364.837 147.9 364.607 148.235 364.457 148.725C364.317 149.205 364.247 150.035 364.247 151.215C364.247 152.385 364.392 153.205 364.682 153.675C364.972 154.145 365.572 154.38 366.482 154.38L367.727 154.32V152.34H366.797ZM371.542 156V148.5H373.552V156H371.542ZM371.542 147.54V145.5H373.552V147.54H371.542ZM379.564 150.21H377.719V153.285C377.719 153.585 377.724 153.8 377.734 153.93C377.754 154.05 377.809 154.155 377.899 154.245C377.999 154.335 378.149 154.38 378.349 154.38L379.489 154.35L379.579 155.955C378.909 156.105 378.399 156.18 378.049 156.18C377.149 156.18 376.534 155.98 376.204 155.58C375.874 155.17 375.709 154.42 375.709 153.33V150.21H374.824V148.5H375.709V146.415H377.719V148.5H379.564V150.21Z" fill="#00FFC2"/>
<path d="M393.572 111.951L373.49 91.8696C373.216 91.594 372.889 91.3753 372.53 91.2261C372.17 91.0768 371.785 91 371.396 91C371.007 91 370.622 91.0768 370.262 91.2261C369.903 91.3753 369.576 91.594 369.302 91.8696L365.131 96.0403L370.42 101.33C371.044 101.117 371.715 101.085 372.356 101.235C372.998 101.385 373.584 101.713 374.048 102.18C374.513 102.648 374.836 103.236 374.983 103.879C375.129 104.521 375.091 105.192 374.875 105.814L379.967 110.906C380.728 110.645 381.556 110.652 382.313 110.927C383.069 111.201 383.709 111.727 384.125 112.416C384.541 113.105 384.708 113.916 384.599 114.713C384.489 115.51 384.11 116.246 383.524 116.798C382.938 117.35 382.181 117.684 381.378 117.745C380.576 117.806 379.777 117.591 379.114 117.134C378.451 116.678 377.965 116.008 377.736 115.236C377.507 114.464 377.55 113.638 377.856 112.894L373.101 108.138V120.65C373.821 121.007 374.398 121.6 374.734 122.33C375.07 123.06 375.146 123.884 374.949 124.663C374.752 125.443 374.294 126.131 373.651 126.614C373.008 127.097 372.22 127.344 371.416 127.316C370.613 127.288 369.843 126.985 369.236 126.459C368.628 125.932 368.22 125.213 368.078 124.422C367.936 123.63 368.07 122.814 368.457 122.11C368.843 121.405 369.46 120.854 370.203 120.548V107.921C369.773 107.745 369.382 107.485 369.053 107.157C368.724 106.828 368.462 106.438 368.285 106.009C368.107 105.579 368.016 105.118 368.016 104.653C368.017 104.188 368.11 103.728 368.29 103.299L363.083 98.0886L349.312 111.864C349.037 112.138 348.818 112.465 348.668 112.825C348.519 113.184 348.442 113.57 348.442 113.959C348.442 114.348 348.519 114.734 348.668 115.093C348.818 115.453 349.037 115.779 349.312 116.054L369.394 136.129C369.668 136.404 369.995 136.623 370.354 136.772C370.714 136.922 371.099 136.998 371.488 136.998C371.877 136.998 372.262 136.922 372.622 136.772C372.981 136.623 373.308 136.404 373.582 136.129L393.572 116.135C393.847 115.86 394.066 115.533 394.216 115.174C394.365 114.814 394.442 114.429 394.442 114.039C394.442 113.65 394.365 113.265 394.216 112.905C394.066 112.545 393.847 112.219 393.572 111.944" fill="#00FFC2"/>
<path d="M365.131 96.0403L370.42 101.33C371.044 101.117 371.715 101.085 372.356 101.235C372.998 101.385 373.584 101.713 374.048 102.18C374.513 102.648 374.836 103.236 374.983 103.879C375.129 104.521 375.091 105.192 374.875 105.814L379.967 110.906C380.728 110.645 381.556 110.652 382.313 110.927C383.069 111.201 383.709 111.727 384.125 112.416C384.54 113.105 384.708 113.916 384.599 114.713C384.489 115.51 384.11 116.246 383.524 116.798C382.938 117.35 382.181 117.684 381.378 117.745C380.576 117.806 379.777 117.591 379.114 117.134C378.451 116.678 377.965 116.008 377.736 115.236C377.507 114.464 377.55 113.638 377.856 112.894L373.101 108.138V120.65C373.821 121.007 374.398 121.6 374.734 122.33C375.07 123.06 375.146 123.884 374.949 124.663C374.752 125.443 374.294 126.131 373.651 126.614C373.008 127.097 372.22 127.344 371.416 127.316C370.613 127.288 369.843 126.985 369.236 126.459C368.628 125.932 368.22 125.213 368.078 124.422C367.936 123.63 368.07 122.814 368.457 122.11C368.843 121.405 369.46 120.854 370.203 120.548V107.921C369.773 107.745 369.382 107.485 369.053 107.157C368.724 106.828 368.462 106.438 368.284 106.009C368.107 105.579 368.016 105.118 368.016 104.653C368.017 104.188 368.11 103.728 368.29 103.299L363.083 98.0886" fill="#151515"/>
<g filter="url(#filter9_dii_120_561)">
<path d="M504.664 222.258L530.543 175.205C531.102 174.189 531.098 172.956 530.532 171.944L504.669 125.703C504.074 124.641 502.952 123.982 501.734 123.982L446.844 123.982C445.626 123.982 444.504 124.641 443.91 125.703L418.046 171.944C417.48 172.956 417.476 174.189 418.035 175.205L443.914 222.258C444.505 223.333 445.634 224 446.86 224H501.718C502.944 224 504.073 223.333 504.664 222.258Z" fill="url(#paint9_linear_120_561)"/>
</g>
<path d="M455.552 214V203.8H462.062V205.6H457.622V208.6H461.252V210.4H457.622V214H455.552ZM463.341 214V206.5H465.351V214H463.341ZM463.341 205.54V203.5H465.351V205.54H463.341ZM474.003 214.93C474.003 215.79 473.673 216.425 473.013 216.835C472.353 217.245 471.458 217.45 470.328 217.45C469.208 217.45 468.343 217.3 467.733 217C467.133 216.7 466.833 216.155 466.833 215.365C466.833 214.735 467.193 214.14 467.913 213.58C467.543 213.33 467.358 212.95 467.358 212.44C467.358 212.24 467.508 211.91 467.808 211.45L467.943 211.24C467.263 210.75 466.923 210.03 466.923 209.08C466.923 208.12 467.208 207.425 467.778 206.995C468.358 206.565 469.123 206.35 470.073 206.35C470.503 206.35 470.928 206.4 471.348 206.5L471.588 206.545L474.003 206.47V208.075L472.878 207.985C473.098 208.325 473.208 208.665 473.208 209.005C473.208 210.005 472.953 210.695 472.443 211.075C471.933 211.455 471.133 211.645 470.043 211.645C469.813 211.645 469.608 211.625 469.428 211.585C469.328 211.845 469.278 212.06 469.278 212.23C469.278 212.39 469.363 212.5 469.533 212.56C469.703 212.62 470.103 212.655 470.733 212.665C471.993 212.675 472.853 212.845 473.313 213.175C473.773 213.495 474.003 214.08 474.003 214.93ZM468.813 215.155C468.813 215.585 469.338 215.8 470.388 215.8C471.448 215.8 471.978 215.55 471.978 215.05C471.978 214.78 471.888 214.605 471.708 214.525C471.528 214.455 471.148 214.415 470.568 214.405L469.218 214.3C468.948 214.57 468.813 214.855 468.813 215.155ZM468.933 209.02C468.933 209.75 469.313 210.115 470.073 210.115C470.843 210.115 471.228 209.75 471.228 209.02C471.228 208.28 470.843 207.91 470.073 207.91C469.313 207.91 468.933 208.28 468.933 209.02ZM477.231 214H475.221V206.5H477.216V206.92C477.906 206.52 478.496 206.32 478.986 206.32C479.796 206.32 480.421 206.555 480.861 207.025C481.781 206.555 482.621 206.32 483.381 206.32C484.371 206.32 485.056 206.61 485.436 207.19C485.826 207.76 486.021 208.675 486.021 209.935V214H484.011V209.995C484.011 209.355 483.941 208.885 483.801 208.585C483.661 208.275 483.381 208.12 482.961 208.12C482.641 208.12 482.251 208.19 481.791 208.33L481.566 208.405C481.606 209.155 481.626 209.725 481.626 210.115V214H479.616V210.145C479.616 209.405 479.551 208.885 479.421 208.585C479.291 208.275 479.006 208.12 478.566 208.12C478.176 208.12 477.791 208.19 477.411 208.33L477.231 208.39V214ZM493.549 208.84V211.96C493.569 212.2 493.609 212.37 493.669 212.47C493.729 212.56 493.854 212.625 494.044 212.665L493.984 214.18C493.474 214.18 493.064 214.145 492.754 214.075C492.454 214.005 492.149 213.865 491.839 213.655C491.119 214.005 490.384 214.18 489.634 214.18C488.084 214.18 487.309 213.36 487.309 211.72C487.309 210.92 487.524 210.355 487.954 210.025C488.384 209.685 489.044 209.485 489.934 209.425L491.539 209.305V208.84C491.539 208.53 491.469 208.32 491.329 208.21C491.189 208.09 490.964 208.03 490.654 208.03L487.834 208.15L487.774 206.755C488.844 206.465 489.859 206.32 490.819 206.32C491.789 206.32 492.484 206.52 492.904 206.92C493.334 207.32 493.549 207.96 493.549 208.84ZM490.174 210.82C489.614 210.87 489.334 211.17 489.334 211.72C489.334 212.27 489.579 212.545 490.069 212.545C490.449 212.545 490.864 212.485 491.314 212.365L491.539 212.305V210.7L490.174 210.82Z" fill="white"/>
<path d="M455.552 214V203.8H462.062V205.6H457.622V208.6H461.252V210.4H457.622V214H455.552ZM463.341 214V206.5H465.351V214H463.341ZM463.341 205.54V203.5H465.351V205.54H463.341ZM474.003 214.93C474.003 215.79 473.673 216.425 473.013 216.835C472.353 217.245 471.458 217.45 470.328 217.45C469.208 217.45 468.343 217.3 467.733 217C467.133 216.7 466.833 216.155 466.833 215.365C466.833 214.735 467.193 214.14 467.913 213.58C467.543 213.33 467.358 212.95 467.358 212.44C467.358 212.24 467.508 211.91 467.808 211.45L467.943 211.24C467.263 210.75 466.923 210.03 466.923 209.08C466.923 208.12 467.208 207.425 467.778 206.995C468.358 206.565 469.123 206.35 470.073 206.35C470.503 206.35 470.928 206.4 471.348 206.5L471.588 206.545L474.003 206.47V208.075L472.878 207.985C473.098 208.325 473.208 208.665 473.208 209.005C473.208 210.005 472.953 210.695 472.443 211.075C471.933 211.455 471.133 211.645 470.043 211.645C469.813 211.645 469.608 211.625 469.428 211.585C469.328 211.845 469.278 212.06 469.278 212.23C469.278 212.39 469.363 212.5 469.533 212.56C469.703 212.62 470.103 212.655 470.733 212.665C471.993 212.675 472.853 212.845 473.313 213.175C473.773 213.495 474.003 214.08 474.003 214.93ZM468.813 215.155C468.813 215.585 469.338 215.8 470.388 215.8C471.448 215.8 471.978 215.55 471.978 215.05C471.978 214.78 471.888 214.605 471.708 214.525C471.528 214.455 471.148 214.415 470.568 214.405L469.218 214.3C468.948 214.57 468.813 214.855 468.813 215.155ZM468.933 209.02C468.933 209.75 469.313 210.115 470.073 210.115C470.843 210.115 471.228 209.75 471.228 209.02C471.228 208.28 470.843 207.91 470.073 207.91C469.313 207.91 468.933 208.28 468.933 209.02ZM477.231 214H475.221V206.5H477.216V206.92C477.906 206.52 478.496 206.32 478.986 206.32C479.796 206.32 480.421 206.555 480.861 207.025C481.781 206.555 482.621 206.32 483.381 206.32C484.371 206.32 485.056 206.61 485.436 207.19C485.826 207.76 486.021 208.675 486.021 209.935V214H484.011V209.995C484.011 209.355 483.941 208.885 483.801 208.585C483.661 208.275 483.381 208.12 482.961 208.12C482.641 208.12 482.251 208.19 481.791 208.33L481.566 208.405C481.606 209.155 481.626 209.725 481.626 210.115V214H479.616V210.145C479.616 209.405 479.551 208.885 479.421 208.585C479.291 208.275 479.006 208.12 478.566 208.12C478.176 208.12 477.791 208.19 477.411 208.33L477.231 208.39V214ZM493.549 208.84V211.96C493.569 212.2 493.609 212.37 493.669 212.47C493.729 212.56 493.854 212.625 494.044 212.665L493.984 214.18C493.474 214.18 493.064 214.145 492.754 214.075C492.454 214.005 492.149 213.865 491.839 213.655C491.119 214.005 490.384 214.18 489.634 214.18C488.084 214.18 487.309 213.36 487.309 211.72C487.309 210.92 487.524 210.355 487.954 210.025C488.384 209.685 489.044 209.485 489.934 209.425L491.539 209.305V208.84C491.539 208.53 491.469 208.32 491.329 208.21C491.189 208.09 490.964 208.03 490.654 208.03L487.834 208.15L487.774 206.755C488.844 206.465 489.859 206.32 490.819 206.32C491.789 206.32 492.484 206.52 492.904 206.92C493.334 207.32 493.549 207.96 493.549 208.84ZM490.174 210.82C489.614 210.87 489.334 211.17 489.334 211.72C489.334 212.27 489.579 212.545 490.069 212.545C490.449 212.545 490.864 212.485 491.314 212.365L491.539 212.305V210.7L490.174 210.82Z" fill="#00FFC2"/>
<path d="M451.442 153C451.442 151.895 452.337 151 453.442 151H495.442C496.547 151 497.442 151.895 497.442 153V195C497.442 196.105 496.547 197 495.442 197H453.442C452.337 197 451.442 196.105 451.442 195V153Z" fill="#00FFC2"/>
<path d="M463.442 163.5C463.442 162.041 464.021 160.642 465.053 159.611C466.084 158.579 467.483 158 468.942 158H474.442V169H468.942C467.483 169 466.084 168.421 465.053 167.389C464.021 166.358 463.442 164.959 463.442 163.5Z" stroke="#151515" stroke-width="3.14286" stroke-linecap="round" stroke-linejoin="round"/>
<path d="M474.442 158H479.942C480.664 158 481.379 158.142 482.047 158.419C482.714 158.695 483.32 159.1 483.831 159.611C484.342 160.122 484.747 160.728 485.023 161.395C485.3 162.063 485.442 162.778 485.442 163.5C485.442 164.222 485.3 164.937 485.023 165.605C484.747 166.272 484.342 166.878 483.831 167.389C483.32 167.9 482.714 168.305 482.047 168.581C481.379 168.858 480.664 169 479.942 169H474.442V158Z" stroke="#151515" stroke-width="3.14286" stroke-linecap="round" stroke-linejoin="round"/>
<path d="M474.442 174.5C474.442 173.778 474.584 173.063 474.861 172.395C475.137 171.728 475.542 171.122 476.053 170.611C476.564 170.1 477.17 169.695 477.837 169.419C478.505 169.142 479.22 169 479.942 169C480.664 169 481.379 169.142 482.047 169.419C482.714 169.695 483.32 170.1 483.831 170.611C484.342 171.122 484.747 171.728 485.023 172.395C485.3 173.063 485.442 173.778 485.442 174.5C485.442 175.222 485.3 175.937 485.023 176.605C484.747 177.272 484.342 177.878 483.831 178.389C483.32 178.9 482.714 179.305 482.047 179.581C481.379 179.858 480.664 180 479.942 180C479.22 180 478.505 179.858 477.837 179.581C477.17 179.305 476.564 178.9 476.053 178.389C475.542 177.878 475.137 177.272 474.861 176.605C474.584 175.937 474.442 175.222 474.442 174.5Z" stroke="#151515" stroke-width="3.14286" stroke-linecap="round" stroke-linejoin="round"/>
<path d="M463.442 185.5C463.442 184.041 464.021 182.642 465.053 181.611C466.084 180.579 467.483 180 468.942 180H474.442V185.5C474.442 186.959 473.863 188.358 472.831 189.389C471.8 190.421 470.401 191 468.942 191C467.483 191 466.084 190.421 465.053 189.389C464.021 188.358 463.442 186.959 463.442 185.5Z" stroke="#151515" stroke-width="3.14286" stroke-linecap="round" stroke-linejoin="round"/>
<path d="M463.442 174.5C463.442 173.041 464.021 171.642 465.053 170.611C466.084 169.579 467.483 169 468.942 169H474.442V180H468.942C467.483 180 466.084 179.421 465.053 178.389C464.021 177.358 463.442 175.959 463.442 174.5Z" stroke="#151515" stroke-width="3.14286" stroke-linecap="round" stroke-linejoin="round"/>
<g filter="url(#filter10_dii_120_561)">
<path d="M297.664 102.258L323.543 55.2049C324.102 54.1885 324.098 52.9559 323.532 51.9435L297.669 5.70322C297.074 4.64066 295.952 3.98243 294.734 3.98243L239.844 3.98243C238.626 3.98243 237.504 4.64066 236.91 5.70322L211.046 51.9435C210.48 52.9559 210.476 54.1885 211.035 55.2049L236.914 102.258C237.505 103.333 238.634 104 239.86 104L294.718 104C295.944 104 297.073 103.333 297.664 102.258Z" fill="url(#paint10_linear_120_561)"/>
</g>
<path d="M244.622 90.58V94H242.552V83.8H246.512C248.912 83.8 250.112 84.92 250.112 87.16C250.112 88.49 249.612 89.47 248.612 90.1L250.067 94H247.802L246.617 90.58H244.622ZM246.542 88.81C247.032 88.81 247.397 88.66 247.637 88.36C247.877 88.06 247.997 87.665 247.997 87.175C247.997 86.685 247.867 86.295 247.607 86.005C247.357 85.715 246.992 85.57 246.512 85.57H244.622V88.81H246.542ZM253.207 91.105C253.217 91.565 253.337 91.9 253.567 92.11C253.807 92.31 254.147 92.41 254.587 92.41C255.517 92.41 256.347 92.38 257.077 92.32L257.497 92.275L257.527 93.76C256.377 94.04 255.337 94.18 254.407 94.18C253.277 94.18 252.457 93.88 251.947 93.28C251.437 92.68 251.182 91.705 251.182 90.355C251.182 87.665 252.287 86.32 254.497 86.32C256.677 86.32 257.767 87.45 257.767 89.71L257.617 91.105H253.207ZM255.787 89.575C255.787 88.975 255.692 88.56 255.502 88.33C255.312 88.09 254.977 87.97 254.497 87.97C254.027 87.97 253.692 88.095 253.492 88.345C253.302 88.585 253.202 88.995 253.192 89.575H255.787ZM264.948 88.84V91.96C264.968 92.2 265.008 92.37 265.068 92.47C265.128 92.56 265.253 92.625 265.443 92.665L265.383 94.18C264.873 94.18 264.463 94.145 264.153 94.075C263.853 94.005 263.548 93.865 263.238 93.655C262.518 94.005 261.783 94.18 261.033 94.18C259.483 94.18 258.708 93.36 258.708 91.72C258.708 90.92 258.923 90.355 259.353 90.025C259.783 89.685 260.443 89.485 261.333 89.425L262.938 89.305V88.84C262.938 88.53 262.868 88.32 262.728 88.21C262.588 88.09 262.363 88.03 262.053 88.03L259.233 88.15L259.173 86.755C260.243 86.465 261.258 86.32 262.218 86.32C263.188 86.32 263.883 86.52 264.303 86.92C264.733 87.32 264.948 87.96 264.948 88.84ZM261.573 90.82C261.013 90.87 260.733 91.17 260.733 91.72C260.733 92.27 260.978 92.545 261.468 92.545C261.848 92.545 262.263 92.485 262.713 92.365L262.938 92.305V90.7L261.573 90.82ZM269.669 86.32C270.189 86.32 270.854 86.4 271.664 86.56L272.069 86.65L272.009 88.24C271.219 88.16 270.634 88.12 270.254 88.12C269.564 88.12 269.104 88.27 268.874 88.57C268.654 88.86 268.544 89.415 268.544 90.235C268.544 91.055 268.654 91.62 268.874 91.93C269.104 92.23 269.569 92.38 270.269 92.38L272.009 92.26L272.069 93.865C270.999 94.075 270.184 94.18 269.624 94.18C268.514 94.18 267.714 93.87 267.224 93.25C266.744 92.62 266.504 91.615 266.504 90.235C266.504 88.855 266.754 87.86 267.254 87.25C267.754 86.63 268.559 86.32 269.669 86.32ZM277.714 88.21H275.869V91.285C275.869 91.585 275.874 91.8 275.884 91.93C275.904 92.05 275.959 92.155 276.049 92.245C276.149 92.335 276.299 92.38 276.499 92.38L277.639 92.35L277.729 93.955C277.059 94.105 276.549 94.18 276.199 94.18C275.299 94.18 274.684 93.98 274.354 93.58C274.024 93.17 273.859 92.42 273.859 91.33V88.21H272.974V86.5H273.859V84.415H275.869V86.5H277.714V88.21ZM281.673 95.05V93.25C282.073 93.25 282.363 93.175 282.543 93.025C282.723 92.875 282.813 92.595 282.813 92.185V83.8H284.868L284.883 92.275C284.883 93.365 284.638 94.1 284.148 94.48C283.668 94.86 282.843 95.05 281.673 95.05ZM292.23 88.375C290.99 88.215 290.12 88.135 289.62 88.135C289.13 88.135 288.81 88.18 288.66 88.27C288.52 88.36 288.45 88.505 288.45 88.705C288.45 88.895 288.545 89.03 288.735 89.11C288.935 89.18 289.435 89.29 290.235 89.44C291.045 89.58 291.62 89.815 291.96 90.145C292.3 90.475 292.47 91.01 292.47 91.75C292.47 93.37 291.465 94.18 289.455 94.18C288.795 94.18 287.995 94.09 287.055 93.91L286.575 93.82L286.635 92.14C287.875 92.3 288.735 92.38 289.215 92.38C289.705 92.38 290.035 92.335 290.205 92.245C290.385 92.145 290.475 92 290.475 91.81C290.475 91.62 290.38 91.48 290.19 91.39C290.01 91.3 289.53 91.19 288.75 91.06C287.98 90.93 287.405 90.71 287.025 90.4C286.645 90.09 286.455 89.54 286.455 88.75C286.455 87.95 286.725 87.35 287.265 86.95C287.805 86.54 288.5 86.335 289.35 86.335C289.94 86.335 290.745 86.43 291.765 86.62L292.26 86.71L292.23 88.375Z" fill="white"/>
<path d="M244.622 90.58V94H242.552V83.8H246.512C248.912 83.8 250.112 84.92 250.112 87.16C250.112 88.49 249.612 89.47 248.612 90.1L250.067 94H247.802L246.617 90.58H244.622ZM246.542 88.81C247.032 88.81 247.397 88.66 247.637 88.36C247.877 88.06 247.997 87.665 247.997 87.175C247.997 86.685 247.867 86.295 247.607 86.005C247.357 85.715 246.992 85.57 246.512 85.57H244.622V88.81H246.542ZM253.207 91.105C253.217 91.565 253.337 91.9 253.567 92.11C253.807 92.31 254.147 92.41 254.587 92.41C255.517 92.41 256.347 92.38 257.077 92.32L257.497 92.275L257.527 93.76C256.377 94.04 255.337 94.18 254.407 94.18C253.277 94.18 252.457 93.88 251.947 93.28C251.437 92.68 251.182 91.705 251.182 90.355C251.182 87.665 252.287 86.32 254.497 86.32C256.677 86.32 257.767 87.45 257.767 89.71L257.617 91.105H253.207ZM255.787 89.575C255.787 88.975 255.692 88.56 255.502 88.33C255.312 88.09 254.977 87.97 254.497 87.97C254.027 87.97 253.692 88.095 253.492 88.345C253.302 88.585 253.202 88.995 253.192 89.575H255.787ZM264.948 88.84V91.96C264.968 92.2 265.008 92.37 265.068 92.47C265.128 92.56 265.253 92.625 265.443 92.665L265.383 94.18C264.873 94.18 264.463 94.145 264.153 94.075C263.853 94.005 263.548 93.865 263.238 93.655C262.518 94.005 261.783 94.18 261.033 94.18C259.483 94.18 258.708 93.36 258.708 91.72C258.708 90.92 258.923 90.355 259.353 90.025C259.783 89.685 260.443 89.485 261.333 89.425L262.938 89.305V88.84C262.938 88.53 262.868 88.32 262.728 88.21C262.588 88.09 262.363 88.03 262.053 88.03L259.233 88.15L259.173 86.755C260.243 86.465 261.258 86.32 262.218 86.32C263.188 86.32 263.883 86.52 264.303 86.92C264.733 87.32 264.948 87.96 264.948 88.84ZM261.573 90.82C261.013 90.87 260.733 91.17 260.733 91.72C260.733 92.27 260.978 92.545 261.468 92.545C261.848 92.545 262.263 92.485 262.713 92.365L262.938 92.305V90.7L261.573 90.82ZM269.669 86.32C270.189 86.32 270.854 86.4 271.664 86.56L272.069 86.65L272.009 88.24C271.219 88.16 270.634 88.12 270.254 88.12C269.564 88.12 269.104 88.27 268.874 88.57C268.654 88.86 268.544 89.415 268.544 90.235C268.544 91.055 268.654 91.62 268.874 91.93C269.104 92.23 269.569 92.38 270.269 92.38L272.009 92.26L272.069 93.865C270.999 94.075 270.184 94.18 269.624 94.18C268.514 94.18 267.714 93.87 267.224 93.25C266.744 92.62 266.504 91.615 266.504 90.235C266.504 88.855 266.754 87.86 267.254 87.25C267.754 86.63 268.559 86.32 269.669 86.32ZM277.714 88.21H275.869V91.285C275.869 91.585 275.874 91.8 275.884 91.93C275.904 92.05 275.959 92.155 276.049 92.245C276.149 92.335 276.299 92.38 276.499 92.38L277.639 92.35L277.729 93.955C277.059 94.105 276.549 94.18 276.199 94.18C275.299 94.18 274.684 93.98 274.354 93.58C274.024 93.17 273.859 92.42 273.859 91.33V88.21H272.974V86.5H273.859V84.415H275.869V86.5H277.714V88.21ZM281.673 95.05V93.25C282.073 93.25 282.363 93.175 282.543 93.025C282.723 92.875 282.813 92.595 282.813 92.185V83.8H284.868L284.883 92.275C284.883 93.365 284.638 94.1 284.148 94.48C283.668 94.86 282.843 95.05 281.673 95.05ZM292.23 88.375C290.99 88.215 290.12 88.135 289.62 88.135C289.13 88.135 288.81 88.18 288.66 88.27C288.52 88.36 288.45 88.505 288.45 88.705C288.45 88.895 288.545 89.03 288.735 89.11C288.935 89.18 289.435 89.29 290.235 89.44C291.045 89.58 291.62 89.815 291.96 90.145C292.3 90.475 292.47 91.01 292.47 91.75C292.47 93.37 291.465 94.18 289.455 94.18C288.795 94.18 287.995 94.09 287.055 93.91L286.575 93.82L286.635 92.14C287.875 92.3 288.735 92.38 289.215 92.38C289.705 92.38 290.035 92.335 290.205 92.245C290.385 92.145 290.475 92 290.475 91.81C290.475 91.62 290.38 91.48 290.19 91.39C290.01 91.3 289.53 91.19 288.75 91.06C287.98 90.93 287.405 90.71 287.025 90.4C286.645 90.09 286.455 89.54 286.455 88.75C286.455 87.95 286.725 87.35 287.265 86.95C287.805 86.54 288.5 86.335 289.35 86.335C289.94 86.335 290.745 86.43 291.765 86.62L292.26 86.71L292.23 88.375Z" fill="#00FFC2"/>
<path d="M244.442 30C244.442 28.8954 245.337 28 246.442 28H288.442C289.547 28 290.442 28.8954 290.442 30V72C290.442 73.1046 289.547 74 288.442 74H246.442C245.337 74 244.442 73.1046 244.442 72V30Z" fill="#00FFC2"/>
<path d="M256.626 45.25C251.572 46.5533 248.275 48.7863 248.275 51.3354C248.275 55.3738 256.718 58.6667 267.155 58.6667C268.573 58.6667 269.57 58.5919 270.892 58.4808" stroke="#151515" stroke-width="2" stroke-linecap="round" stroke-linejoin="round"/>
<path d="M263.296 58.4749C262.505 57.3326 261.751 56.3034 261.035 55.0249C255.762 45.6333 254.349 36.2991 257.91 34.185C260.115 32.8491 263.75 34.6699 267.444 38.5052" stroke="#151515" stroke-width="2" stroke-linecap="round" stroke-linejoin="round"/>
<path d="M256.764 57.4918C255.419 62.6437 255.691 66.5307 257.838 67.8322C261.255 69.9022 268.163 64.0793 273.253 54.7912C273.943 53.507 274.562 52.2439 275.109 51" stroke="#151515" stroke-width="2" stroke-linecap="round" stroke-linejoin="round"/>
<path d="M267.442 63.4966C271.137 67.3299 274.758 69.1507 276.983 67.8148C280.529 65.7027 279.132 56.3685 273.853 46.9749C273.117 45.6773 272.364 44.6672 271.592 43.5249" stroke="#151515" stroke-width="2" stroke-linecap="round" stroke-linejoin="round"/>
<path d="M278.29 56.7499C283.297 55.4332 286.609 53.2041 286.609 50.6626C286.609 46.6184 278.16 43.3333 267.739 43.3333C266.307 43.3333 265.313 43.3888 263.992 43.5" stroke="#151515" stroke-width="2" stroke-linecap="round" stroke-linejoin="round"/>
<path d="M259.775 51C260.322 49.735 260.939 48.493 261.631 47.2089C266.704 37.9245 273.616 32.0864 277.052 34.1736C279.18 35.475 279.471 39.3601 278.126 44.5102" stroke="#151515" stroke-width="2" stroke-linecap="round" stroke-linejoin="round"/>
<path d="M267.94 51.0286H267.921C267.902 51.2778 267.691 51.4886 267.423 51.4886C267.294 51.4823 267.173 51.4272 267.084 51.3345C266.995 51.2419 266.945 51.1188 266.944 50.9903C266.944 50.722 267.154 50.5111 267.404 50.5111H267.384C267.634 50.492 267.864 50.722 267.864 50.9711" stroke="#151515" stroke-width="2" stroke-linecap="round" stroke-linejoin="round"/>
<defs>
<filter id="filter0_dii_120_561" x="0.618652" y="3.98242" width="121.341" height="111.018" filterUnits="userSpaceOnUse" color-interpolation-filters="sRGB">
<feFlood flood-opacity="0" result="BackgroundImageFix"/>
<feColorMatrix in="SourceAlpha" type="matrix" values="0 0 0 0 0 0 0 0 0 0 0 0 0 0 0 0 0 0 127 0" result="hardAlpha"/>
<feOffset dy="7"/>
<feGaussianBlur stdDeviation="2"/>
<feComposite in2="hardAlpha" operator="out"/>
<feColorMatrix type="matrix" values="0 0 0 0 0 0 0 0 0 0 0 0 0 0 0 0 0 0 0.15 0"/>
<feBlend mode="normal" in2="BackgroundImageFix" result="effect1_dropShadow_120_561"/>
<feBlend mode="normal" in="SourceGraphic" in2="effect1_dropShadow_120_561" result="shape"/>
<feColorMatrix in="SourceAlpha" type="matrix" values="0 0 0 0 0 0 0 0 0 0 0 0 0 0 0 0 0 0 127 0" result="hardAlpha"/>
<feOffset dy="2"/>
<feGaussianBlur stdDeviation="2"/>
<feComposite in2="hardAlpha" operator="arithmetic" k2="-1" k3="1"/>
<feColorMatrix type="matrix" values="0 0 0 0 1 0 0 0 0 1 0 0 0 0 1 0 0 0 0.08 0"/>
<feBlend mode="normal" in2="shape" result="effect2_innerShadow_120_561"/>
<feColorMatrix in="SourceAlpha" type="matrix" values="0 0 0 0 0 0 0 0 0 0 0 0 0 0 0 0 0 0 127 0" result="hardAlpha"/>
<feOffset dy="1"/>
<feGaussianBlur stdDeviation="1"/>
<feComposite in2="hardAlpha" operator="arithmetic" k2="-1" k3="1"/>
<feColorMatrix type="matrix" values="0 0 0 0 1 0 0 0 0 1 0 0 0 0 1 0 0 0 0.02 0"/>
<feBlend mode="normal" in2="effect2_innerShadow_120_561" result="effect3_innerShadow_120_561"/>
</filter>
<filter id="filter1_dii_120_561" x="413.619" y="3.98242" width="121.341" height="111.018" filterUnits="userSpaceOnUse" color-interpolation-filters="sRGB">
<feFlood flood-opacity="0" result="BackgroundImageFix"/>
<feColorMatrix in="SourceAlpha" type="matrix" values="0 0 0 0 0 0 0 0 0 0 0 0 0 0 0 0 0 0 127 0" result="hardAlpha"/>
<feOffset dy="7"/>
<feGaussianBlur stdDeviation="2"/>
<feComposite in2="hardAlpha" operator="out"/>
<feColorMatrix type="matrix" values="0 0 0 0 0 0 0 0 0 0 0 0 0 0 0 0 0 0 0.15 0"/>
<feBlend mode="normal" in2="BackgroundImageFix" result="effect1_dropShadow_120_561"/>
<feBlend mode="normal" in="SourceGraphic" in2="effect1_dropShadow_120_561" result="shape"/>
<feColorMatrix in="SourceAlpha" type="matrix" values="0 0 0 0 0 0 0 0 0 0 0 0 0 0 0 0 0 0 127 0" result="hardAlpha"/>
<feOffset dy="2"/>
<feGaussianBlur stdDeviation="2"/>
<feComposite in2="hardAlpha" operator="arithmetic" k2="-1" k3="1"/>
<feColorMatrix type="matrix" values="0 0 0 0 1 0 0 0 0 1 0 0 0 0 1 0 0 0 0.08 0"/>
<feBlend mode="normal" in2="shape" result="effect2_innerShadow_120_561"/>
<feColorMatrix in="SourceAlpha" type="matrix" values="0 0 0 0 0 0 0 0 0 0 0 0 0 0 0 0 0 0 127 0" result="hardAlpha"/>
<feOffset dy="1"/>
<feGaussianBlur stdDeviation="1"/>
<feComposite in2="hardAlpha" operator="arithmetic" k2="-1" k3="1"/>
<feColorMatrix type="matrix" values="0 0 0 0 1 0 0 0 0 1 0 0 0 0 1 0 0 0 0.02 0"/>
<feBlend mode="normal" in2="effect2_innerShadow_120_561" result="effect3_innerShadow_120_561"/>
</filter>
<filter id="filter2_dii_120_561" x="517.619" y="63.9824" width="121.341" height="111.018" filterUnits="userSpaceOnUse" color-interpolation-filters="sRGB">
<feFlood flood-opacity="0" result="BackgroundImageFix"/>
<feColorMatrix in="SourceAlpha" type="matrix" values="0 0 0 0 0 0 0 0 0 0 0 0 0 0 0 0 0 0 127 0" result="hardAlpha"/>
<feOffset dy="7"/>
<feGaussianBlur stdDeviation="2"/>
<feComposite in2="hardAlpha" operator="out"/>
<feColorMatrix type="matrix" values="0 0 0 0 0 0 0 0 0 0 0 0 0 0 0 0 0 0 0.15 0"/>
<feBlend mode="normal" in2="BackgroundImageFix" result="effect1_dropShadow_120_561"/>
<feBlend mode="normal" in="SourceGraphic" in2="effect1_dropShadow_120_561" result="shape"/>
<feColorMatrix in="SourceAlpha" type="matrix" values="0 0 0 0 0 0 0 0 0 0 0 0 0 0 0 0 0 0 127 0" result="hardAlpha"/>
<feOffset dy="2"/>
<feGaussianBlur stdDeviation="2"/>
<feComposite in2="hardAlpha" operator="arithmetic" k2="-1" k3="1"/>
<feColorMatrix type="matrix" values="0 0 0 0 1 0 0 0 0 1 0 0 0 0 1 0 0 0 0.08 0"/>
<feBlend mode="normal" in2="shape" result="effect2_innerShadow_120_561"/>
<feColorMatrix in="SourceAlpha" type="matrix" values="0 0 0 0 0 0 0 0 0 0 0 0 0 0 0 0 0 0 127 0" result="hardAlpha"/>
<feOffset dy="1"/>
<feGaussianBlur stdDeviation="1"/>
<feComposite in2="hardAlpha" operator="arithmetic" k2="-1" k3="1"/>
<feColorMatrix type="matrix" values="0 0 0 0 1 0 0 0 0 1 0 0 0 0 1 0 0 0 0.02 0"/>
<feBlend mode="normal" in2="effect2_innerShadow_120_561" result="effect3_innerShadow_120_561"/>
</filter>
<filter id="filter3_dii_120_561" x="620.619" y="123.982" width="121.341" height="111.018" filterUnits="userSpaceOnUse" color-interpolation-filters="sRGB">
<feFlood flood-opacity="0" result="BackgroundImageFix"/>
<feColorMatrix in="SourceAlpha" type="matrix" values="0 0 0 0 0 0 0 0 0 0 0 0 0 0 0 0 0 0 127 0" result="hardAlpha"/>
<feOffset dy="7"/>
<feGaussianBlur stdDeviation="2"/>
<feComposite in2="hardAlpha" operator="out"/>
<feColorMatrix type="matrix" values="0 0 0 0 0 0 0 0 0 0 0 0 0 0 0 0 0 0 0.15 0"/>
<feBlend mode="normal" in2="BackgroundImageFix" result="effect1_dropShadow_120_561"/>
<feBlend mode="normal" in="SourceGraphic" in2="effect1_dropShadow_120_561" result="shape"/>
<feColorMatrix in="SourceAlpha" type="matrix" values="0 0 0 0 0 0 0 0 0 0 0 0 0 0 0 0 0 0 127 0" result="hardAlpha"/>
<feOffset dy="2"/>
<feGaussianBlur stdDeviation="2"/>
<feComposite in2="hardAlpha" operator="arithmetic" k2="-1" k3="1"/>
<feColorMatrix type="matrix" values="0 0 0 0 1 0 0 0 0 1 0 0 0 0 1 0 0 0 0.08 0"/>
<feBlend mode="normal" in2="shape" result="effect2_innerShadow_120_561"/>
<feColorMatrix in="SourceAlpha" type="matrix" values="0 0 0 0 0 0 0 0 0 0 0 0 0 0 0 0 0 0 127 0" result="hardAlpha"/>
<feOffset dy="1"/>
<feGaussianBlur stdDeviation="1"/>
<feComposite in2="hardAlpha" operator="arithmetic" k2="-1" k3="1"/>
<feColorMatrix type="matrix" values="0 0 0 0 1 0 0 0 0 1 0 0 0 0 1 0 0 0 0.02 0"/>
<feBlend mode="normal" in2="effect2_innerShadow_120_561" result="effect3_innerShadow_120_561"/>
</filter>
<filter id="filter4_dii_120_561" x="620.619" y="3.98242" width="121.341" height="111.018" filterUnits="userSpaceOnUse" color-interpolation-filters="sRGB">
<feFlood flood-opacity="0" result="BackgroundImageFix"/>
<feColorMatrix in="SourceAlpha" type="matrix" values="0 0 0 0 0 0 0 0 0 0 0 0 0 0 0 0 0 0 127 0" result="hardAlpha"/>
<feOffset dy="7"/>
<feGaussianBlur stdDeviation="2"/>
<feComposite in2="hardAlpha" operator="out"/>
<feColorMatrix type="matrix" values="0 0 0 0 0 0 0 0 0 0 0 0 0 0 0 0 0 0 0.15 0"/>
<feBlend mode="normal" in2="BackgroundImageFix" result="effect1_dropShadow_120_561"/>
<feBlend mode="normal" in="SourceGraphic" in2="effect1_dropShadow_120_561" result="shape"/>
<feColorMatrix in="SourceAlpha" type="matrix" values="0 0 0 0 0 0 0 0 0 0 0 0 0 0 0 0 0 0 127 0" result="hardAlpha"/>
<feOffset dy="2"/>
<feGaussianBlur stdDeviation="2"/>
<feComposite in2="hardAlpha" operator="arithmetic" k2="-1" k3="1"/>
<feColorMatrix type="matrix" values="0 0 0 0 1 0 0 0 0 1 0 0 0 0 1 0 0 0 0.08 0"/>
<feBlend mode="normal" in2="shape" result="effect2_innerShadow_120_561"/>
<feColorMatrix in="SourceAlpha" type="matrix" values="0 0 0 0 0 0 0 0 0 0 0 0 0 0 0 0 0 0 127 0" result="hardAlpha"/>
<feOffset dy="1"/>
<feGaussianBlur stdDeviation="1"/>
<feComposite in2="hardAlpha" operator="arithmetic" k2="-1" k3="1"/>
<feColorMatrix type="matrix" values="0 0 0 0 1 0 0 0 0 1 0 0 0 0 1 0 0 0 0.02 0"/>
<feBlend mode="normal" in2="effect2_innerShadow_120_561" result="effect3_innerShadow_120_561"/>
</filter>
<filter id="filter5_dii_120_561" x="0.618652" y="122.982" width="121.341" height="111.018" filterUnits="userSpaceOnUse" color-interpolation-filters="sRGB">
<feFlood flood-opacity="0" result="BackgroundImageFix"/>
<feColorMatrix in="SourceAlpha" type="matrix" values="0 0 0 0 0 0 0 0 0 0 0 0 0 0 0 0 0 0 127 0" result="hardAlpha"/>
<feOffset dy="7"/>
<feGaussianBlur stdDeviation="2"/>
<feComposite in2="hardAlpha" operator="out"/>
<feColorMatrix type="matrix" values="0 0 0 0 0 0 0 0 0 0 0 0 0 0 0 0 0 0 0.15 0"/>
<feBlend mode="normal" in2="BackgroundImageFix" result="effect1_dropShadow_120_561"/>
<feBlend mode="normal" in="SourceGraphic" in2="effect1_dropShadow_120_561" result="shape"/>
<feColorMatrix in="SourceAlpha" type="matrix" values="0 0 0 0 0 0 0 0 0 0 0 0 0 0 0 0 0 0 127 0" result="hardAlpha"/>
<feOffset dy="2"/>
<feGaussianBlur stdDeviation="2"/>
<feComposite in2="hardAlpha" operator="arithmetic" k2="-1" k3="1"/>
<feColorMatrix type="matrix" values="0 0 0 0 1 0 0 0 0 1 0 0 0 0 1 0 0 0 0.08 0"/>
<feBlend mode="normal" in2="shape" result="effect2_innerShadow_120_561"/>
<feColorMatrix in="SourceAlpha" type="matrix" values="0 0 0 0 0 0 0 0 0 0 0 0 0 0 0 0 0 0 127 0" result="hardAlpha"/>
<feOffset dy="1"/>
<feGaussianBlur stdDeviation="1"/>
<feComposite in2="hardAlpha" operator="arithmetic" k2="-1" k3="1"/>
<feColorMatrix type="matrix" values="0 0 0 0 1 0 0 0 0 1 0 0 0 0 1 0 0 0 0.02 0"/>
<feBlend mode="normal" in2="effect2_innerShadow_120_561" result="effect3_innerShadow_120_561"/>
</filter>
<filter id="filter6_dii_120_561" x="105.619" y="62.9824" width="121.341" height="111.018" filterUnits="userSpaceOnUse" color-interpolation-filters="sRGB">
<feFlood flood-opacity="0" result="BackgroundImageFix"/>
<feColorMatrix in="SourceAlpha" type="matrix" values="0 0 0 0 0 0 0 0 0 0 0 0 0 0 0 0 0 0 127 0" result="hardAlpha"/>
<feOffset dy="7"/>
<feGaussianBlur stdDeviation="2"/>
<feComposite in2="hardAlpha" operator="out"/>
<feColorMatrix type="matrix" values="0 0 0 0 0 0 0 0 0 0 0 0 0 0 0 0 0 0 0.15 0"/>
<feBlend mode="normal" in2="BackgroundImageFix" result="effect1_dropShadow_120_561"/>
<feBlend mode="normal" in="SourceGraphic" in2="effect1_dropShadow_120_561" result="shape"/>
<feColorMatrix in="SourceAlpha" type="matrix" values="0 0 0 0 0 0 0 0 0 0 0 0 0 0 0 0 0 0 127 0" result="hardAlpha"/>
<feOffset dy="2"/>
<feGaussianBlur stdDeviation="2"/>
<feComposite in2="hardAlpha" operator="arithmetic" k2="-1" k3="1"/>
<feColorMatrix type="matrix" values="0 0 0 0 1 0 0 0 0 1 0 0 0 0 1 0 0 0 0.08 0"/>
<feBlend mode="normal" in2="shape" result="effect2_innerShadow_120_561"/>
<feColorMatrix in="SourceAlpha" type="matrix" values="0 0 0 0 0 0 0 0 0 0 0 0 0 0 0 0 0 0 127 0" result="hardAlpha"/>
<feOffset dy="1"/>
<feGaussianBlur stdDeviation="1"/>
<feComposite in2="hardAlpha" operator="arithmetic" k2="-1" k3="1"/>
<feColorMatrix type="matrix" values="0 0 0 0 1 0 0 0 0 1 0 0 0 0 1 0 0 0 0.02 0"/>
<feBlend mode="normal" in2="effect2_innerShadow_120_561" result="effect3_innerShadow_120_561"/>
</filter>
<filter id="filter7_dii_120_561" x="206.619" y="123.982" width="121.341" height="111.018" filterUnits="userSpaceOnUse" color-interpolation-filters="sRGB">
<feFlood flood-opacity="0" result="BackgroundImageFix"/>
<feColorMatrix in="SourceAlpha" type="matrix" values="0 0 0 0 0 0 0 0 0 0 0 0 0 0 0 0 0 0 127 0" result="hardAlpha"/>
<feOffset dy="7"/>
<feGaussianBlur stdDeviation="2"/>
<feComposite in2="hardAlpha" operator="out"/>
<feColorMatrix type="matrix" values="0 0 0 0 0 0 0 0 0 0 0 0 0 0 0 0 0 0 0.15 0"/>
<feBlend mode="normal" in2="BackgroundImageFix" result="effect1_dropShadow_120_561"/>
<feBlend mode="normal" in="SourceGraphic" in2="effect1_dropShadow_120_561" result="shape"/>
<feColorMatrix in="SourceAlpha" type="matrix" values="0 0 0 0 0 0 0 0 0 0 0 0 0 0 0 0 0 0 127 0" result="hardAlpha"/>
<feOffset dy="2"/>
<feGaussianBlur stdDeviation="2"/>
<feComposite in2="hardAlpha" operator="arithmetic" k2="-1" k3="1"/>
<feColorMatrix type="matrix" values="0 0 0 0 1 0 0 0 0 1 0 0 0 0 1 0 0 0 0.08 0"/>
<feBlend mode="normal" in2="shape" result="effect2_innerShadow_120_561"/>
<feColorMatrix in="SourceAlpha" type="matrix" values="0 0 0 0 0 0 0 0 0 0 0 0 0 0 0 0 0 0 127 0" result="hardAlpha"/>
<feOffset dy="1"/>
<feGaussianBlur stdDeviation="1"/>
<feComposite in2="hardAlpha" operator="arithmetic" k2="-1" k3="1"/>
<feColorMatrix type="matrix" values="0 0 0 0 1 0 0 0 0 1 0 0 0 0 1 0 0 0 0.02 0"/>
<feBlend mode="normal" in2="effect2_innerShadow_120_561" result="effect3_innerShadow_120_561"/>
</filter>
<filter id="filter8_dii_120_561" x="310.619" y="63.9824" width="121.341" height="111.018" filterUnits="userSpaceOnUse" color-interpolation-filters="sRGB">
<feFlood flood-opacity="0" result="BackgroundImageFix"/>
<feColorMatrix in="SourceAlpha" type="matrix" values="0 0 0 0 0 0 0 0 0 0 0 0 0 0 0 0 0 0 127 0" result="hardAlpha"/>
<feOffset dy="7"/>
<feGaussianBlur stdDeviation="2"/>
<feComposite in2="hardAlpha" operator="out"/>
<feColorMatrix type="matrix" values="0 0 0 0 0 0 0 0 0 0 0 0 0 0 0 0 0 0 0.15 0"/>
<feBlend mode="normal" in2="BackgroundImageFix" result="effect1_dropShadow_120_561"/>
<feBlend mode="normal" in="SourceGraphic" in2="effect1_dropShadow_120_561" result="shape"/>
<feColorMatrix in="SourceAlpha" type="matrix" values="0 0 0 0 0 0 0 0 0 0 0 0 0 0 0 0 0 0 127 0" result="hardAlpha"/>
<feOffset dy="2"/>
<feGaussianBlur stdDeviation="2"/>
<feComposite in2="hardAlpha" operator="arithmetic" k2="-1" k3="1"/>
<feColorMatrix type="matrix" values="0 0 0 0 1 0 0 0 0 1 0 0 0 0 1 0 0 0 0.08 0"/>
<feBlend mode="normal" in2="shape" result="effect2_innerShadow_120_561"/>
<feColorMatrix in="SourceAlpha" type="matrix" values="0 0 0 0 0 0 0 0 0 0 0 0 0 0 0 0 0 0 127 0" result="hardAlpha"/>
<feOffset dy="1"/>
<feGaussianBlur stdDeviation="1"/>
<feComposite in2="hardAlpha" operator="arithmetic" k2="-1" k3="1"/>
<feColorMatrix type="matrix" values="0 0 0 0 1 0 0 0 0 1 0 0 0 0 1 0 0 0 0.02 0"/>
<feBlend mode="normal" in2="effect2_innerShadow_120_561" result="effect3_innerShadow_120_561"/>
</filter>
<filter id="filter9_dii_120_561" x="413.619" y="123.982" width="121.341" height="111.018" filterUnits="userSpaceOnUse" color-interpolation-filters="sRGB">
<feFlood flood-opacity="0" result="BackgroundImageFix"/>
<feColorMatrix in="SourceAlpha" type="matrix" values="0 0 0 0 0 0 0 0 0 0 0 0 0 0 0 0 0 0 127 0" result="hardAlpha"/>
<feOffset dy="7"/>
<feGaussianBlur stdDeviation="2"/>
<feComposite in2="hardAlpha" operator="out"/>
<feColorMatrix type="matrix" values="0 0 0 0 0 0 0 0 0 0 0 0 0 0 0 0 0 0 0.15 0"/>
<feBlend mode="normal" in2="BackgroundImageFix" result="effect1_dropShadow_120_561"/>
<feBlend mode="normal" in="SourceGraphic" in2="effect1_dropShadow_120_561" result="shape"/>
<feColorMatrix in="SourceAlpha" type="matrix" values="0 0 0 0 0 0 0 0 0 0 0 0 0 0 0 0 0 0 127 0" result="hardAlpha"/>
<feOffset dy="2"/>
<feGaussianBlur stdDeviation="2"/>
<feComposite in2="hardAlpha" operator="arithmetic" k2="-1" k3="1"/>
<feColorMatrix type="matrix" values="0 0 0 0 1 0 0 0 0 1 0 0 0 0 1 0 0 0 0.08 0"/>
<feBlend mode="normal" in2="shape" result="effect2_innerShadow_120_561"/>
<feColorMatrix in="SourceAlpha" type="matrix" values="0 0 0 0 0 0 0 0 0 0 0 0 0 0 0 0 0 0 127 0" result="hardAlpha"/>
<feOffset dy="1"/>
<feGaussianBlur stdDeviation="1"/>
<feComposite in2="hardAlpha" operator="arithmetic" k2="-1" k3="1"/>
<feColorMatrix type="matrix" values="0 0 0 0 1 0 0 0 0 1 0 0 0 0 1 0 0 0 0.02 0"/>
<feBlend mode="normal" in2="effect2_innerShadow_120_561" result="effect3_innerShadow_120_561"/>
</filter>
<filter id="filter10_dii_120_561" x="206.619" y="3.98242" width="121.341" height="111.018" filterUnits="userSpaceOnUse" color-interpolation-filters="sRGB">
<feFlood flood-opacity="0" result="BackgroundImageFix"/>
<feColorMatrix in="SourceAlpha" type="matrix" values="0 0 0 0 0 0 0 0 0 0 0 0 0 0 0 0 0 0 127 0" result="hardAlpha"/>
<feOffset dy="7"/>
<feGaussianBlur stdDeviation="2"/>
<feComposite in2="hardAlpha" operator="out"/>
<feColorMatrix type="matrix" values="0 0 0 0 0 0 0 0 0 0 0 0 0 0 0 0 0 0 0.15 0"/>
<feBlend mode="normal" in2="BackgroundImageFix" result="effect1_dropShadow_120_561"/>
<feBlend mode="normal" in="SourceGraphic" in2="effect1_dropShadow_120_561" result="shape"/>
<feColorMatrix in="SourceAlpha" type="matrix" values="0 0 0 0 0 0 0 0 0 0 0 0 0 0 0 0 0 0 127 0" result="hardAlpha"/>
<feOffset dy="2"/>
<feGaussianBlur stdDeviation="2"/>
<feComposite in2="hardAlpha" operator="arithmetic" k2="-1" k3="1"/>
<feColorMatrix type="matrix" values="0 0 0 0 1 0 0 0 0 1 0 0 0 0 1 0 0 0 0.08 0"/>
<feBlend mode="normal" in2="shape" result="effect2_innerShadow_120_561"/>
<feColorMatrix in="SourceAlpha" type="matrix" values="0 0 0 0 0 0 0 0 0 0 0 0 0 0 0 0 0 0 127 0" result="hardAlpha"/>
<feOffset dy="1"/>
<feGaussianBlur stdDeviation="1"/>
<feComposite in2="hardAlpha" operator="arithmetic" k2="-1" k3="1"/>
<feColorMatrix type="matrix" values="0 0 0 0 1 0 0 0 0 1 0 0 0 0 1 0 0 0 0.02 0"/>
<feBlend mode="normal" in2="effect2_innerShadow_120_561" result="effect3_innerShadow_120_561"/>
</filter>
<linearGradient id="paint0_linear_120_561" x1="61.2891" y1="104" x2="61.2891" y2="3.98243" gradientUnits="userSpaceOnUse">
<stop stop-color="#1A1A1A"/>
<stop offset="1" stop-color="#141414"/>
</linearGradient>
<linearGradient id="paint1_linear_120_561" x1="474.289" y1="104" x2="474.289" y2="3.98243" gradientUnits="userSpaceOnUse">
<stop stop-color="#1A1A1A"/>
<stop offset="1" stop-color="#141414"/>
</linearGradient>
<linearGradient id="paint2_linear_120_561" x1="578.289" y1="164" x2="578.289" y2="63.9824" gradientUnits="userSpaceOnUse">
<stop stop-color="#1A1A1A"/>
<stop offset="1" stop-color="#141414"/>
</linearGradient>
<linearGradient id="paint3_linear_120_561" x1="681.289" y1="224" x2="681.289" y2="123.982" gradientUnits="userSpaceOnUse">
<stop stop-color="#1A1A1A"/>
<stop offset="1" stop-color="#141414"/>
</linearGradient>
<linearGradient id="paint4_linear_120_561" x1="681.289" y1="104" x2="681.289" y2="3.98243" gradientUnits="userSpaceOnUse">
<stop stop-color="#1A1A1A"/>
<stop offset="1" stop-color="#141414"/>
</linearGradient>
<linearGradient id="paint5_linear_120_561" x1="61.2891" y1="223" x2="61.2891" y2="122.982" gradientUnits="userSpaceOnUse">
<stop stop-color="#1A1A1A"/>
<stop offset="1" stop-color="#141414"/>
</linearGradient>
<linearGradient id="paint6_linear_120_561" x1="166.289" y1="163" x2="166.289" y2="62.9824" gradientUnits="userSpaceOnUse">
<stop stop-color="#1A1A1A"/>
<stop offset="1" stop-color="#141414"/>
</linearGradient>
<linearGradient id="paint7_linear_120_561" x1="267.289" y1="224" x2="267.289" y2="123.982" gradientUnits="userSpaceOnUse">
<stop stop-color="#1A1A1A"/>
<stop offset="1" stop-color="#141414"/>
</linearGradient>
<linearGradient id="paint8_linear_120_561" x1="371.289" y1="164" x2="371.289" y2="63.9824" gradientUnits="userSpaceOnUse">
<stop stop-color="#1A1A1A"/>
<stop offset="1" stop-color="#141414"/>
</linearGradient>
<linearGradient id="paint9_linear_120_561" x1="474.289" y1="224" x2="474.289" y2="123.982" gradientUnits="userSpaceOnUse">
<stop stop-color="#1A1A1A"/>
<stop offset="1" stop-color="#141414"/>
</linearGradient>
<linearGradient id="paint10_linear_120_561" x1="267.289" y1="104" x2="267.289" y2="3.98243" gradientUnits="userSpaceOnUse">
<stop stop-color="#1A1A1A"/>
<stop offset="1" stop-color="#141414"/>
</linearGradient>
</defs>
</svg>
