<svg width="1440" height="1596" viewBox="0 0 1440 1596" fill="none" xmlns="http://www.w3.org/2000/svg">
<g clip-path="url(#clip0_216_271)">
<g filter="url(#filter0_f_216_271)">
<ellipse cx="-79.5946" cy="426.73" rx="224.344" ry="51.7938" transform="rotate(-90 -79.5946 426.73)" fill="#00FFC2"/>
</g>
<g filter="url(#filter1_f_216_271)">
<ellipse cx="-48.3856" cy="560.866" rx="224.344" ry="98.7536" transform="rotate(-90 -48.3856 560.866)" fill="#00FFC2"/>
</g>
<g filter="url(#filter2_f_216_271)">
<ellipse cx="-64.4769" cy="736.576" rx="224.344" ry="66.9867" transform="rotate(-90 -64.4769 736.576)" fill="#00FFC2"/>
</g>
</g>
<g filter="url(#filter3_dii_216_271)">
<g filter="url(#filter4_i_216_271)">
<path d="M61.2726 1011.12L119.03 1042.88C121.751 1044.38 125.051 1044.37 127.761 1042.85L184.479 1011.13C187.323 1009.54 189.085 1006.53 189.085 1003.27V935.903C189.085 932.643 187.323 929.639 184.479 928.048L127.761 896.324C125.051 894.809 121.751 894.797 119.03 896.293L61.2726 928.06C58.3967 929.642 56.6099 932.664 56.6099 935.946L56.6099 1003.23C56.6099 1006.51 58.3967 1009.53 61.2726 1011.12Z" fill="url(#paint0_linear_216_271)"/>
</g>
<g filter="url(#filter5_i_216_271)">
<path d="M-18.0323 874.134L39.7252 905.901C42.446 907.397 45.7459 907.386 48.4559 905.87L105.174 874.146C108.018 872.555 109.78 869.551 109.78 866.292V798.921C109.78 795.662 108.018 792.658 105.174 791.067L48.4559 759.343C45.7459 757.827 42.446 757.816 39.7253 759.312L-18.0323 791.079C-20.9083 792.66 -22.6951 795.682 -22.6951 798.965L-22.6951 866.248C-22.6951 869.531 -20.9083 872.553 -18.0323 874.134Z" fill="url(#paint1_linear_216_271)"/>
</g>
<g filter="url(#filter6_i_216_271)">
<path d="M-97.3373 1011.12L-39.5797 1042.88C-36.859 1044.38 -33.559 1044.37 -30.849 1042.85L25.8687 1011.13C28.7132 1009.54 30.4753 1006.53 30.4753 1003.27V935.903C30.4753 932.643 28.7132 929.639 25.8687 928.048L-30.849 896.324C-33.559 894.809 -36.859 894.797 -39.5797 896.293L-97.3373 928.06C-100.213 929.642 -102 932.664 -102 935.946L-102 1003.23C-102 1006.51 -100.213 1009.53 -97.3373 1011.12Z" fill="url(#paint2_linear_216_271)"/>
</g>
<g filter="url(#filter7_i_216_271)">
<path d="M61.2726 737.153L119.03 768.92C121.751 770.416 125.051 770.404 127.761 768.889L184.479 737.165C187.323 735.574 189.085 732.57 189.085 729.31V661.94C189.085 658.681 187.323 655.676 184.479 654.085L127.761 622.362C125.051 620.846 121.751 620.834 119.03 622.331L61.2726 654.097C58.3967 655.679 56.6099 658.701 56.6099 661.983L56.6099 729.267C56.6099 732.549 58.3967 735.571 61.2726 737.153Z" fill="url(#paint3_linear_216_271)"/>
</g>
<g filter="url(#filter8_i_216_271)">
<path d="M-18.0323 600.172L39.7252 631.939C42.446 633.435 45.7459 633.423 48.4559 631.907L105.174 600.184C108.018 598.593 109.78 595.588 109.78 592.329V524.959C109.78 521.7 108.018 518.695 105.174 517.104L48.4559 485.381C45.7459 483.865 42.446 483.853 39.7253 485.35L-18.0323 517.116C-20.9083 518.698 -22.6951 521.72 -22.6951 525.002L-22.6951 592.286C-22.6951 595.568 -20.9083 598.59 -18.0323 600.172Z" fill="url(#paint4_linear_216_271)"/>
</g>
<g filter="url(#filter9_i_216_271)">
<path d="M-97.3373 737.153L-39.5797 768.92C-36.859 770.416 -33.559 770.404 -30.849 768.889L25.8687 737.165C28.7132 735.574 30.4753 732.57 30.4753 729.31V661.94C30.4753 658.681 28.7132 655.676 25.8687 654.085L-30.849 622.362C-33.559 620.846 -36.859 620.834 -39.5797 622.331L-97.3373 654.097C-100.213 655.679 -102 658.701 -102 661.983L-102 729.267C-102 732.549 -100.213 735.571 -97.3373 737.153Z" fill="url(#paint5_linear_216_271)"/>
</g>
<g filter="url(#filter10_i_216_271)">
<path d="M61.2726 463.19L119.03 494.957C121.751 496.454 125.051 496.442 127.761 494.926L184.479 463.203C187.323 461.612 189.085 458.607 189.085 455.348V387.978C189.085 384.718 187.323 381.714 184.479 380.123L127.761 348.399C125.051 346.883 121.751 346.872 119.03 348.368L61.2726 380.135C58.3967 381.717 56.6099 384.739 56.6099 388.021L56.6099 455.305C56.6099 458.587 58.3967 461.609 61.2726 463.19Z" fill="url(#paint6_linear_216_271)"/>
</g>
<g filter="url(#filter11_i_216_271)">
<path d="M-18.0323 326.209L39.7252 357.976C42.446 359.473 45.7459 359.461 48.4559 357.945L105.174 326.222C108.018 324.631 109.78 321.626 109.78 318.367V250.997C109.78 247.737 108.018 244.733 105.174 243.142L48.4559 211.418C45.7459 209.903 42.446 209.891 39.7253 211.387L-18.0323 243.154C-20.9083 244.736 -22.6951 247.758 -22.6951 251.04L-22.6951 318.324C-22.6951 321.606 -20.9083 324.628 -18.0323 326.209Z" fill="url(#paint7_linear_216_271)"/>
</g>
<g filter="url(#filter12_i_216_271)">
<path d="M-97.3373 463.19L-39.5797 494.957C-36.859 496.454 -33.559 496.442 -30.849 494.926L25.8687 463.203C28.7132 461.612 30.4753 458.607 30.4753 455.348V387.978C30.4753 384.718 28.7132 381.714 25.8687 380.123L-30.849 348.399C-33.559 346.883 -36.859 346.872 -39.5797 348.368L-97.3373 380.135C-100.213 381.717 -102 384.739 -102 388.021L-102 455.305C-102 458.587 -100.213 461.609 -97.3373 463.19Z" fill="url(#paint8_linear_216_271)"/>
</g>
<g filter="url(#filter13_i_216_271)">
<path d="M140.578 600.172L198.335 631.939C201.056 633.435 204.356 633.423 207.066 631.907L263.783 600.184C266.628 598.593 268.39 595.588 268.39 592.329V524.959C268.39 521.7 266.628 518.695 263.783 517.104L207.066 485.381C204.356 483.865 201.056 483.853 198.335 485.35L140.578 517.116C137.702 518.698 135.915 521.72 135.915 525.002V592.286C135.915 595.568 137.702 598.59 140.578 600.172Z" fill="url(#paint9_linear_216_271)"/>
</g>
<g filter="url(#filter14_i_216_271)">
<path d="M299.187 600.172L356.945 631.939C359.666 633.435 362.966 633.423 365.676 631.907L422.393 600.184C425.238 598.593 427 595.588 427 592.329V524.959C427 521.7 425.238 518.695 422.393 517.104L365.676 485.381C362.966 483.865 359.666 483.853 356.945 485.35L299.187 517.116C296.311 518.698 294.525 521.72 294.525 525.002V592.286C294.525 595.568 296.311 598.59 299.187 600.172Z" fill="url(#paint10_linear_216_271)"/>
</g>
<g filter="url(#filter15_i_216_271)">
<path d="M219.882 463.19L277.64 494.957C280.361 496.454 283.661 496.442 286.371 494.926L343.088 463.203C345.933 461.612 347.695 458.607 347.695 455.348V387.978C347.695 384.718 345.933 381.714 343.088 380.123L286.371 348.399C283.661 346.883 280.361 346.872 277.64 348.368L219.882 380.135C217.007 381.717 215.22 384.739 215.22 388.021V455.305C215.22 458.587 217.007 461.609 219.882 463.19Z" fill="url(#paint11_linear_216_271)"/>
</g>
<g filter="url(#filter16_i_216_271)">
<path d="M61.2726 189.228L119.03 220.995C121.751 222.491 125.051 222.479 127.761 220.964L184.479 189.24C187.323 187.649 189.085 184.645 189.085 181.385V114.015C189.085 110.756 187.323 107.751 184.479 106.16L127.761 74.4368C125.051 72.9211 121.751 72.9093 119.03 74.4057L61.2726 106.172C58.3967 107.754 56.6099 110.776 56.6099 114.058L56.6099 181.342C56.6099 184.624 58.3967 187.646 61.2726 189.228Z" fill="url(#paint12_linear_216_271)"/>
</g>
<g filter="url(#filter17_i_216_271)">
<path d="M-97.3373 189.228L-39.5797 220.995C-36.859 222.491 -33.559 222.479 -30.849 220.964L25.8687 189.24C28.7132 187.649 30.4753 184.645 30.4753 181.385V114.015C30.4753 110.756 28.7132 107.751 25.8687 106.16L-30.849 74.4368C-33.559 72.9211 -36.859 72.9093 -39.5797 74.4057L-97.3373 106.172C-100.213 107.754 -102 110.776 -102 114.058L-102 181.342C-102 184.624 -100.213 187.646 -97.3373 189.228Z" fill="url(#paint13_linear_216_271)"/>
</g>
<g filter="url(#filter18_i_216_271)">
<path d="M140.578 326.209L198.335 357.976C201.056 359.473 204.356 359.461 207.066 357.945L263.783 326.222C266.628 324.631 268.39 321.626 268.39 318.367V250.997C268.39 247.737 266.628 244.733 263.783 243.142L207.066 211.418C204.356 209.903 201.056 209.891 198.335 211.387L140.578 243.154C137.702 244.736 135.915 247.758 135.915 251.04V318.324C135.915 321.606 137.702 324.628 140.578 326.209Z" fill="url(#paint14_linear_216_271)"/>
</g>
</g>
<g clip-path="url(#clip1_216_271)">
<g filter="url(#filter19_f_216_271)">
<ellipse cx="1550.59" cy="1169.27" rx="224.344" ry="51.7938" transform="rotate(90 1550.59 1169.27)" fill="#00FFC2"/>
</g>
<g filter="url(#filter20_f_216_271)">
<ellipse cx="1519.39" cy="1035.13" rx="224.344" ry="98.7536" transform="rotate(90 1519.39 1035.13)" fill="#00FFC2"/>
</g>
<g filter="url(#filter21_f_216_271)">
<ellipse cx="1535.48" cy="859.425" rx="224.344" ry="66.9867" transform="rotate(90 1535.48 859.425)" fill="#00FFC2"/>
</g>
</g>
<g filter="url(#filter22_dii_216_271)">
<g filter="url(#filter23_i_216_271)">
<path d="M1439.73 584.884L1381.97 553.118C1379.25 551.621 1375.95 551.633 1373.24 553.149L1316.52 584.872C1313.68 586.463 1311.91 589.468 1311.91 592.727V660.097C1311.91 663.356 1313.68 666.361 1316.52 667.952L1373.24 699.675C1375.95 701.191 1379.25 701.203 1381.97 699.707L1439.73 667.94C1442.6 666.358 1444.39 663.336 1444.39 660.054V592.77C1444.39 589.488 1442.6 586.466 1439.73 584.884Z" fill="url(#paint15_linear_216_271)"/>
</g>
<g filter="url(#filter24_i_216_271)">
<path d="M1519.03 721.866L1461.27 690.099C1458.55 688.603 1455.25 688.614 1452.54 690.13L1395.83 721.854C1392.98 723.445 1391.22 726.449 1391.22 729.708V797.079C1391.22 800.338 1392.98 803.342 1395.83 804.933L1452.54 836.657C1455.25 838.173 1458.55 838.184 1461.27 836.688L1519.03 804.921C1521.91 803.34 1523.7 800.318 1523.7 797.035V729.752C1523.7 726.469 1521.91 723.447 1519.03 721.866Z" fill="url(#paint16_linear_216_271)"/>
</g>
<g filter="url(#filter25_i_216_271)">
<path d="M1439.73 858.847L1381.97 827.08C1379.25 825.584 1375.95 825.595 1373.24 827.111L1316.52 858.835C1313.68 860.426 1311.91 863.43 1311.91 866.689V934.06C1311.91 937.319 1313.68 940.323 1316.52 941.914L1373.24 973.638C1375.95 975.154 1379.25 975.165 1381.97 973.669L1439.73 941.902C1442.6 940.321 1444.39 937.299 1444.39 934.016V866.733C1444.39 863.45 1442.6 860.428 1439.73 858.847Z" fill="url(#paint17_linear_216_271)"/>
</g>
<g filter="url(#filter26_i_216_271)">
<path d="M1519.03 995.828L1461.27 964.061C1458.55 962.565 1455.25 962.577 1452.54 964.093L1395.83 995.816C1392.98 997.407 1391.22 1000.41 1391.22 1003.67V1071.04C1391.22 1074.3 1392.98 1077.3 1395.83 1078.9L1452.54 1110.62C1455.25 1112.14 1458.55 1112.15 1461.27 1110.65L1519.03 1078.88C1521.91 1077.3 1523.7 1074.28 1523.7 1071V1003.71C1523.7 1000.43 1521.91 997.41 1519.03 995.828Z" fill="url(#paint18_linear_216_271)"/>
</g>
<g filter="url(#filter27_i_216_271)">
<path d="M1439.73 1132.81L1381.97 1101.04C1379.25 1099.55 1375.95 1099.56 1373.24 1101.07L1316.52 1132.8C1313.68 1134.39 1311.91 1137.39 1311.91 1140.65V1208.02C1311.91 1211.28 1313.68 1214.29 1316.52 1215.88L1373.24 1247.6C1375.95 1249.12 1379.25 1249.13 1381.97 1247.63L1439.73 1215.86C1442.6 1214.28 1444.39 1211.26 1444.39 1207.98V1140.7C1444.39 1137.41 1442.6 1134.39 1439.73 1132.81Z" fill="url(#paint19_linear_216_271)"/>
</g>
<g filter="url(#filter28_i_216_271)">
<path d="M1519.03 1269.79L1461.27 1238.02C1458.55 1236.53 1455.25 1236.54 1452.54 1238.05L1395.83 1269.78C1392.98 1271.37 1391.22 1274.37 1391.22 1277.63V1345C1391.22 1348.26 1392.98 1351.27 1395.83 1352.86L1452.54 1384.58C1455.25 1386.1 1458.55 1386.11 1461.27 1384.61L1519.03 1352.85C1521.91 1351.26 1523.7 1348.24 1523.7 1344.96V1277.68C1523.7 1274.39 1521.91 1271.37 1519.03 1269.79Z" fill="url(#paint20_linear_216_271)"/>
</g>
<g filter="url(#filter29_i_216_271)">
<path d="M1360.42 995.828L1302.66 964.061C1299.94 962.565 1296.64 962.577 1293.93 964.093L1237.22 995.816C1234.37 997.407 1232.61 1000.41 1232.61 1003.67V1071.04C1232.61 1074.3 1234.37 1077.3 1237.22 1078.9L1293.93 1110.62C1296.64 1112.14 1299.94 1112.15 1302.66 1110.65L1360.42 1078.88C1363.3 1077.3 1365.09 1074.28 1365.09 1071V1003.71C1365.09 1000.43 1363.3 997.41 1360.42 995.828Z" fill="url(#paint21_linear_216_271)"/>
</g>
<g filter="url(#filter30_i_216_271)">
<path d="M1201.81 995.828L1144.06 964.061C1141.33 962.565 1138.03 962.577 1135.32 964.093L1078.61 995.816C1075.76 997.407 1074 1000.41 1074 1003.67V1071.04C1074 1074.3 1075.76 1077.3 1078.61 1078.9L1135.32 1110.62C1138.03 1112.14 1141.33 1112.15 1144.06 1110.65L1201.81 1078.88C1204.69 1077.3 1206.48 1074.28 1206.48 1071V1003.71C1206.48 1000.43 1204.69 997.41 1201.81 995.828Z" fill="url(#paint22_linear_216_271)"/>
</g>
<g filter="url(#filter31_i_216_271)">
<path d="M1281.12 1132.81L1223.36 1101.04C1220.64 1099.55 1217.34 1099.56 1214.63 1101.07L1157.91 1132.8C1155.07 1134.39 1153.3 1137.39 1153.3 1140.65V1208.02C1153.3 1211.28 1155.07 1214.29 1157.91 1215.88L1214.63 1247.6C1217.34 1249.12 1220.64 1249.13 1223.36 1247.63L1281.12 1215.86C1283.99 1214.28 1285.78 1211.26 1285.78 1207.98V1140.7C1285.78 1137.41 1283.99 1134.39 1281.12 1132.81Z" fill="url(#paint23_linear_216_271)"/>
</g>
<g filter="url(#filter32_i_216_271)">
<path d="M1439.73 1406.77L1381.97 1375.01C1379.25 1373.51 1375.95 1373.52 1373.24 1375.04L1316.52 1406.76C1313.68 1408.35 1311.91 1411.36 1311.91 1414.61V1481.98C1311.91 1485.24 1313.68 1488.25 1316.52 1489.84L1373.24 1521.56C1375.95 1523.08 1379.25 1523.09 1381.97 1521.59L1439.73 1489.83C1442.6 1488.25 1444.39 1485.22 1444.39 1481.94V1414.66C1444.39 1411.38 1442.6 1408.35 1439.73 1406.77Z" fill="url(#paint24_linear_216_271)"/>
</g>
<g filter="url(#filter33_i_216_271)">
<path d="M1360.42 1269.79L1302.66 1238.02C1299.94 1236.53 1296.64 1236.54 1293.93 1238.05L1237.22 1269.78C1234.37 1271.37 1232.61 1274.37 1232.61 1277.63V1345C1232.61 1348.26 1234.37 1351.27 1237.22 1352.86L1293.93 1384.58C1296.64 1386.1 1299.94 1386.11 1302.66 1384.61L1360.42 1352.85C1363.3 1351.26 1365.09 1348.24 1365.09 1344.96V1277.68C1365.09 1274.39 1363.3 1271.37 1360.42 1269.79Z" fill="url(#paint25_linear_216_271)"/>
</g>
</g>
<defs>
<filter id="filter0_f_216_271" x="-308.509" y="25.2649" width="457.829" height="802.929" filterUnits="userSpaceOnUse" color-interpolation-filters="sRGB">
<feFlood flood-opacity="0" result="BackgroundImageFix"/>
<feBlend mode="normal" in="SourceGraphic" in2="BackgroundImageFix" result="shape"/>
<feGaussianBlur stdDeviation="88.5604" result="effect1_foregroundBlur_216_271"/>
</filter>
<filter id="filter1_f_216_271" x="-324.26" y="159.402" width="551.749" height="802.929" filterUnits="userSpaceOnUse" color-interpolation-filters="sRGB">
<feFlood flood-opacity="0" result="BackgroundImageFix"/>
<feBlend mode="normal" in="SourceGraphic" in2="BackgroundImageFix" result="shape"/>
<feGaussianBlur stdDeviation="88.5604" result="effect1_foregroundBlur_216_271"/>
</filter>
<filter id="filter2_f_216_271" x="-308.584" y="335.111" width="488.215" height="802.929" filterUnits="userSpaceOnUse" color-interpolation-filters="sRGB">
<feFlood flood-opacity="0" result="BackgroundImageFix"/>
<feBlend mode="normal" in="SourceGraphic" in2="BackgroundImageFix" result="shape"/>
<feGaussianBlur stdDeviation="88.5604" result="effect1_foregroundBlur_216_271"/>
</filter>
<filter id="filter3_dii_216_271" x="-106" y="73.2915" width="537" height="981.705" filterUnits="userSpaceOnUse" color-interpolation-filters="sRGB">
<feFlood flood-opacity="0" result="BackgroundImageFix"/>
<feColorMatrix in="SourceAlpha" type="matrix" values="0 0 0 0 0 0 0 0 0 0 0 0 0 0 0 0 0 0 127 0" result="hardAlpha"/>
<feOffset dy="7"/>
<feGaussianBlur stdDeviation="2"/>
<feComposite in2="hardAlpha" operator="out"/>
<feColorMatrix type="matrix" values="0 0 0 0 0 0 0 0 0 0 0 0 0 0 0 0 0 0 0.15 0"/>
<feBlend mode="normal" in2="BackgroundImageFix" result="effect1_dropShadow_216_271"/>
<feBlend mode="normal" in="SourceGraphic" in2="effect1_dropShadow_216_271" result="shape"/>
<feColorMatrix in="SourceAlpha" type="matrix" values="0 0 0 0 0 0 0 0 0 0 0 0 0 0 0 0 0 0 127 0" result="hardAlpha"/>
<feOffset dy="2"/>
<feGaussianBlur stdDeviation="2"/>
<feComposite in2="hardAlpha" operator="arithmetic" k2="-1" k3="1"/>
<feColorMatrix type="matrix" values="0 0 0 0 1 0 0 0 0 1 0 0 0 0 1 0 0 0 0.08 0"/>
<feBlend mode="normal" in2="shape" result="effect2_innerShadow_216_271"/>
<feColorMatrix in="SourceAlpha" type="matrix" values="0 0 0 0 0 0 0 0 0 0 0 0 0 0 0 0 0 0 127 0" result="hardAlpha"/>
<feOffset dy="1"/>
<feGaussianBlur stdDeviation="1"/>
<feComposite in2="hardAlpha" operator="arithmetic" k2="-1" k3="1"/>
<feColorMatrix type="matrix" values="0 0 0 0 1 0 0 0 0 1 0 0 0 0 1 0 0 0 0.02 0"/>
<feBlend mode="normal" in2="effect2_innerShadow_216_271" result="effect3_innerShadow_216_271"/>
</filter>
<filter id="filter4_i_216_271" x="56.6099" y="895.179" width="134.702" height="151.044" filterUnits="userSpaceOnUse" color-interpolation-filters="sRGB">
<feFlood flood-opacity="0" result="BackgroundImageFix"/>
<feBlend mode="normal" in="SourceGraphic" in2="BackgroundImageFix" result="shape"/>
<feColorMatrix in="SourceAlpha" type="matrix" values="0 0 0 0 0 0 0 0 0 0 0 0 0 0 0 0 0 0 127 0" result="hardAlpha"/>
<feOffset dx="2.22648" dy="2.22648"/>
<feGaussianBlur stdDeviation="3.33971"/>
<feComposite in2="hardAlpha" operator="arithmetic" k2="-1" k3="1"/>
<feColorMatrix type="matrix" values="0 0 0 0 0 0 0 0 0 0 0 0 0 0 0 0 0 0 0.25 0"/>
<feBlend mode="normal" in2="shape" result="effect1_innerShadow_216_271"/>
</filter>
<filter id="filter5_i_216_271" x="-22.6951" y="758.198" width="134.702" height="151.044" filterUnits="userSpaceOnUse" color-interpolation-filters="sRGB">
<feFlood flood-opacity="0" result="BackgroundImageFix"/>
<feBlend mode="normal" in="SourceGraphic" in2="BackgroundImageFix" result="shape"/>
<feColorMatrix in="SourceAlpha" type="matrix" values="0 0 0 0 0 0 0 0 0 0 0 0 0 0 0 0 0 0 127 0" result="hardAlpha"/>
<feOffset dx="2.22648" dy="2.22648"/>
<feGaussianBlur stdDeviation="3.33971"/>
<feComposite in2="hardAlpha" operator="arithmetic" k2="-1" k3="1"/>
<feColorMatrix type="matrix" values="0 0 0 0 0 0 0 0 0 0 0 0 0 0 0 0 0 0 0.25 0"/>
<feBlend mode="normal" in2="shape" result="effect1_innerShadow_216_271"/>
</filter>
<filter id="filter6_i_216_271" x="-102" y="895.179" width="134.702" height="151.044" filterUnits="userSpaceOnUse" color-interpolation-filters="sRGB">
<feFlood flood-opacity="0" result="BackgroundImageFix"/>
<feBlend mode="normal" in="SourceGraphic" in2="BackgroundImageFix" result="shape"/>
<feColorMatrix in="SourceAlpha" type="matrix" values="0 0 0 0 0 0 0 0 0 0 0 0 0 0 0 0 0 0 127 0" result="hardAlpha"/>
<feOffset dx="2.22648" dy="2.22648"/>
<feGaussianBlur stdDeviation="3.33971"/>
<feComposite in2="hardAlpha" operator="arithmetic" k2="-1" k3="1"/>
<feColorMatrix type="matrix" values="0 0 0 0 0 0 0 0 0 0 0 0 0 0 0 0 0 0 0.25 0"/>
<feBlend mode="normal" in2="shape" result="effect1_innerShadow_216_271"/>
</filter>
<filter id="filter7_i_216_271" x="56.6099" y="621.217" width="134.702" height="151.044" filterUnits="userSpaceOnUse" color-interpolation-filters="sRGB">
<feFlood flood-opacity="0" result="BackgroundImageFix"/>
<feBlend mode="normal" in="SourceGraphic" in2="BackgroundImageFix" result="shape"/>
<feColorMatrix in="SourceAlpha" type="matrix" values="0 0 0 0 0 0 0 0 0 0 0 0 0 0 0 0 0 0 127 0" result="hardAlpha"/>
<feOffset dx="2.22648" dy="2.22648"/>
<feGaussianBlur stdDeviation="3.33971"/>
<feComposite in2="hardAlpha" operator="arithmetic" k2="-1" k3="1"/>
<feColorMatrix type="matrix" values="0 0 0 0 0 0 0 0 0 0 0 0 0 0 0 0 0 0 0.25 0"/>
<feBlend mode="normal" in2="shape" result="effect1_innerShadow_216_271"/>
</filter>
<filter id="filter8_i_216_271" x="-22.6951" y="484.235" width="134.702" height="151.044" filterUnits="userSpaceOnUse" color-interpolation-filters="sRGB">
<feFlood flood-opacity="0" result="BackgroundImageFix"/>
<feBlend mode="normal" in="SourceGraphic" in2="BackgroundImageFix" result="shape"/>
<feColorMatrix in="SourceAlpha" type="matrix" values="0 0 0 0 0 0 0 0 0 0 0 0 0 0 0 0 0 0 127 0" result="hardAlpha"/>
<feOffset dx="2.22648" dy="2.22648"/>
<feGaussianBlur stdDeviation="3.33971"/>
<feComposite in2="hardAlpha" operator="arithmetic" k2="-1" k3="1"/>
<feColorMatrix type="matrix" values="0 0 0 0 0 0 0 0 0 0 0 0 0 0 0 0 0 0 0.25 0"/>
<feBlend mode="normal" in2="shape" result="effect1_innerShadow_216_271"/>
</filter>
<filter id="filter9_i_216_271" x="-102" y="621.217" width="134.702" height="151.044" filterUnits="userSpaceOnUse" color-interpolation-filters="sRGB">
<feFlood flood-opacity="0" result="BackgroundImageFix"/>
<feBlend mode="normal" in="SourceGraphic" in2="BackgroundImageFix" result="shape"/>
<feColorMatrix in="SourceAlpha" type="matrix" values="0 0 0 0 0 0 0 0 0 0 0 0 0 0 0 0 0 0 127 0" result="hardAlpha"/>
<feOffset dx="2.22648" dy="2.22648"/>
<feGaussianBlur stdDeviation="3.33971"/>
<feComposite in2="hardAlpha" operator="arithmetic" k2="-1" k3="1"/>
<feColorMatrix type="matrix" values="0 0 0 0 0 0 0 0 0 0 0 0 0 0 0 0 0 0 0.25 0"/>
<feBlend mode="normal" in2="shape" result="effect1_innerShadow_216_271"/>
</filter>
<filter id="filter10_i_216_271" x="56.6099" y="347.254" width="134.702" height="151.044" filterUnits="userSpaceOnUse" color-interpolation-filters="sRGB">
<feFlood flood-opacity="0" result="BackgroundImageFix"/>
<feBlend mode="normal" in="SourceGraphic" in2="BackgroundImageFix" result="shape"/>
<feColorMatrix in="SourceAlpha" type="matrix" values="0 0 0 0 0 0 0 0 0 0 0 0 0 0 0 0 0 0 127 0" result="hardAlpha"/>
<feOffset dx="2.22648" dy="2.22648"/>
<feGaussianBlur stdDeviation="3.33971"/>
<feComposite in2="hardAlpha" operator="arithmetic" k2="-1" k3="1"/>
<feColorMatrix type="matrix" values="0 0 0 0 0 0 0 0 0 0 0 0 0 0 0 0 0 0 0.25 0"/>
<feBlend mode="normal" in2="shape" result="effect1_innerShadow_216_271"/>
</filter>
<filter id="filter11_i_216_271" x="-22.6951" y="210.273" width="134.702" height="151.044" filterUnits="userSpaceOnUse" color-interpolation-filters="sRGB">
<feFlood flood-opacity="0" result="BackgroundImageFix"/>
<feBlend mode="normal" in="SourceGraphic" in2="BackgroundImageFix" result="shape"/>
<feColorMatrix in="SourceAlpha" type="matrix" values="0 0 0 0 0 0 0 0 0 0 0 0 0 0 0 0 0 0 127 0" result="hardAlpha"/>
<feOffset dx="2.22648" dy="2.22648"/>
<feGaussianBlur stdDeviation="3.33971"/>
<feComposite in2="hardAlpha" operator="arithmetic" k2="-1" k3="1"/>
<feColorMatrix type="matrix" values="0 0 0 0 0 0 0 0 0 0 0 0 0 0 0 0 0 0 0.25 0"/>
<feBlend mode="normal" in2="shape" result="effect1_innerShadow_216_271"/>
</filter>
<filter id="filter12_i_216_271" x="-102" y="347.254" width="134.702" height="151.044" filterUnits="userSpaceOnUse" color-interpolation-filters="sRGB">
<feFlood flood-opacity="0" result="BackgroundImageFix"/>
<feBlend mode="normal" in="SourceGraphic" in2="BackgroundImageFix" result="shape"/>
<feColorMatrix in="SourceAlpha" type="matrix" values="0 0 0 0 0 0 0 0 0 0 0 0 0 0 0 0 0 0 127 0" result="hardAlpha"/>
<feOffset dx="2.22648" dy="2.22648"/>
<feGaussianBlur stdDeviation="3.33971"/>
<feComposite in2="hardAlpha" operator="arithmetic" k2="-1" k3="1"/>
<feColorMatrix type="matrix" values="0 0 0 0 0 0 0 0 0 0 0 0 0 0 0 0 0 0 0.25 0"/>
<feBlend mode="normal" in2="shape" result="effect1_innerShadow_216_271"/>
</filter>
<filter id="filter13_i_216_271" x="135.915" y="484.235" width="134.702" height="151.044" filterUnits="userSpaceOnUse" color-interpolation-filters="sRGB">
<feFlood flood-opacity="0" result="BackgroundImageFix"/>
<feBlend mode="normal" in="SourceGraphic" in2="BackgroundImageFix" result="shape"/>
<feColorMatrix in="SourceAlpha" type="matrix" values="0 0 0 0 0 0 0 0 0 0 0 0 0 0 0 0 0 0 127 0" result="hardAlpha"/>
<feOffset dx="2.22648" dy="2.22648"/>
<feGaussianBlur stdDeviation="3.33971"/>
<feComposite in2="hardAlpha" operator="arithmetic" k2="-1" k3="1"/>
<feColorMatrix type="matrix" values="0 0 0 0 0 0 0 0 0 0 0 0 0 0 0 0 0 0 0.25 0"/>
<feBlend mode="normal" in2="shape" result="effect1_innerShadow_216_271"/>
</filter>
<filter id="filter14_i_216_271" x="294.525" y="484.235" width="134.702" height="151.044" filterUnits="userSpaceOnUse" color-interpolation-filters="sRGB">
<feFlood flood-opacity="0" result="BackgroundImageFix"/>
<feBlend mode="normal" in="SourceGraphic" in2="BackgroundImageFix" result="shape"/>
<feColorMatrix in="SourceAlpha" type="matrix" values="0 0 0 0 0 0 0 0 0 0 0 0 0 0 0 0 0 0 127 0" result="hardAlpha"/>
<feOffset dx="2.22648" dy="2.22648"/>
<feGaussianBlur stdDeviation="3.33971"/>
<feComposite in2="hardAlpha" operator="arithmetic" k2="-1" k3="1"/>
<feColorMatrix type="matrix" values="0 0 0 0 0 0 0 0 0 0 0 0 0 0 0 0 0 0 0.25 0"/>
<feBlend mode="normal" in2="shape" result="effect1_innerShadow_216_271"/>
</filter>
<filter id="filter15_i_216_271" x="215.22" y="347.254" width="134.702" height="151.044" filterUnits="userSpaceOnUse" color-interpolation-filters="sRGB">
<feFlood flood-opacity="0" result="BackgroundImageFix"/>
<feBlend mode="normal" in="SourceGraphic" in2="BackgroundImageFix" result="shape"/>
<feColorMatrix in="SourceAlpha" type="matrix" values="0 0 0 0 0 0 0 0 0 0 0 0 0 0 0 0 0 0 127 0" result="hardAlpha"/>
<feOffset dx="2.22648" dy="2.22648"/>
<feGaussianBlur stdDeviation="3.33971"/>
<feComposite in2="hardAlpha" operator="arithmetic" k2="-1" k3="1"/>
<feColorMatrix type="matrix" values="0 0 0 0 0 0 0 0 0 0 0 0 0 0 0 0 0 0 0.25 0"/>
<feBlend mode="normal" in2="shape" result="effect1_innerShadow_216_271"/>
</filter>
<filter id="filter16_i_216_271" x="56.6099" y="73.2915" width="134.702" height="151.044" filterUnits="userSpaceOnUse" color-interpolation-filters="sRGB">
<feFlood flood-opacity="0" result="BackgroundImageFix"/>
<feBlend mode="normal" in="SourceGraphic" in2="BackgroundImageFix" result="shape"/>
<feColorMatrix in="SourceAlpha" type="matrix" values="0 0 0 0 0 0 0 0 0 0 0 0 0 0 0 0 0 0 127 0" result="hardAlpha"/>
<feOffset dx="2.22648" dy="2.22648"/>
<feGaussianBlur stdDeviation="3.33971"/>
<feComposite in2="hardAlpha" operator="arithmetic" k2="-1" k3="1"/>
<feColorMatrix type="matrix" values="0 0 0 0 0 0 0 0 0 0 0 0 0 0 0 0 0 0 0.25 0"/>
<feBlend mode="normal" in2="shape" result="effect1_innerShadow_216_271"/>
</filter>
<filter id="filter17_i_216_271" x="-102" y="73.2915" width="134.702" height="151.044" filterUnits="userSpaceOnUse" color-interpolation-filters="sRGB">
<feFlood flood-opacity="0" result="BackgroundImageFix"/>
<feBlend mode="normal" in="SourceGraphic" in2="BackgroundImageFix" result="shape"/>
<feColorMatrix in="SourceAlpha" type="matrix" values="0 0 0 0 0 0 0 0 0 0 0 0 0 0 0 0 0 0 127 0" result="hardAlpha"/>
<feOffset dx="2.22648" dy="2.22648"/>
<feGaussianBlur stdDeviation="3.33971"/>
<feComposite in2="hardAlpha" operator="arithmetic" k2="-1" k3="1"/>
<feColorMatrix type="matrix" values="0 0 0 0 0 0 0 0 0 0 0 0 0 0 0 0 0 0 0.25 0"/>
<feBlend mode="normal" in2="shape" result="effect1_innerShadow_216_271"/>
</filter>
<filter id="filter18_i_216_271" x="135.915" y="210.273" width="134.702" height="151.044" filterUnits="userSpaceOnUse" color-interpolation-filters="sRGB">
<feFlood flood-opacity="0" result="BackgroundImageFix"/>
<feBlend mode="normal" in="SourceGraphic" in2="BackgroundImageFix" result="shape"/>
<feColorMatrix in="SourceAlpha" type="matrix" values="0 0 0 0 0 0 0 0 0 0 0 0 0 0 0 0 0 0 127 0" result="hardAlpha"/>
<feOffset dx="2.22648" dy="2.22648"/>
<feGaussianBlur stdDeviation="3.33971"/>
<feComposite in2="hardAlpha" operator="arithmetic" k2="-1" k3="1"/>
<feColorMatrix type="matrix" values="0 0 0 0 0 0 0 0 0 0 0 0 0 0 0 0 0 0 0.25 0"/>
<feBlend mode="normal" in2="shape" result="effect1_innerShadow_216_271"/>
</filter>
<filter id="filter19_f_216_271" x="1321.68" y="767.806" width="457.829" height="802.929" filterUnits="userSpaceOnUse" color-interpolation-filters="sRGB">
<feFlood flood-opacity="0" result="BackgroundImageFix"/>
<feBlend mode="normal" in="SourceGraphic" in2="BackgroundImageFix" result="shape"/>
<feGaussianBlur stdDeviation="88.5604" result="effect1_foregroundBlur_216_271"/>
</filter>
<filter id="filter20_f_216_271" x="1243.51" y="633.669" width="551.749" height="802.929" filterUnits="userSpaceOnUse" color-interpolation-filters="sRGB">
<feFlood flood-opacity="0" result="BackgroundImageFix"/>
<feBlend mode="normal" in="SourceGraphic" in2="BackgroundImageFix" result="shape"/>
<feGaussianBlur stdDeviation="88.5604" result="effect1_foregroundBlur_216_271"/>
</filter>
<filter id="filter21_f_216_271" x="1291.37" y="457.96" width="488.215" height="802.929" filterUnits="userSpaceOnUse" color-interpolation-filters="sRGB">
<feFlood flood-opacity="0" result="BackgroundImageFix"/>
<feBlend mode="normal" in="SourceGraphic" in2="BackgroundImageFix" result="shape"/>
<feGaussianBlur stdDeviation="88.5604" result="effect1_foregroundBlur_216_271"/>
</filter>
<filter id="filter22_dii_216_271" x="1070" y="552.003" width="537" height="981.705" filterUnits="userSpaceOnUse" color-interpolation-filters="sRGB">
<feFlood flood-opacity="0" result="BackgroundImageFix"/>
<feColorMatrix in="SourceAlpha" type="matrix" values="0 0 0 0 0 0 0 0 0 0 0 0 0 0 0 0 0 0 127 0" result="hardAlpha"/>
<feOffset dy="7"/>
<feGaussianBlur stdDeviation="2"/>
<feComposite in2="hardAlpha" operator="out"/>
<feColorMatrix type="matrix" values="0 0 0 0 0 0 0 0 0 0 0 0 0 0 0 0 0 0 0.15 0"/>
<feBlend mode="normal" in2="BackgroundImageFix" result="effect1_dropShadow_216_271"/>
<feBlend mode="normal" in="SourceGraphic" in2="effect1_dropShadow_216_271" result="shape"/>
<feColorMatrix in="SourceAlpha" type="matrix" values="0 0 0 0 0 0 0 0 0 0 0 0 0 0 0 0 0 0 127 0" result="hardAlpha"/>
<feOffset dy="2"/>
<feGaussianBlur stdDeviation="2"/>
<feComposite in2="hardAlpha" operator="arithmetic" k2="-1" k3="1"/>
<feColorMatrix type="matrix" values="0 0 0 0 1 0 0 0 0 1 0 0 0 0 1 0 0 0 0.08 0"/>
<feBlend mode="normal" in2="shape" result="effect2_innerShadow_216_271"/>
<feColorMatrix in="SourceAlpha" type="matrix" values="0 0 0 0 0 0 0 0 0 0 0 0 0 0 0 0 0 0 127 0" result="hardAlpha"/>
<feOffset dy="1"/>
<feGaussianBlur stdDeviation="1"/>
<feComposite in2="hardAlpha" operator="arithmetic" k2="-1" k3="1"/>
<feColorMatrix type="matrix" values="0 0 0 0 1 0 0 0 0 1 0 0 0 0 1 0 0 0 0.02 0"/>
<feBlend mode="normal" in2="effect2_innerShadow_216_271" result="effect3_innerShadow_216_271"/>
</filter>
<filter id="filter23_i_216_271" x="1311.91" y="552.003" width="134.702" height="151.044" filterUnits="userSpaceOnUse" color-interpolation-filters="sRGB">
<feFlood flood-opacity="0" result="BackgroundImageFix"/>
<feBlend mode="normal" in="SourceGraphic" in2="BackgroundImageFix" result="shape"/>
<feColorMatrix in="SourceAlpha" type="matrix" values="0 0 0 0 0 0 0 0 0 0 0 0 0 0 0 0 0 0 127 0" result="hardAlpha"/>
<feOffset dx="2.22648" dy="2.22648"/>
<feGaussianBlur stdDeviation="3.33971"/>
<feComposite in2="hardAlpha" operator="arithmetic" k2="-1" k3="1"/>
<feColorMatrix type="matrix" values="0 0 0 0 0 0 0 0 0 0 0 0 0 0 0 0 0 0 0.25 0"/>
<feBlend mode="normal" in2="shape" result="effect1_innerShadow_216_271"/>
</filter>
<filter id="filter24_i_216_271" x="1391.22" y="688.985" width="134.702" height="151.044" filterUnits="userSpaceOnUse" color-interpolation-filters="sRGB">
<feFlood flood-opacity="0" result="BackgroundImageFix"/>
<feBlend mode="normal" in="SourceGraphic" in2="BackgroundImageFix" result="shape"/>
<feColorMatrix in="SourceAlpha" type="matrix" values="0 0 0 0 0 0 0 0 0 0 0 0 0 0 0 0 0 0 127 0" result="hardAlpha"/>
<feOffset dx="2.22648" dy="2.22648"/>
<feGaussianBlur stdDeviation="3.33971"/>
<feComposite in2="hardAlpha" operator="arithmetic" k2="-1" k3="1"/>
<feColorMatrix type="matrix" values="0 0 0 0 0 0 0 0 0 0 0 0 0 0 0 0 0 0 0.25 0"/>
<feBlend mode="normal" in2="shape" result="effect1_innerShadow_216_271"/>
</filter>
<filter id="filter25_i_216_271" x="1311.91" y="825.966" width="134.702" height="151.044" filterUnits="userSpaceOnUse" color-interpolation-filters="sRGB">
<feFlood flood-opacity="0" result="BackgroundImageFix"/>
<feBlend mode="normal" in="SourceGraphic" in2="BackgroundImageFix" result="shape"/>
<feColorMatrix in="SourceAlpha" type="matrix" values="0 0 0 0 0 0 0 0 0 0 0 0 0 0 0 0 0 0 127 0" result="hardAlpha"/>
<feOffset dx="2.22648" dy="2.22648"/>
<feGaussianBlur stdDeviation="3.33971"/>
<feComposite in2="hardAlpha" operator="arithmetic" k2="-1" k3="1"/>
<feColorMatrix type="matrix" values="0 0 0 0 0 0 0 0 0 0 0 0 0 0 0 0 0 0 0.25 0"/>
<feBlend mode="normal" in2="shape" result="effect1_innerShadow_216_271"/>
</filter>
<filter id="filter26_i_216_271" x="1391.22" y="962.947" width="134.702" height="151.044" filterUnits="userSpaceOnUse" color-interpolation-filters="sRGB">
<feFlood flood-opacity="0" result="BackgroundImageFix"/>
<feBlend mode="normal" in="SourceGraphic" in2="BackgroundImageFix" result="shape"/>
<feColorMatrix in="SourceAlpha" type="matrix" values="0 0 0 0 0 0 0 0 0 0 0 0 0 0 0 0 0 0 127 0" result="hardAlpha"/>
<feOffset dx="2.22648" dy="2.22648"/>
<feGaussianBlur stdDeviation="3.33971"/>
<feComposite in2="hardAlpha" operator="arithmetic" k2="-1" k3="1"/>
<feColorMatrix type="matrix" values="0 0 0 0 0 0 0 0 0 0 0 0 0 0 0 0 0 0 0.25 0"/>
<feBlend mode="normal" in2="shape" result="effect1_innerShadow_216_271"/>
</filter>
<filter id="filter27_i_216_271" x="1311.91" y="1099.93" width="134.702" height="151.044" filterUnits="userSpaceOnUse" color-interpolation-filters="sRGB">
<feFlood flood-opacity="0" result="BackgroundImageFix"/>
<feBlend mode="normal" in="SourceGraphic" in2="BackgroundImageFix" result="shape"/>
<feColorMatrix in="SourceAlpha" type="matrix" values="0 0 0 0 0 0 0 0 0 0 0 0 0 0 0 0 0 0 127 0" result="hardAlpha"/>
<feOffset dx="2.22648" dy="2.22648"/>
<feGaussianBlur stdDeviation="3.33971"/>
<feComposite in2="hardAlpha" operator="arithmetic" k2="-1" k3="1"/>
<feColorMatrix type="matrix" values="0 0 0 0 0 0 0 0 0 0 0 0 0 0 0 0 0 0 0.25 0"/>
<feBlend mode="normal" in2="shape" result="effect1_innerShadow_216_271"/>
</filter>
<filter id="filter28_i_216_271" x="1391.22" y="1236.91" width="134.702" height="151.044" filterUnits="userSpaceOnUse" color-interpolation-filters="sRGB">
<feFlood flood-opacity="0" result="BackgroundImageFix"/>
<feBlend mode="normal" in="SourceGraphic" in2="BackgroundImageFix" result="shape"/>
<feColorMatrix in="SourceAlpha" type="matrix" values="0 0 0 0 0 0 0 0 0 0 0 0 0 0 0 0 0 0 127 0" result="hardAlpha"/>
<feOffset dx="2.22648" dy="2.22648"/>
<feGaussianBlur stdDeviation="3.33971"/>
<feComposite in2="hardAlpha" operator="arithmetic" k2="-1" k3="1"/>
<feColorMatrix type="matrix" values="0 0 0 0 0 0 0 0 0 0 0 0 0 0 0 0 0 0 0.25 0"/>
<feBlend mode="normal" in2="shape" result="effect1_innerShadow_216_271"/>
</filter>
<filter id="filter29_i_216_271" x="1232.61" y="962.947" width="134.702" height="151.044" filterUnits="userSpaceOnUse" color-interpolation-filters="sRGB">
<feFlood flood-opacity="0" result="BackgroundImageFix"/>
<feBlend mode="normal" in="SourceGraphic" in2="BackgroundImageFix" result="shape"/>
<feColorMatrix in="SourceAlpha" type="matrix" values="0 0 0 0 0 0 0 0 0 0 0 0 0 0 0 0 0 0 127 0" result="hardAlpha"/>
<feOffset dx="2.22648" dy="2.22648"/>
<feGaussianBlur stdDeviation="3.33971"/>
<feComposite in2="hardAlpha" operator="arithmetic" k2="-1" k3="1"/>
<feColorMatrix type="matrix" values="0 0 0 0 0 0 0 0 0 0 0 0 0 0 0 0 0 0 0.25 0"/>
<feBlend mode="normal" in2="shape" result="effect1_innerShadow_216_271"/>
</filter>
<filter id="filter30_i_216_271" x="1074" y="962.947" width="134.702" height="151.044" filterUnits="userSpaceOnUse" color-interpolation-filters="sRGB">
<feFlood flood-opacity="0" result="BackgroundImageFix"/>
<feBlend mode="normal" in="SourceGraphic" in2="BackgroundImageFix" result="shape"/>
<feColorMatrix in="SourceAlpha" type="matrix" values="0 0 0 0 0 0 0 0 0 0 0 0 0 0 0 0 0 0 127 0" result="hardAlpha"/>
<feOffset dx="2.22648" dy="2.22648"/>
<feGaussianBlur stdDeviation="3.33971"/>
<feComposite in2="hardAlpha" operator="arithmetic" k2="-1" k3="1"/>
<feColorMatrix type="matrix" values="0 0 0 0 0 0 0 0 0 0 0 0 0 0 0 0 0 0 0.25 0"/>
<feBlend mode="normal" in2="shape" result="effect1_innerShadow_216_271"/>
</filter>
<filter id="filter31_i_216_271" x="1153.3" y="1099.93" width="134.702" height="151.044" filterUnits="userSpaceOnUse" color-interpolation-filters="sRGB">
<feFlood flood-opacity="0" result="BackgroundImageFix"/>
<feBlend mode="normal" in="SourceGraphic" in2="BackgroundImageFix" result="shape"/>
<feColorMatrix in="SourceAlpha" type="matrix" values="0 0 0 0 0 0 0 0 0 0 0 0 0 0 0 0 0 0 127 0" result="hardAlpha"/>
<feOffset dx="2.22648" dy="2.22648"/>
<feGaussianBlur stdDeviation="3.33971"/>
<feComposite in2="hardAlpha" operator="arithmetic" k2="-1" k3="1"/>
<feColorMatrix type="matrix" values="0 0 0 0 0 0 0 0 0 0 0 0 0 0 0 0 0 0 0.25 0"/>
<feBlend mode="normal" in2="shape" result="effect1_innerShadow_216_271"/>
</filter>
<filter id="filter32_i_216_271" x="1311.91" y="1373.89" width="134.702" height="151.044" filterUnits="userSpaceOnUse" color-interpolation-filters="sRGB">
<feFlood flood-opacity="0" result="BackgroundImageFix"/>
<feBlend mode="normal" in="SourceGraphic" in2="BackgroundImageFix" result="shape"/>
<feColorMatrix in="SourceAlpha" type="matrix" values="0 0 0 0 0 0 0 0 0 0 0 0 0 0 0 0 0 0 127 0" result="hardAlpha"/>
<feOffset dx="2.22648" dy="2.22648"/>
<feGaussianBlur stdDeviation="3.33971"/>
<feComposite in2="hardAlpha" operator="arithmetic" k2="-1" k3="1"/>
<feColorMatrix type="matrix" values="0 0 0 0 0 0 0 0 0 0 0 0 0 0 0 0 0 0 0.25 0"/>
<feBlend mode="normal" in2="shape" result="effect1_innerShadow_216_271"/>
</filter>
<filter id="filter33_i_216_271" x="1232.61" y="1236.91" width="134.702" height="151.044" filterUnits="userSpaceOnUse" color-interpolation-filters="sRGB">
<feFlood flood-opacity="0" result="BackgroundImageFix"/>
<feBlend mode="normal" in="SourceGraphic" in2="BackgroundImageFix" result="shape"/>
<feColorMatrix in="SourceAlpha" type="matrix" values="0 0 0 0 0 0 0 0 0 0 0 0 0 0 0 0 0 0 127 0" result="hardAlpha"/>
<feOffset dx="2.22648" dy="2.22648"/>
<feGaussianBlur stdDeviation="3.33971"/>
<feComposite in2="hardAlpha" operator="arithmetic" k2="-1" k3="1"/>
<feColorMatrix type="matrix" values="0 0 0 0 0 0 0 0 0 0 0 0 0 0 0 0 0 0 0.25 0"/>
<feBlend mode="normal" in2="shape" result="effect1_innerShadow_216_271"/>
</filter>
<linearGradient id="paint0_linear_216_271" x1="56.6099" y1="969.588" x2="189.085" y2="969.588" gradientUnits="userSpaceOnUse">
<stop stop-color="#1A1A1A"/>
<stop offset="1" stop-color="#131313"/>
</linearGradient>
<linearGradient id="paint1_linear_216_271" x1="-22.6951" y1="832.606" x2="109.78" y2="832.606" gradientUnits="userSpaceOnUse">
<stop stop-color="#1A1A1A"/>
<stop offset="1" stop-color="#131313"/>
</linearGradient>
<linearGradient id="paint2_linear_216_271" x1="-102" y1="969.588" x2="30.4753" y2="969.588" gradientUnits="userSpaceOnUse">
<stop stop-color="#1A1A1A"/>
<stop offset="1" stop-color="#131313"/>
</linearGradient>
<linearGradient id="paint3_linear_216_271" x1="56.6099" y1="695.625" x2="189.085" y2="695.625" gradientUnits="userSpaceOnUse">
<stop stop-color="#1A1A1A"/>
<stop offset="1" stop-color="#131313"/>
</linearGradient>
<linearGradient id="paint4_linear_216_271" x1="-22.6951" y1="558.644" x2="109.78" y2="558.644" gradientUnits="userSpaceOnUse">
<stop stop-color="#1A1A1A"/>
<stop offset="1" stop-color="#131313"/>
</linearGradient>
<linearGradient id="paint5_linear_216_271" x1="-102" y1="695.625" x2="30.4753" y2="695.625" gradientUnits="userSpaceOnUse">
<stop stop-color="#1A1A1A"/>
<stop offset="1" stop-color="#131313"/>
</linearGradient>
<linearGradient id="paint6_linear_216_271" x1="56.6099" y1="421.663" x2="189.085" y2="421.663" gradientUnits="userSpaceOnUse">
<stop stop-color="#1A1A1A"/>
<stop offset="1" stop-color="#131313"/>
</linearGradient>
<linearGradient id="paint7_linear_216_271" x1="-22.6951" y1="284.682" x2="109.78" y2="284.682" gradientUnits="userSpaceOnUse">
<stop stop-color="#1A1A1A"/>
<stop offset="1" stop-color="#131313"/>
</linearGradient>
<linearGradient id="paint8_linear_216_271" x1="-102" y1="421.663" x2="30.4753" y2="421.663" gradientUnits="userSpaceOnUse">
<stop stop-color="#1A1A1A"/>
<stop offset="1" stop-color="#131313"/>
</linearGradient>
<linearGradient id="paint9_linear_216_271" x1="135.915" y1="558.644" x2="268.39" y2="558.644" gradientUnits="userSpaceOnUse">
<stop stop-color="#1A1A1A"/>
<stop offset="1" stop-color="#131313"/>
</linearGradient>
<linearGradient id="paint10_linear_216_271" x1="294.525" y1="558.644" x2="427" y2="558.644" gradientUnits="userSpaceOnUse">
<stop stop-color="#1A1A1A"/>
<stop offset="1" stop-color="#131313"/>
</linearGradient>
<linearGradient id="paint11_linear_216_271" x1="215.22" y1="421.663" x2="347.695" y2="421.663" gradientUnits="userSpaceOnUse">
<stop stop-color="#1A1A1A"/>
<stop offset="1" stop-color="#131313"/>
</linearGradient>
<linearGradient id="paint12_linear_216_271" x1="56.6099" y1="147.7" x2="189.085" y2="147.7" gradientUnits="userSpaceOnUse">
<stop stop-color="#1A1A1A"/>
<stop offset="1" stop-color="#131313"/>
</linearGradient>
<linearGradient id="paint13_linear_216_271" x1="-102" y1="147.7" x2="30.4753" y2="147.7" gradientUnits="userSpaceOnUse">
<stop stop-color="#1A1A1A"/>
<stop offset="1" stop-color="#131313"/>
</linearGradient>
<linearGradient id="paint14_linear_216_271" x1="135.915" y1="284.682" x2="268.39" y2="284.682" gradientUnits="userSpaceOnUse">
<stop stop-color="#1A1A1A"/>
<stop offset="1" stop-color="#131313"/>
</linearGradient>
<linearGradient id="paint15_linear_216_271" x1="1444.39" y1="626.412" x2="1311.91" y2="626.412" gradientUnits="userSpaceOnUse">
<stop stop-color="#1A1A1A"/>
<stop offset="1" stop-color="#131313"/>
</linearGradient>
<linearGradient id="paint16_linear_216_271" x1="1523.7" y1="763.394" x2="1391.22" y2="763.394" gradientUnits="userSpaceOnUse">
<stop stop-color="#1A1A1A"/>
<stop offset="1" stop-color="#131313"/>
</linearGradient>
<linearGradient id="paint17_linear_216_271" x1="1444.39" y1="900.374" x2="1311.91" y2="900.374" gradientUnits="userSpaceOnUse">
<stop stop-color="#1A1A1A"/>
<stop offset="1" stop-color="#131313"/>
</linearGradient>
<linearGradient id="paint18_linear_216_271" x1="1523.7" y1="1037.36" x2="1391.22" y2="1037.36" gradientUnits="userSpaceOnUse">
<stop stop-color="#1A1A1A"/>
<stop offset="1" stop-color="#131313"/>
</linearGradient>
<linearGradient id="paint19_linear_216_271" x1="1444.39" y1="1174.34" x2="1311.91" y2="1174.34" gradientUnits="userSpaceOnUse">
<stop stop-color="#1A1A1A"/>
<stop offset="1" stop-color="#131313"/>
</linearGradient>
<linearGradient id="paint20_linear_216_271" x1="1523.7" y1="1311.32" x2="1391.22" y2="1311.32" gradientUnits="userSpaceOnUse">
<stop stop-color="#1A1A1A"/>
<stop offset="1" stop-color="#131313"/>
</linearGradient>
<linearGradient id="paint21_linear_216_271" x1="1365.09" y1="1037.36" x2="1232.61" y2="1037.36" gradientUnits="userSpaceOnUse">
<stop stop-color="#1A1A1A"/>
<stop offset="1" stop-color="#131313"/>
</linearGradient>
<linearGradient id="paint22_linear_216_271" x1="1206.48" y1="1037.36" x2="1074" y2="1037.36" gradientUnits="userSpaceOnUse">
<stop stop-color="#1A1A1A"/>
<stop offset="1" stop-color="#131313"/>
</linearGradient>
<linearGradient id="paint23_linear_216_271" x1="1285.78" y1="1174.34" x2="1153.3" y2="1174.34" gradientUnits="userSpaceOnUse">
<stop stop-color="#1A1A1A"/>
<stop offset="1" stop-color="#131313"/>
</linearGradient>
<linearGradient id="paint24_linear_216_271" x1="1444.39" y1="1448.3" x2="1311.91" y2="1448.3" gradientUnits="userSpaceOnUse">
<stop stop-color="#1A1A1A"/>
<stop offset="1" stop-color="#131313"/>
</linearGradient>
<linearGradient id="paint25_linear_216_271" x1="1365.09" y1="1311.32" x2="1232.61" y2="1311.32" gradientUnits="userSpaceOnUse">
<stop stop-color="#1A1A1A"/>
<stop offset="1" stop-color="#131313"/>
</linearGradient>
<clipPath id="clip0_216_271">
<rect width="1134" height="412.5" fill="white" transform="matrix(0 -1 1 0 -85 1134)"/>
</clipPath>
<clipPath id="clip1_216_271">
<rect width="1134" height="412.5" fill="white" transform="matrix(0 1 -1 0 1556 462)"/>
</clipPath>
</defs>
</svg>
