<svg xmlns="http://www.w3.org/2000/svg" width="1440" height="1596" fill="none"><g clip-path="url(#a)"><g filter="url(#b)"><ellipse cx="-79.595" cy="426.73" fill="#00FFC2" rx="224.344" ry="51.794" transform="rotate(-90 -79.595 426.73)"/></g><g filter="url(#c)"><ellipse cx="-48.386" cy="560.866" fill="#00FFC2" rx="224.344" ry="98.754" transform="rotate(-90 -48.386 560.866)"/></g><g filter="url(#d)"><ellipse cx="-64.477" cy="736.576" fill="#00FFC2" rx="224.344" ry="66.987" transform="rotate(-90 -64.477 736.576)"/></g></g><g filter="url(#e)"><g filter="url(#f)"><path fill="url(#g)" d="m61.273 1011.12 57.757 31.76a8.98 8.98 0 0 0 8.731-.03l56.718-31.72a9.007 9.007 0 0 0 4.606-7.86v-67.367a9 9 0 0 0-4.606-7.855l-56.718-31.724a9.004 9.004 0 0 0-8.731-.031L61.273 928.06a9 9 0 0 0-4.663 7.886v67.284c0 3.28 1.787 6.3 4.663 7.89Z"/></g><g filter="url(#h)"><path fill="url(#i)" d="m-18.032 874.134 57.757 31.767a9 9 0 0 0 8.73-.031l56.719-31.724a9 9 0 0 0 4.606-7.854v-67.371a9 9 0 0 0-4.606-7.854l-56.718-31.724a9 9 0 0 0-8.73-.031l-57.758 31.767a8.998 8.998 0 0 0-4.663 7.886v67.283a8.998 8.998 0 0 0 4.663 7.886Z"/></g><g filter="url(#j)"><path fill="url(#k)" d="m-97.337 1011.12 57.757 31.76a8.98 8.98 0 0 0 8.731-.03l56.718-31.72a9.006 9.006 0 0 0 4.606-7.86v-67.367a9 9 0 0 0-4.606-7.855l-56.718-31.724a9.003 9.003 0 0 0-8.73-.031l-57.758 31.767a9.001 9.001 0 0 0-4.663 7.886v67.284a9.02 9.02 0 0 0 4.663 7.89Z"/></g><g filter="url(#l)"><path fill="url(#m)" d="m61.273 737.153 57.757 31.767a9.004 9.004 0 0 0 8.731-.031l56.718-31.724a9 9 0 0 0 4.606-7.855v-67.37a9.001 9.001 0 0 0-4.606-7.855l-56.718-31.723a8.998 8.998 0 0 0-8.731-.031l-57.757 31.766a9 9 0 0 0-4.663 7.886v67.284a9 9 0 0 0 4.663 7.886Z"/></g><g filter="url(#n)"><path fill="url(#o)" d="m-18.032 600.172 57.757 31.767a9 9 0 0 0 8.73-.032l56.719-31.723a9.001 9.001 0 0 0 4.606-7.855v-67.37a9.001 9.001 0 0 0-4.606-7.855l-56.718-31.723a8.998 8.998 0 0 0-8.73-.031l-57.758 31.766a9 9 0 0 0-4.663 7.886v67.284a9 9 0 0 0 4.663 7.886Z"/></g><g filter="url(#p)"><path fill="url(#q)" d="m-97.337 737.153 57.757 31.767a9.003 9.003 0 0 0 8.731-.031l56.718-31.724a9 9 0 0 0 4.606-7.855v-67.37a9 9 0 0 0-4.606-7.855l-56.718-31.723a8.998 8.998 0 0 0-8.73-.031l-57.758 31.766a9.001 9.001 0 0 0-4.663 7.886v67.284a9.001 9.001 0 0 0 4.663 7.886Z"/></g><g filter="url(#r)"><path fill="url(#s)" d="m61.273 463.19 57.757 31.767a8.998 8.998 0 0 0 8.731-.031l56.718-31.723a9.001 9.001 0 0 0 4.606-7.855v-67.37a9 9 0 0 0-4.606-7.855l-56.718-31.724a9.001 9.001 0 0 0-8.731-.031l-57.757 31.767a9 9 0 0 0-4.663 7.886v67.284a8.998 8.998 0 0 0 4.663 7.885Z"/></g><g filter="url(#t)"><path fill="url(#u)" d="m-18.032 326.209 57.757 31.767a8.998 8.998 0 0 0 8.73-.031l56.719-31.723a9.001 9.001 0 0 0 4.606-7.855v-67.37a9 9 0 0 0-4.606-7.855l-56.718-31.724a9.003 9.003 0 0 0-8.73-.031l-57.758 31.767a9 9 0 0 0-4.663 7.886v67.284a8.998 8.998 0 0 0 4.663 7.885Z"/></g><g filter="url(#v)"><path fill="url(#w)" d="m-97.337 463.19 57.757 31.767a8.998 8.998 0 0 0 8.731-.031l56.718-31.723a9 9 0 0 0 4.606-7.855v-67.37a9 9 0 0 0-4.606-7.855l-56.718-31.724a9 9 0 0 0-8.73-.031l-57.758 31.767a9.001 9.001 0 0 0-4.663 7.886v67.284a8.998 8.998 0 0 0 4.663 7.885Z"/></g><g filter="url(#x)"><path fill="url(#y)" d="m140.578 600.172 57.757 31.767a9.001 9.001 0 0 0 8.731-.032l56.717-31.723a9 9 0 0 0 4.607-7.855v-67.37a9 9 0 0 0-4.607-7.855l-56.717-31.723a8.998 8.998 0 0 0-8.731-.031l-57.757 31.766a9 9 0 0 0-4.663 7.886v67.284a9 9 0 0 0 4.663 7.886Z"/></g><g filter="url(#z)"><path fill="url(#A)" d="m299.187 600.172 57.758 31.767a9.001 9.001 0 0 0 8.731-.032l56.717-31.723a9 9 0 0 0 4.607-7.855v-67.37a9 9 0 0 0-4.607-7.855l-56.717-31.723a8.998 8.998 0 0 0-8.731-.031l-57.758 31.766a9 9 0 0 0-4.662 7.886v67.284a9 9 0 0 0 4.662 7.886Z"/></g><g filter="url(#B)"><path fill="url(#C)" d="m219.882 463.19 57.758 31.767a8.998 8.998 0 0 0 8.731-.031l56.717-31.723a9 9 0 0 0 4.607-7.855v-67.37a8.999 8.999 0 0 0-4.607-7.855l-56.717-31.724a9.001 9.001 0 0 0-8.731-.031l-57.758 31.767a9.002 9.002 0 0 0-4.662 7.886v67.284a9 9 0 0 0 4.662 7.885Z"/></g><g filter="url(#D)"><path fill="url(#E)" d="m61.273 189.228 57.757 31.767a9.004 9.004 0 0 0 8.731-.031l56.718-31.724a9 9 0 0 0 4.606-7.855v-67.37a9.001 9.001 0 0 0-4.606-7.855l-56.718-31.723a9 9 0 0 0-8.731-.031l-57.757 31.766a9 9 0 0 0-4.663 7.886v67.284a9 9 0 0 0 4.663 7.886Z"/></g><g filter="url(#F)"><path fill="url(#G)" d="m-97.337 189.228 57.757 31.767a9.003 9.003 0 0 0 8.731-.031l56.718-31.724a9 9 0 0 0 4.606-7.855v-67.37a9 9 0 0 0-4.606-7.855L-30.85 74.437a9 9 0 0 0-8.73-.031l-57.758 31.766a9.001 9.001 0 0 0-4.663 7.886v67.284a9.001 9.001 0 0 0 4.663 7.886Z"/></g><g filter="url(#H)"><path fill="url(#I)" d="m140.578 326.209 57.757 31.767a8.998 8.998 0 0 0 8.731-.031l56.717-31.723a9 9 0 0 0 4.607-7.855v-67.37a8.999 8.999 0 0 0-4.607-7.855l-56.717-31.724a9.004 9.004 0 0 0-8.731-.031l-57.757 31.767a9 9 0 0 0-4.663 7.886v67.284a8.998 8.998 0 0 0 4.663 7.885Z"/></g></g><g clip-path="url(#J)"><g filter="url(#K)"><ellipse cx="1550.59" cy="1169.27" fill="#00FFC2" rx="224.344" ry="51.794" transform="rotate(90 1550.59 1169.27)"/></g><g filter="url(#L)"><ellipse cx="1519.39" cy="1035.13" fill="#00FFC2" rx="224.344" ry="98.754" transform="rotate(90 1519.39 1035.13)"/></g><g filter="url(#M)"><ellipse cx="1535.48" cy="859.425" fill="#00FFC2" rx="224.344" ry="66.987" transform="rotate(90 1535.48 859.425)"/></g></g><g filter="url(#N)"><g filter="url(#O)"><path fill="url(#P)" d="m1439.73 584.884-57.76-31.766a8.997 8.997 0 0 0-8.73.031l-56.72 31.723a9.013 9.013 0 0 0-4.61 7.855v67.37a9.013 9.013 0 0 0 4.61 7.855l56.72 31.723a9 9 0 0 0 8.73.032l57.76-31.767a9.01 9.01 0 0 0 4.66-7.886V592.77a9.01 9.01 0 0 0-4.66-7.886Z"/></g><g filter="url(#Q)"><path fill="url(#R)" d="m1519.03 721.866-57.76-31.767a9 9 0 0 0-8.73.031l-56.71 31.724a8.991 8.991 0 0 0-4.61 7.854v67.371a8.991 8.991 0 0 0 4.61 7.854l56.71 31.724a9 9 0 0 0 8.73.031l57.76-31.767a8.997 8.997 0 0 0 4.67-7.886v-67.283a8.997 8.997 0 0 0-4.67-7.886Z"/></g><g filter="url(#S)"><path fill="url(#T)" d="m1439.73 858.847-57.76-31.767a9 9 0 0 0-8.73.031l-56.72 31.724a9.011 9.011 0 0 0-4.61 7.854v67.371a9.011 9.011 0 0 0 4.61 7.854l56.72 31.724a9 9 0 0 0 8.73.031l57.76-31.767a9.008 9.008 0 0 0 4.66-7.886v-67.283a9.008 9.008 0 0 0-4.66-7.886Z"/></g><g filter="url(#U)"><path fill="url(#V)" d="m1519.03 995.828-57.76-31.767a9 9 0 0 0-8.73.032l-56.71 31.723a8.99 8.99 0 0 0-4.61 7.854v67.37a9.01 9.01 0 0 0 4.61 7.86l56.71 31.72a8.978 8.978 0 0 0 8.73.03l57.76-31.77a8.99 8.99 0 0 0 4.67-7.88v-67.29c0-3.28-1.79-6.3-4.67-7.882Z"/></g><g filter="url(#W)"><path fill="url(#X)" d="m1439.73 1132.81-57.76-31.77a9.03 9.03 0 0 0-8.73.03l-56.72 31.73a9.003 9.003 0 0 0-4.61 7.85v67.37c0 3.26 1.77 6.27 4.61 7.86l56.72 31.72a8.978 8.978 0 0 0 8.73.03l57.76-31.77a9 9 0 0 0 4.66-7.88v-67.28c0-3.29-1.79-6.31-4.66-7.89Z"/></g><g filter="url(#Y)"><path fill="url(#Z)" d="m1519.03 1269.79-57.76-31.77a9.03 9.03 0 0 0-8.73.03l-56.71 31.73a8.982 8.982 0 0 0-4.61 7.85V1345c0 3.26 1.76 6.27 4.61 7.86l56.71 31.72a8.978 8.978 0 0 0 8.73.03l57.76-31.76a9.017 9.017 0 0 0 4.67-7.89v-67.28c0-3.29-1.79-6.31-4.67-7.89Z"/></g><g filter="url(#aa)"><path fill="url(#ab)" d="m1360.42 995.828-57.76-31.767a9 9 0 0 0-8.73.032l-56.71 31.723a8.99 8.99 0 0 0-4.61 7.854v67.37a9.01 9.01 0 0 0 4.61 7.86l56.71 31.72a8.978 8.978 0 0 0 8.73.03l57.76-31.77a8.99 8.99 0 0 0 4.67-7.88v-67.29c0-3.28-1.79-6.3-4.67-7.882Z"/></g><g filter="url(#ac)"><path fill="url(#ad)" d="m1201.81 995.828-57.75-31.767a9.018 9.018 0 0 0-8.74.032l-56.71 31.723a8.99 8.99 0 0 0-4.61 7.854v67.37a9.01 9.01 0 0 0 4.61 7.86l56.71 31.72a8.998 8.998 0 0 0 8.74.03l57.75-31.77a8.99 8.99 0 0 0 4.67-7.88v-67.29c0-3.28-1.79-6.3-4.67-7.882Z"/></g><g filter="url(#ae)"><path fill="url(#af)" d="m1281.12 1132.81-57.76-31.77a9.03 9.03 0 0 0-8.73.03l-56.72 31.73a9.003 9.003 0 0 0-4.61 7.85v67.37c0 3.26 1.77 6.27 4.61 7.86l56.72 31.72a8.978 8.978 0 0 0 8.73.03l57.76-31.77a9 9 0 0 0 4.66-7.88v-67.28c0-3.29-1.79-6.31-4.66-7.89Z"/></g><g filter="url(#ag)"><path fill="url(#ah)" d="m1439.73 1406.77-57.76-31.76a8.978 8.978 0 0 0-8.73.03l-56.72 31.72a9.015 9.015 0 0 0-4.61 7.85v67.37c0 3.26 1.77 6.27 4.61 7.86l56.72 31.72a8.978 8.978 0 0 0 8.73.03l57.76-31.76a9.016 9.016 0 0 0 4.66-7.89v-67.28c0-3.28-1.79-6.31-4.66-7.89Z"/></g><g filter="url(#ai)"><path fill="url(#aj)" d="m1360.42 1269.79-57.76-31.77a9.03 9.03 0 0 0-8.73.03l-56.71 31.73a8.982 8.982 0 0 0-4.61 7.85V1345c0 3.26 1.76 6.27 4.61 7.86l56.71 31.72a8.978 8.978 0 0 0 8.73.03l57.76-31.76a9.017 9.017 0 0 0 4.67-7.89v-67.28c0-3.29-1.79-6.31-4.67-7.89Z"/></g></g><defs><filter id="b" width="457.829" height="802.929" x="-308.509" y="25.265" color-interpolation-filters="sRGB" filterUnits="userSpaceOnUse"><feFlood flood-opacity="0" result="BackgroundImageFix"/><feBlend in="SourceGraphic" in2="BackgroundImageFix" result="shape"/><feGaussianBlur result="effect1_foregroundBlur_216_271" stdDeviation="88.56"/></filter><filter id="c" width="551.749" height="802.929" x="-324.26" y="159.402" color-interpolation-filters="sRGB" filterUnits="userSpaceOnUse"><feFlood flood-opacity="0" result="BackgroundImageFix"/><feBlend in="SourceGraphic" in2="BackgroundImageFix" result="shape"/><feGaussianBlur result="effect1_foregroundBlur_216_271" stdDeviation="88.56"/></filter><filter id="d" width="488.215" height="802.929" x="-308.584" y="335.111" color-interpolation-filters="sRGB" filterUnits="userSpaceOnUse"><feFlood flood-opacity="0" result="BackgroundImageFix"/><feBlend in="SourceGraphic" in2="BackgroundImageFix" result="shape"/><feGaussianBlur result="effect1_foregroundBlur_216_271" stdDeviation="88.56"/></filter><filter id="e" width="537" height="981.705" x="-106" y="73.291" color-interpolation-filters="sRGB" filterUnits="userSpaceOnUse"><feFlood flood-opacity="0" result="BackgroundImageFix"/><feColorMatrix in="SourceAlpha" result="hardAlpha" values="0 0 0 0 0 0 0 0 0 0 0 0 0 0 0 0 0 0 127 0"/><feOffset dy="7"/><feGaussianBlur stdDeviation="2"/><feComposite in2="hardAlpha" operator="out"/><feColorMatrix values="0 0 0 0 0 0 0 0 0 0 0 0 0 0 0 0 0 0 0.15 0"/><feBlend in2="BackgroundImageFix" result="effect1_dropShadow_216_271"/><feBlend in="SourceGraphic" in2="effect1_dropShadow_216_271" result="shape"/><feColorMatrix in="SourceAlpha" result="hardAlpha" values="0 0 0 0 0 0 0 0 0 0 0 0 0 0 0 0 0 0 127 0"/><feOffset dy="2"/><feGaussianBlur stdDeviation="2"/><feComposite in2="hardAlpha" k2="-1" k3="1" operator="arithmetic"/><feColorMatrix values="0 0 0 0 1 0 0 0 0 1 0 0 0 0 1 0 0 0 0.08 0"/><feBlend in2="shape" result="effect2_innerShadow_216_271"/><feColorMatrix in="SourceAlpha" result="hardAlpha" values="0 0 0 0 0 0 0 0 0 0 0 0 0 0 0 0 0 0 127 0"/><feOffset dy="1"/><feGaussianBlur stdDeviation="1"/><feComposite in2="hardAlpha" k2="-1" k3="1" operator="arithmetic"/><feColorMatrix values="0 0 0 0 1 0 0 0 0 1 0 0 0 0 1 0 0 0 0.02 0"/><feBlend in2="effect2_innerShadow_216_271" result="effect3_innerShadow_216_271"/></filter><filter id="f" width="134.702" height="151.044" x="56.61" y="895.179" color-interpolation-filters="sRGB" filterUnits="userSpaceOnUse"><feFlood flood-opacity="0" result="BackgroundImageFix"/><feBlend in="SourceGraphic" in2="BackgroundImageFix" result="shape"/><feColorMatrix in="SourceAlpha" result="hardAlpha" values="0 0 0 0 0 0 0 0 0 0 0 0 0 0 0 0 0 0 127 0"/><feOffset dx="2.226" dy="2.226"/><feGaussianBlur stdDeviation="3.34"/><feComposite in2="hardAlpha" k2="-1" k3="1" operator="arithmetic"/><feColorMatrix values="0 0 0 0 0 0 0 0 0 0 0 0 0 0 0 0 0 0 0.25 0"/><feBlend in2="shape" result="effect1_innerShadow_216_271"/></filter><filter id="h" width="134.702" height="151.044" x="-22.695" y="758.198" color-interpolation-filters="sRGB" filterUnits="userSpaceOnUse"><feFlood flood-opacity="0" result="BackgroundImageFix"/><feBlend in="SourceGraphic" in2="BackgroundImageFix" result="shape"/><feColorMatrix in="SourceAlpha" result="hardAlpha" values="0 0 0 0 0 0 0 0 0 0 0 0 0 0 0 0 0 0 127 0"/><feOffset dx="2.226" dy="2.226"/><feGaussianBlur stdDeviation="3.34"/><feComposite in2="hardAlpha" k2="-1" k3="1" operator="arithmetic"/><feColorMatrix values="0 0 0 0 0 0 0 0 0 0 0 0 0 0 0 0 0 0 0.25 0"/><feBlend in2="shape" result="effect1_innerShadow_216_271"/></filter><filter id="j" width="134.702" height="151.044" x="-102" y="895.179" color-interpolation-filters="sRGB" filterUnits="userSpaceOnUse"><feFlood flood-opacity="0" result="BackgroundImageFix"/><feBlend in="SourceGraphic" in2="BackgroundImageFix" result="shape"/><feColorMatrix in="SourceAlpha" result="hardAlpha" values="0 0 0 0 0 0 0 0 0 0 0 0 0 0 0 0 0 0 127 0"/><feOffset dx="2.226" dy="2.226"/><feGaussianBlur stdDeviation="3.34"/><feComposite in2="hardAlpha" k2="-1" k3="1" operator="arithmetic"/><feColorMatrix values="0 0 0 0 0 0 0 0 0 0 0 0 0 0 0 0 0 0 0.25 0"/><feBlend in2="shape" result="effect1_innerShadow_216_271"/></filter><filter id="l" width="134.702" height="151.044" x="56.61" y="621.217" color-interpolation-filters="sRGB" filterUnits="userSpaceOnUse"><feFlood flood-opacity="0" result="BackgroundImageFix"/><feBlend in="SourceGraphic" in2="BackgroundImageFix" result="shape"/><feColorMatrix in="SourceAlpha" result="hardAlpha" values="0 0 0 0 0 0 0 0 0 0 0 0 0 0 0 0 0 0 127 0"/><feOffset dx="2.226" dy="2.226"/><feGaussianBlur stdDeviation="3.34"/><feComposite in2="hardAlpha" k2="-1" k3="1" operator="arithmetic"/><feColorMatrix values="0 0 0 0 0 0 0 0 0 0 0 0 0 0 0 0 0 0 0.25 0"/><feBlend in2="shape" result="effect1_innerShadow_216_271"/></filter><filter id="n" width="134.702" height="151.044" x="-22.695" y="484.235" color-interpolation-filters="sRGB" filterUnits="userSpaceOnUse"><feFlood flood-opacity="0" result="BackgroundImageFix"/><feBlend in="SourceGraphic" in2="BackgroundImageFix" result="shape"/><feColorMatrix in="SourceAlpha" result="hardAlpha" values="0 0 0 0 0 0 0 0 0 0 0 0 0 0 0 0 0 0 127 0"/><feOffset dx="2.226" dy="2.226"/><feGaussianBlur stdDeviation="3.34"/><feComposite in2="hardAlpha" k2="-1" k3="1" operator="arithmetic"/><feColorMatrix values="0 0 0 0 0 0 0 0 0 0 0 0 0 0 0 0 0 0 0.25 0"/><feBlend in2="shape" result="effect1_innerShadow_216_271"/></filter><filter id="p" width="134.702" height="151.044" x="-102" y="621.217" color-interpolation-filters="sRGB" filterUnits="userSpaceOnUse"><feFlood flood-opacity="0" result="BackgroundImageFix"/><feBlend in="SourceGraphic" in2="BackgroundImageFix" result="shape"/><feColorMatrix in="SourceAlpha" result="hardAlpha" values="0 0 0 0 0 0 0 0 0 0 0 0 0 0 0 0 0 0 127 0"/><feOffset dx="2.226" dy="2.226"/><feGaussianBlur stdDeviation="3.34"/><feComposite in2="hardAlpha" k2="-1" k3="1" operator="arithmetic"/><feColorMatrix values="0 0 0 0 0 0 0 0 0 0 0 0 0 0 0 0 0 0 0.25 0"/><feBlend in2="shape" result="effect1_innerShadow_216_271"/></filter><filter id="r" width="134.702" height="151.044" x="56.61" y="347.254" color-interpolation-filters="sRGB" filterUnits="userSpaceOnUse"><feFlood flood-opacity="0" result="BackgroundImageFix"/><feBlend in="SourceGraphic" in2="BackgroundImageFix" result="shape"/><feColorMatrix in="SourceAlpha" result="hardAlpha" values="0 0 0 0 0 0 0 0 0 0 0 0 0 0 0 0 0 0 127 0"/><feOffset dx="2.226" dy="2.226"/><feGaussianBlur stdDeviation="3.34"/><feComposite in2="hardAlpha" k2="-1" k3="1" operator="arithmetic"/><feColorMatrix values="0 0 0 0 0 0 0 0 0 0 0 0 0 0 0 0 0 0 0.25 0"/><feBlend in2="shape" result="effect1_innerShadow_216_271"/></filter><filter id="t" width="134.702" height="151.044" x="-22.695" y="210.273" color-interpolation-filters="sRGB" filterUnits="userSpaceOnUse"><feFlood flood-opacity="0" result="BackgroundImageFix"/><feBlend in="SourceGraphic" in2="BackgroundImageFix" result="shape"/><feColorMatrix in="SourceAlpha" result="hardAlpha" values="0 0 0 0 0 0 0 0 0 0 0 0 0 0 0 0 0 0 127 0"/><feOffset dx="2.226" dy="2.226"/><feGaussianBlur stdDeviation="3.34"/><feComposite in2="hardAlpha" k2="-1" k3="1" operator="arithmetic"/><feColorMatrix values="0 0 0 0 0 0 0 0 0 0 0 0 0 0 0 0 0 0 0.25 0"/><feBlend in2="shape" result="effect1_innerShadow_216_271"/></filter><filter id="v" width="134.702" height="151.044" x="-102" y="347.254" color-interpolation-filters="sRGB" filterUnits="userSpaceOnUse"><feFlood flood-opacity="0" result="BackgroundImageFix"/><feBlend in="SourceGraphic" in2="BackgroundImageFix" result="shape"/><feColorMatrix in="SourceAlpha" result="hardAlpha" values="0 0 0 0 0 0 0 0 0 0 0 0 0 0 0 0 0 0 127 0"/><feOffset dx="2.226" dy="2.226"/><feGaussianBlur stdDeviation="3.34"/><feComposite in2="hardAlpha" k2="-1" k3="1" operator="arithmetic"/><feColorMatrix values="0 0 0 0 0 0 0 0 0 0 0 0 0 0 0 0 0 0 0.25 0"/><feBlend in2="shape" result="effect1_innerShadow_216_271"/></filter><filter id="x" width="134.702" height="151.044" x="135.915" y="484.235" color-interpolation-filters="sRGB" filterUnits="userSpaceOnUse"><feFlood flood-opacity="0" result="BackgroundImageFix"/><feBlend in="SourceGraphic" in2="BackgroundImageFix" result="shape"/><feColorMatrix in="SourceAlpha" result="hardAlpha" values="0 0 0 0 0 0 0 0 0 0 0 0 0 0 0 0 0 0 127 0"/><feOffset dx="2.226" dy="2.226"/><feGaussianBlur stdDeviation="3.34"/><feComposite in2="hardAlpha" k2="-1" k3="1" operator="arithmetic"/><feColorMatrix values="0 0 0 0 0 0 0 0 0 0 0 0 0 0 0 0 0 0 0.25 0"/><feBlend in2="shape" result="effect1_innerShadow_216_271"/></filter><filter id="z" width="134.702" height="151.044" x="294.525" y="484.235" color-interpolation-filters="sRGB" filterUnits="userSpaceOnUse"><feFlood flood-opacity="0" result="BackgroundImageFix"/><feBlend in="SourceGraphic" in2="BackgroundImageFix" result="shape"/><feColorMatrix in="SourceAlpha" result="hardAlpha" values="0 0 0 0 0 0 0 0 0 0 0 0 0 0 0 0 0 0 127 0"/><feOffset dx="2.226" dy="2.226"/><feGaussianBlur stdDeviation="3.34"/><feComposite in2="hardAlpha" k2="-1" k3="1" operator="arithmetic"/><feColorMatrix values="0 0 0 0 0 0 0 0 0 0 0 0 0 0 0 0 0 0 0.25 0"/><feBlend in2="shape" result="effect1_innerShadow_216_271"/></filter><filter id="B" width="134.702" height="151.044" x="215.22" y="347.254" color-interpolation-filters="sRGB" filterUnits="userSpaceOnUse"><feFlood flood-opacity="0" result="BackgroundImageFix"/><feBlend in="SourceGraphic" in2="BackgroundImageFix" result="shape"/><feColorMatrix in="SourceAlpha" result="hardAlpha" values="0 0 0 0 0 0 0 0 0 0 0 0 0 0 0 0 0 0 127 0"/><feOffset dx="2.226" dy="2.226"/><feGaussianBlur stdDeviation="3.34"/><feComposite in2="hardAlpha" k2="-1" k3="1" operator="arithmetic"/><feColorMatrix values="0 0 0 0 0 0 0 0 0 0 0 0 0 0 0 0 0 0 0.25 0"/><feBlend in2="shape" result="effect1_innerShadow_216_271"/></filter><filter id="D" width="134.702" height="151.044" x="56.61" y="73.291" color-interpolation-filters="sRGB" filterUnits="userSpaceOnUse"><feFlood flood-opacity="0" result="BackgroundImageFix"/><feBlend in="SourceGraphic" in2="BackgroundImageFix" result="shape"/><feColorMatrix in="SourceAlpha" result="hardAlpha" values="0 0 0 0 0 0 0 0 0 0 0 0 0 0 0 0 0 0 127 0"/><feOffset dx="2.226" dy="2.226"/><feGaussianBlur stdDeviation="3.34"/><feComposite in2="hardAlpha" k2="-1" k3="1" operator="arithmetic"/><feColorMatrix values="0 0 0 0 0 0 0 0 0 0 0 0 0 0 0 0 0 0 0.25 0"/><feBlend in2="shape" result="effect1_innerShadow_216_271"/></filter><filter id="F" width="134.702" height="151.044" x="-102" y="73.291" color-interpolation-filters="sRGB" filterUnits="userSpaceOnUse"><feFlood flood-opacity="0" result="BackgroundImageFix"/><feBlend in="SourceGraphic" in2="BackgroundImageFix" result="shape"/><feColorMatrix in="SourceAlpha" result="hardAlpha" values="0 0 0 0 0 0 0 0 0 0 0 0 0 0 0 0 0 0 127 0"/><feOffset dx="2.226" dy="2.226"/><feGaussianBlur stdDeviation="3.34"/><feComposite in2="hardAlpha" k2="-1" k3="1" operator="arithmetic"/><feColorMatrix values="0 0 0 0 0 0 0 0 0 0 0 0 0 0 0 0 0 0 0.25 0"/><feBlend in2="shape" result="effect1_innerShadow_216_271"/></filter><filter id="H" width="134.702" height="151.044" x="135.915" y="210.273" color-interpolation-filters="sRGB" filterUnits="userSpaceOnUse"><feFlood flood-opacity="0" result="BackgroundImageFix"/><feBlend in="SourceGraphic" in2="BackgroundImageFix" result="shape"/><feColorMatrix in="SourceAlpha" result="hardAlpha" values="0 0 0 0 0 0 0 0 0 0 0 0 0 0 0 0 0 0 127 0"/><feOffset dx="2.226" dy="2.226"/><feGaussianBlur stdDeviation="3.34"/><feComposite in2="hardAlpha" k2="-1" k3="1" operator="arithmetic"/><feColorMatrix values="0 0 0 0 0 0 0 0 0 0 0 0 0 0 0 0 0 0 0.25 0"/><feBlend in2="shape" result="effect1_innerShadow_216_271"/></filter><filter id="K" width="457.829" height="802.929" x="1321.68" y="767.806" color-interpolation-filters="sRGB" filterUnits="userSpaceOnUse"><feFlood flood-opacity="0" result="BackgroundImageFix"/><feBlend in="SourceGraphic" in2="BackgroundImageFix" result="shape"/><feGaussianBlur result="effect1_foregroundBlur_216_271" stdDeviation="88.56"/></filter><filter id="L" width="551.749" height="802.929" x="1243.51" y="633.669" color-interpolation-filters="sRGB" filterUnits="userSpaceOnUse"><feFlood flood-opacity="0" result="BackgroundImageFix"/><feBlend in="SourceGraphic" in2="BackgroundImageFix" result="shape"/><feGaussianBlur result="effect1_foregroundBlur_216_271" stdDeviation="88.56"/></filter><filter id="M" width="488.215" height="802.929" x="1291.37" y="457.96" color-interpolation-filters="sRGB" filterUnits="userSpaceOnUse"><feFlood flood-opacity="0" result="BackgroundImageFix"/><feBlend in="SourceGraphic" in2="BackgroundImageFix" result="shape"/><feGaussianBlur result="effect1_foregroundBlur_216_271" stdDeviation="88.56"/></filter><filter id="N" width="537" height="981.705" x="1070" y="552.003" color-interpolation-filters="sRGB" filterUnits="userSpaceOnUse"><feFlood flood-opacity="0" result="BackgroundImageFix"/><feColorMatrix in="SourceAlpha" result="hardAlpha" values="0 0 0 0 0 0 0 0 0 0 0 0 0 0 0 0 0 0 127 0"/><feOffset dy="7"/><feGaussianBlur stdDeviation="2"/><feComposite in2="hardAlpha" operator="out"/><feColorMatrix values="0 0 0 0 0 0 0 0 0 0 0 0 0 0 0 0 0 0 0.15 0"/><feBlend in2="BackgroundImageFix" result="effect1_dropShadow_216_271"/><feBlend in="SourceGraphic" in2="effect1_dropShadow_216_271" result="shape"/><feColorMatrix in="SourceAlpha" result="hardAlpha" values="0 0 0 0 0 0 0 0 0 0 0 0 0 0 0 0 0 0 127 0"/><feOffset dy="2"/><feGaussianBlur stdDeviation="2"/><feComposite in2="hardAlpha" k2="-1" k3="1" operator="arithmetic"/><feColorMatrix values="0 0 0 0 1 0 0 0 0 1 0 0 0 0 1 0 0 0 0.08 0"/><feBlend in2="shape" result="effect2_innerShadow_216_271"/><feColorMatrix in="SourceAlpha" result="hardAlpha" values="0 0 0 0 0 0 0 0 0 0 0 0 0 0 0 0 0 0 127 0"/><feOffset dy="1"/><feGaussianBlur stdDeviation="1"/><feComposite in2="hardAlpha" k2="-1" k3="1" operator="arithmetic"/><feColorMatrix values="0 0 0 0 1 0 0 0 0 1 0 0 0 0 1 0 0 0 0.02 0"/><feBlend in2="effect2_innerShadow_216_271" result="effect3_innerShadow_216_271"/></filter><filter id="O" width="134.702" height="151.044" x="1311.91" y="552.003" color-interpolation-filters="sRGB" filterUnits="userSpaceOnUse"><feFlood flood-opacity="0" result="BackgroundImageFix"/><feBlend in="SourceGraphic" in2="BackgroundImageFix" result="shape"/><feColorMatrix in="SourceAlpha" result="hardAlpha" values="0 0 0 0 0 0 0 0 0 0 0 0 0 0 0 0 0 0 127 0"/><feOffset dx="2.226" dy="2.226"/><feGaussianBlur stdDeviation="3.34"/><feComposite in2="hardAlpha" k2="-1" k3="1" operator="arithmetic"/><feColorMatrix values="0 0 0 0 0 0 0 0 0 0 0 0 0 0 0 0 0 0 0.25 0"/><feBlend in2="shape" result="effect1_innerShadow_216_271"/></filter><filter id="Q" width="134.702" height="151.044" x="1391.22" y="688.985" color-interpolation-filters="sRGB" filterUnits="userSpaceOnUse"><feFlood flood-opacity="0" result="BackgroundImageFix"/><feBlend in="SourceGraphic" in2="BackgroundImageFix" result="shape"/><feColorMatrix in="SourceAlpha" result="hardAlpha" values="0 0 0 0 0 0 0 0 0 0 0 0 0 0 0 0 0 0 127 0"/><feOffset dx="2.226" dy="2.226"/><feGaussianBlur stdDeviation="3.34"/><feComposite in2="hardAlpha" k2="-1" k3="1" operator="arithmetic"/><feColorMatrix values="0 0 0 0 0 0 0 0 0 0 0 0 0 0 0 0 0 0 0.25 0"/><feBlend in2="shape" result="effect1_innerShadow_216_271"/></filter><filter id="S" width="134.702" height="151.044" x="1311.91" y="825.966" color-interpolation-filters="sRGB" filterUnits="userSpaceOnUse"><feFlood flood-opacity="0" result="BackgroundImageFix"/><feBlend in="SourceGraphic" in2="BackgroundImageFix" result="shape"/><feColorMatrix in="SourceAlpha" result="hardAlpha" values="0 0 0 0 0 0 0 0 0 0 0 0 0 0 0 0 0 0 127 0"/><feOffset dx="2.226" dy="2.226"/><feGaussianBlur stdDeviation="3.34"/><feComposite in2="hardAlpha" k2="-1" k3="1" operator="arithmetic"/><feColorMatrix values="0 0 0 0 0 0 0 0 0 0 0 0 0 0 0 0 0 0 0.25 0"/><feBlend in2="shape" result="effect1_innerShadow_216_271"/></filter><filter id="U" width="134.702" height="151.044" x="1391.22" y="962.947" color-interpolation-filters="sRGB" filterUnits="userSpaceOnUse"><feFlood flood-opacity="0" result="BackgroundImageFix"/><feBlend in="SourceGraphic" in2="BackgroundImageFix" result="shape"/><feColorMatrix in="SourceAlpha" result="hardAlpha" values="0 0 0 0 0 0 0 0 0 0 0 0 0 0 0 0 0 0 127 0"/><feOffset dx="2.226" dy="2.226"/><feGaussianBlur stdDeviation="3.34"/><feComposite in2="hardAlpha" k2="-1" k3="1" operator="arithmetic"/><feColorMatrix values="0 0 0 0 0 0 0 0 0 0 0 0 0 0 0 0 0 0 0.25 0"/><feBlend in2="shape" result="effect1_innerShadow_216_271"/></filter><filter id="W" width="134.702" height="151.044" x="1311.91" y="1099.93" color-interpolation-filters="sRGB" filterUnits="userSpaceOnUse"><feFlood flood-opacity="0" result="BackgroundImageFix"/><feBlend in="SourceGraphic" in2="BackgroundImageFix" result="shape"/><feColorMatrix in="SourceAlpha" result="hardAlpha" values="0 0 0 0 0 0 0 0 0 0 0 0 0 0 0 0 0 0 127 0"/><feOffset dx="2.226" dy="2.226"/><feGaussianBlur stdDeviation="3.34"/><feComposite in2="hardAlpha" k2="-1" k3="1" operator="arithmetic"/><feColorMatrix values="0 0 0 0 0 0 0 0 0 0 0 0 0 0 0 0 0 0 0.25 0"/><feBlend in2="shape" result="effect1_innerShadow_216_271"/></filter><filter id="Y" width="134.702" height="151.044" x="1391.22" y="1236.91" color-interpolation-filters="sRGB" filterUnits="userSpaceOnUse"><feFlood flood-opacity="0" result="BackgroundImageFix"/><feBlend in="SourceGraphic" in2="BackgroundImageFix" result="shape"/><feColorMatrix in="SourceAlpha" result="hardAlpha" values="0 0 0 0 0 0 0 0 0 0 0 0 0 0 0 0 0 0 127 0"/><feOffset dx="2.226" dy="2.226"/><feGaussianBlur stdDeviation="3.34"/><feComposite in2="hardAlpha" k2="-1" k3="1" operator="arithmetic"/><feColorMatrix values="0 0 0 0 0 0 0 0 0 0 0 0 0 0 0 0 0 0 0.25 0"/><feBlend in2="shape" result="effect1_innerShadow_216_271"/></filter><filter id="aa" width="134.702" height="151.044" x="1232.61" y="962.947" color-interpolation-filters="sRGB" filterUnits="userSpaceOnUse"><feFlood flood-opacity="0" result="BackgroundImageFix"/><feBlend in="SourceGraphic" in2="BackgroundImageFix" result="shape"/><feColorMatrix in="SourceAlpha" result="hardAlpha" values="0 0 0 0 0 0 0 0 0 0 0 0 0 0 0 0 0 0 127 0"/><feOffset dx="2.226" dy="2.226"/><feGaussianBlur stdDeviation="3.34"/><feComposite in2="hardAlpha" k2="-1" k3="1" operator="arithmetic"/><feColorMatrix values="0 0 0 0 0 0 0 0 0 0 0 0 0 0 0 0 0 0 0.25 0"/><feBlend in2="shape" result="effect1_innerShadow_216_271"/></filter><filter id="ac" width="134.702" height="151.044" x="1074" y="962.947" color-interpolation-filters="sRGB" filterUnits="userSpaceOnUse"><feFlood flood-opacity="0" result="BackgroundImageFix"/><feBlend in="SourceGraphic" in2="BackgroundImageFix" result="shape"/><feColorMatrix in="SourceAlpha" result="hardAlpha" values="0 0 0 0 0 0 0 0 0 0 0 0 0 0 0 0 0 0 127 0"/><feOffset dx="2.226" dy="2.226"/><feGaussianBlur stdDeviation="3.34"/><feComposite in2="hardAlpha" k2="-1" k3="1" operator="arithmetic"/><feColorMatrix values="0 0 0 0 0 0 0 0 0 0 0 0 0 0 0 0 0 0 0.25 0"/><feBlend in2="shape" result="effect1_innerShadow_216_271"/></filter><filter id="ae" width="134.702" height="151.044" x="1153.3" y="1099.93" color-interpolation-filters="sRGB" filterUnits="userSpaceOnUse"><feFlood flood-opacity="0" result="BackgroundImageFix"/><feBlend in="SourceGraphic" in2="BackgroundImageFix" result="shape"/><feColorMatrix in="SourceAlpha" result="hardAlpha" values="0 0 0 0 0 0 0 0 0 0 0 0 0 0 0 0 0 0 127 0"/><feOffset dx="2.226" dy="2.226"/><feGaussianBlur stdDeviation="3.34"/><feComposite in2="hardAlpha" k2="-1" k3="1" operator="arithmetic"/><feColorMatrix values="0 0 0 0 0 0 0 0 0 0 0 0 0 0 0 0 0 0 0.25 0"/><feBlend in2="shape" result="effect1_innerShadow_216_271"/></filter><filter id="ag" width="134.702" height="151.044" x="1311.91" y="1373.89" color-interpolation-filters="sRGB" filterUnits="userSpaceOnUse"><feFlood flood-opacity="0" result="BackgroundImageFix"/><feBlend in="SourceGraphic" in2="BackgroundImageFix" result="shape"/><feColorMatrix in="SourceAlpha" result="hardAlpha" values="0 0 0 0 0 0 0 0 0 0 0 0 0 0 0 0 0 0 127 0"/><feOffset dx="2.226" dy="2.226"/><feGaussianBlur stdDeviation="3.34"/><feComposite in2="hardAlpha" k2="-1" k3="1" operator="arithmetic"/><feColorMatrix values="0 0 0 0 0 0 0 0 0 0 0 0 0 0 0 0 0 0 0.25 0"/><feBlend in2="shape" result="effect1_innerShadow_216_271"/></filter><filter id="ai" width="134.702" height="151.044" x="1232.61" y="1236.91" color-interpolation-filters="sRGB" filterUnits="userSpaceOnUse"><feFlood flood-opacity="0" result="BackgroundImageFix"/><feBlend in="SourceGraphic" in2="BackgroundImageFix" result="shape"/><feColorMatrix in="SourceAlpha" result="hardAlpha" values="0 0 0 0 0 0 0 0 0 0 0 0 0 0 0 0 0 0 127 0"/><feOffset dx="2.226" dy="2.226"/><feGaussianBlur stdDeviation="3.34"/><feComposite in2="hardAlpha" k2="-1" k3="1" operator="arithmetic"/><feColorMatrix values="0 0 0 0 0 0 0 0 0 0 0 0 0 0 0 0 0 0 0.25 0"/><feBlend in2="shape" result="effect1_innerShadow_216_271"/></filter><linearGradient id="g" x1="56.61" x2="189.085" y1="969.588" y2="969.588" gradientUnits="userSpaceOnUse"><stop stop-color="#1A1A1A"/><stop offset="1" stop-color="#131313"/></linearGradient><linearGradient id="i" x1="-22.695" x2="109.78" y1="832.606" y2="832.606" gradientUnits="userSpaceOnUse"><stop stop-color="#1A1A1A"/><stop offset="1" stop-color="#131313"/></linearGradient><linearGradient id="k" x1="-102" x2="30.475" y1="969.588" y2="969.588" gradientUnits="userSpaceOnUse"><stop stop-color="#1A1A1A"/><stop offset="1" stop-color="#131313"/></linearGradient><linearGradient id="m" x1="56.61" x2="189.085" y1="695.625" y2="695.625" gradientUnits="userSpaceOnUse"><stop stop-color="#1A1A1A"/><stop offset="1" stop-color="#131313"/></linearGradient><linearGradient id="o" x1="-22.695" x2="109.78" y1="558.644" y2="558.644" gradientUnits="userSpaceOnUse"><stop stop-color="#1A1A1A"/><stop offset="1" stop-color="#131313"/></linearGradient><linearGradient id="q" x1="-102" x2="30.475" y1="695.625" y2="695.625" gradientUnits="userSpaceOnUse"><stop stop-color="#1A1A1A"/><stop offset="1" stop-color="#131313"/></linearGradient><linearGradient id="s" x1="56.61" x2="189.085" y1="421.663" y2="421.663" gradientUnits="userSpaceOnUse"><stop stop-color="#1A1A1A"/><stop offset="1" stop-color="#131313"/></linearGradient><linearGradient id="u" x1="-22.695" x2="109.78" y1="284.682" y2="284.682" gradientUnits="userSpaceOnUse"><stop stop-color="#1A1A1A"/><stop offset="1" stop-color="#131313"/></linearGradient><linearGradient id="w" x1="-102" x2="30.475" y1="421.663" y2="421.663" gradientUnits="userSpaceOnUse"><stop stop-color="#1A1A1A"/><stop offset="1" stop-color="#131313"/></linearGradient><linearGradient id="y" x1="135.915" x2="268.39" y1="558.644" y2="558.644" gradientUnits="userSpaceOnUse"><stop stop-color="#1A1A1A"/><stop offset="1" stop-color="#131313"/></linearGradient><linearGradient id="A" x1="294.525" x2="427" y1="558.644" y2="558.644" gradientUnits="userSpaceOnUse"><stop stop-color="#1A1A1A"/><stop offset="1" stop-color="#131313"/></linearGradient><linearGradient id="C" x1="215.22" x2="347.695" y1="421.663" y2="421.663" gradientUnits="userSpaceOnUse"><stop stop-color="#1A1A1A"/><stop offset="1" stop-color="#131313"/></linearGradient><linearGradient id="E" x1="56.61" x2="189.085" y1="147.7" y2="147.7" gradientUnits="userSpaceOnUse"><stop stop-color="#1A1A1A"/><stop offset="1" stop-color="#131313"/></linearGradient><linearGradient id="G" x1="-102" x2="30.475" y1="147.7" y2="147.7" gradientUnits="userSpaceOnUse"><stop stop-color="#1A1A1A"/><stop offset="1" stop-color="#131313"/></linearGradient><linearGradient id="I" x1="135.915" x2="268.39" y1="284.682" y2="284.682" gradientUnits="userSpaceOnUse"><stop stop-color="#1A1A1A"/><stop offset="1" stop-color="#131313"/></linearGradient><linearGradient id="P" x1="1444.39" x2="1311.91" y1="626.412" y2="626.412" gradientUnits="userSpaceOnUse"><stop stop-color="#1A1A1A"/><stop offset="1" stop-color="#131313"/></linearGradient><linearGradient id="R" x1="1523.7" x2="1391.22" y1="763.394" y2="763.394" gradientUnits="userSpaceOnUse"><stop stop-color="#1A1A1A"/><stop offset="1" stop-color="#131313"/></linearGradient><linearGradient id="T" x1="1444.39" x2="1311.91" y1="900.374" y2="900.374" gradientUnits="userSpaceOnUse"><stop stop-color="#1A1A1A"/><stop offset="1" stop-color="#131313"/></linearGradient><linearGradient id="V" x1="1523.7" x2="1391.22" y1="1037.36" y2="1037.36" gradientUnits="userSpaceOnUse"><stop stop-color="#1A1A1A"/><stop offset="1" stop-color="#131313"/></linearGradient><linearGradient id="X" x1="1444.39" x2="1311.91" y1="1174.34" y2="1174.34" gradientUnits="userSpaceOnUse"><stop stop-color="#1A1A1A"/><stop offset="1" stop-color="#131313"/></linearGradient><linearGradient id="Z" x1="1523.7" x2="1391.22" y1="1311.32" y2="1311.32" gradientUnits="userSpaceOnUse"><stop stop-color="#1A1A1A"/><stop offset="1" stop-color="#131313"/></linearGradient><linearGradient id="ab" x1="1365.09" x2="1232.61" y1="1037.36" y2="1037.36" gradientUnits="userSpaceOnUse"><stop stop-color="#1A1A1A"/><stop offset="1" stop-color="#131313"/></linearGradient><linearGradient id="ad" x1="1206.48" x2="1074" y1="1037.36" y2="1037.36" gradientUnits="userSpaceOnUse"><stop stop-color="#1A1A1A"/><stop offset="1" stop-color="#131313"/></linearGradient><linearGradient id="af" x1="1285.78" x2="1153.3" y1="1174.34" y2="1174.34" gradientUnits="userSpaceOnUse"><stop stop-color="#1A1A1A"/><stop offset="1" stop-color="#131313"/></linearGradient><linearGradient id="ah" x1="1444.39" x2="1311.91" y1="1448.3" y2="1448.3" gradientUnits="userSpaceOnUse"><stop stop-color="#1A1A1A"/><stop offset="1" stop-color="#131313"/></linearGradient><linearGradient id="aj" x1="1365.09" x2="1232.61" y1="1311.32" y2="1311.32" gradientUnits="userSpaceOnUse"><stop stop-color="#1A1A1A"/><stop offset="1" stop-color="#131313"/></linearGradient><clipPath id="a"><path fill="#fff" d="M-85 1134V0h412.5v1134z"/></clipPath><clipPath id="J"><path fill="#fff" d="M1556 462v1134h-412.5V462z"/></clipPath></defs></svg>