<svg xmlns="http://www.w3.org/2000/svg" width="26" height="29" fill="none"><g filter="url(#a)"><path fill="url(#b)" d="m2.695 22.918 8.507 4.68a4 4 0 0 0 3.88-.014l8.332-4.66a4 4 0 0 0 2.047-3.491v-9.92a4 4 0 0 0-2.047-3.491l-8.331-4.66a4 4 0 0 0-3.88-.014l-8.508 4.68A4 4 0 0 0 .622 9.531v9.881a4 4 0 0 0 2.073 3.505Z"/></g><path fill="#0D0D0D" d="M12.964 8.75a5.625 5.625 0 1 1 0 11.25 5.625 5.625 0 0 1 0-11.25Zm0 .919c-2.585 0-4.687 2.103-4.687 4.706a4.706 4.706 0 0 0 3.222 4.472.598.598 0 0 0 .042.005c.19.009.262-.121.262-.235l-.007-.8c-1.303.284-1.579-.632-1.579-.632-.213-.544-.52-.688-.52-.688-.426-.293.032-.287.032-.287.342.024.566.27.664.403l.054.082c.418.72 1.097.512 1.364.392.043-.305.163-.512.297-.63-1.04-.119-2.135-.523-2.135-2.327 0-.513.183-.933.483-1.263l-.028-.08c-.06-.19-.142-.617.074-1.166l.038-.007c.116-.015.514-.012 1.251.49a4.473 4.473 0 0 1 1.173-.159c.399.002.8.054 1.174.16.895-.61 1.288-.484 1.288-.484.255.648.094 1.127.047 1.246.3.329.48.75.48 1.263 0 1.81-1.095 2.207-2.14 2.323.17.146.32.434.32.872l-.006 1.292c0 .122.08.265.302.23a4.707 4.707 0 0 0 3.223-4.472c0-2.603-2.103-4.706-4.688-4.706Z"/><defs><linearGradient id="b" x1=".622" x2="25.462" y1="14.473" y2="14.473" gradientUnits="userSpaceOnUse"><stop stop-color="#00E6AE"/><stop offset="1" stop-color="#00CC9B"/></linearGradient><filter id="a" width="25.257" height="27.657" x=".622" y=".853" color-interpolation-filters="sRGB" filterUnits="userSpaceOnUse"><feFlood flood-opacity="0" result="BackgroundImageFix"/><feBlend in="SourceGraphic" in2="BackgroundImageFix" result="shape"/><feColorMatrix in="SourceAlpha" result="hardAlpha" values="0 0 0 0 0 0 0 0 0 0 0 0 0 0 0 0 0 0 127 0"/><feOffset dx=".417" dy=".417"/><feGaussianBlur stdDeviation=".626"/><feComposite in2="hardAlpha" k2="-1" k3="1" operator="arithmetic"/><feColorMatrix values="0 0 0 0 0 0 0 0 0 0 0 0 0 0 0 0 0 0 0.25 0"/><feBlend in2="shape" result="effect1_innerShadow_135_526"/></filter></defs></svg>