<svg xmlns="http://www.w3.org/2000/svg" width="26" height="29" fill="none"><g filter="url(#a)"><path fill="url(#b)" d="m2.702 22.557 8.508 4.655a4 4 0 0 0 3.865-.014l8.331-4.636a4 4 0 0 0 2.055-3.495V9.234a4 4 0 0 0-2.055-3.496l-8.331-4.636a4 4 0 0 0-3.865-.014L2.702 5.744a4 4 0 0 0-2.08 3.509v9.795a4 4 0 0 0 2.08 3.509Z"/></g><path fill="#0D0D0D" d="M17.522 9.949H9.084c-.776 0-1.406.626-1.406 1.399v5.596c0 .773.63 1.4 1.406 1.4h8.438c.777 0 1.406-.627 1.406-1.4v-5.596c0-.773-.63-1.4-1.406-1.4Zm-2.315 3.733 2.977-2.538c.02.066.041.131.041.204v5.596c0 .049-.018.092-.028.137l-2.99-3.399Zm2.315-3.034c.047 0 .088.018.132.027l-4.35 3.71-4.351-3.71c.044-.009.085-.027.131-.027h8.438Zm-9.113 6.433c-.01-.046-.028-.088-.028-.137v-5.596c0-.073.021-.138.042-.204l2.976 2.537-2.99 3.4Zm.675.563c-.07 0-.135-.02-.2-.04l3.049-3.467 1.142.973a.349.349 0 0 0 .457 0l1.142-.973 3.049 3.466c-.065.02-.13.04-.201.04H9.084Z"/><defs><linearGradient id="b" x1=".622" x2="25.461" y1="14.15" y2="14.15" gradientUnits="userSpaceOnUse"><stop stop-color="#00E6AE"/><stop offset="1" stop-color="#00CC9B"/></linearGradient><filter id="a" width="25.257" height="27.523" x=".622" y=".598" color-interpolation-filters="sRGB" filterUnits="userSpaceOnUse"><feFlood flood-opacity="0" result="BackgroundImageFix"/><feBlend in="SourceGraphic" in2="BackgroundImageFix" result="shape"/><feColorMatrix in="SourceAlpha" result="hardAlpha" values="0 0 0 0 0 0 0 0 0 0 0 0 0 0 0 0 0 0 127 0"/><feOffset dx=".417" dy=".417"/><feGaussianBlur stdDeviation=".626"/><feComposite in2="hardAlpha" k2="-1" k3="1" operator="arithmetic"/><feColorMatrix values="0 0 0 0 0 0 0 0 0 0 0 0 0 0 0 0 0 0 0.25 0"/><feBlend in2="shape" result="effect1_innerShadow_135_525"/></filter></defs></svg>