<svg xmlns="http://www.w3.org/2000/svg" width="25" height="29" fill="none"><g filter="url(#a)"><path fill="url(#b)" d="m2.106 22.668 8.507 4.68a4 4 0 0 0 3.88-.014l8.332-4.66a4 4 0 0 0 2.047-3.491v-9.92a4 4 0 0 0-2.047-3.491l-8.332-4.66a4 4 0 0 0-3.88-.014l-8.507 4.68A4 4 0 0 0 .033 9.281v9.881a4 4 0 0 0 2.073 3.505Z"/></g><path fill="#0D0D0D" d="M10.652 19.743V12.38c0-.067-.004-.12.094-.12.71.004 1.42.002 2.13.002.018 0 .036.005.065.01v.93l.025.008c.089-.116.174-.236.267-.35a2.326 2.326 0 0 1 1.703-.868c.316-.013.64-.009.952.045.514.087.967.314 1.341.687.355.35.59.772.716 1.247.067.252.11.511.15.768.027.178.04.361.04.54.002 1.45.002 2.9.002 4.35 0 .036-.002.072-.004.118h-.114c-.685 0-1.367-.002-2.052.003-.114 0-.134-.038-.134-.14.002-1.335.006-2.671-.003-4.006a2.854 2.854 0 0 0-.084-.702c-.11-.395-.36-.68-.757-.826a1.689 1.689 0 0 0-1.017-.058c-.38.096-.64.348-.837.68-.152.257-.18.54-.183.824-.009 1.354-.004 2.706-.004 4.06v.159c-.77.002-1.526.002-2.296.002ZM9.215 16.037c0 1.19-.002 2.379.002 3.568 0 .107-.022.147-.14.145-.68-.007-1.361-.007-2.042 0-.111 0-.136-.038-.136-.14.003-2.39.003-4.782 0-7.171 0-.097.027-.13.125-.13.687.005 1.375.005 2.064 0 .107 0 .127.04.127.136v3.592ZM8.033 8.5c.734-.017 1.173.516 1.176 1.17.002.67-.467 1.169-1.203 1.167-.685 0-1.17-.491-1.167-1.185.002-.65.473-1.174 1.194-1.151Z"/><defs><linearGradient id="b" x1=".033" x2="24.872" y1="14.223" y2="14.223" gradientUnits="userSpaceOnUse"><stop stop-color="#00E6AE"/><stop offset="1" stop-color="#00CC9B"/></linearGradient><filter id="a" width="25.257" height="27.657" x=".033" y=".603" color-interpolation-filters="sRGB" filterUnits="userSpaceOnUse"><feFlood flood-opacity="0" result="BackgroundImageFix"/><feBlend in="SourceGraphic" in2="BackgroundImageFix" result="shape"/><feColorMatrix in="SourceAlpha" result="hardAlpha" values="0 0 0 0 0 0 0 0 0 0 0 0 0 0 0 0 0 0 127 0"/><feOffset dx=".417" dy=".417"/><feGaussianBlur stdDeviation=".626"/><feComposite in2="hardAlpha" k2="-1" k3="1" operator="arithmetic"/><feColorMatrix values="0 0 0 0 0 0 0 0 0 0 0 0 0 0 0 0 0 0 0.25 0"/><feBlend in2="shape" result="effect1_innerShadow_112_600"/></filter></defs></svg>