<svg xmlns="http://www.w3.org/2000/svg" width="25" height="29" fill="none"><g filter="url(#a)"><path fill="url(#b)" d="m2.106 22.668 8.507 4.68a4 4 0 0 0 3.88-.014l8.332-4.66a4 4 0 0 0 2.048-3.491v-9.92a4 4 0 0 0-2.048-3.491l-8.331-4.66a4 4 0 0 0-3.88-.014l-8.508 4.68A4 4 0 0 0 .033 9.281v9.881a4 4 0 0 0 2.073 3.505Z"/></g><path fill="#0D0D0D" d="M18.34 14.23c0 3.027-2.473 5.48-5.523 5.48a5.532 5.532 0 0 1-2.67-.682L7.089 20l.997-2.94a5.423 5.423 0 0 1-.792-2.83c0-3.027 2.472-5.48 5.523-5.48 3.05 0 5.522 2.454 5.522 5.48Zm-5.523-4.607c-2.56 0-4.644 2.067-4.644 4.607 0 1.008.329 1.942.885 2.701l-.58 1.711 1.784-.567a4.64 4.64 0 0 0 2.555.762c2.56 0 4.643-2.066 4.643-4.607 0-2.54-2.083-4.607-4.643-4.607Zm2.788 5.87c-.034-.057-.124-.09-.259-.158a22.925 22.925 0 0 0-.925-.436c-.124-.045-.215-.068-.305.067-.09.134-.35.437-.428.526-.08.09-.158.101-.294.034-.135-.067-.571-.209-1.088-.666a4.05 4.05 0 0 1-.753-.93c-.08-.135-.009-.208.059-.274.06-.06.135-.157.203-.236.068-.078.09-.134.135-.224.046-.09.023-.168-.011-.235-.034-.067-.305-.728-.418-.997-.112-.27-.225-.224-.304-.224-.079 0-.17-.012-.26-.012a.5.5 0 0 0-.36.168c-.125.135-.474.46-.474 1.12 0 .662.485 1.3.553 1.39.067.09.936 1.49 2.312 2.028 1.376.537 1.376.358 1.625.335.248-.022.8-.324.914-.638.112-.314.112-.583.079-.639Z"/><defs><linearGradient id="b" x1=".033" x2="24.873" y1="14.223" y2="14.223" gradientUnits="userSpaceOnUse"><stop stop-color="#00E6AE"/><stop offset="1" stop-color="#00CC9B"/></linearGradient><filter id="a" width="25.257" height="27.657" x=".033" y=".603" color-interpolation-filters="sRGB" filterUnits="userSpaceOnUse"><feFlood flood-opacity="0" result="BackgroundImageFix"/><feBlend in="SourceGraphic" in2="BackgroundImageFix" result="shape"/><feColorMatrix in="SourceAlpha" result="hardAlpha" values="0 0 0 0 0 0 0 0 0 0 0 0 0 0 0 0 0 0 127 0"/><feOffset dx=".417" dy=".417"/><feGaussianBlur stdDeviation=".626"/><feComposite in2="hardAlpha" k2="-1" k3="1" operator="arithmetic"/><feColorMatrix values="0 0 0 0 0 0 0 0 0 0 0 0 0 0 0 0 0 0 0.25 0"/><feBlend in2="shape" result="effect1_innerShadow_135_524"/></filter></defs></svg>