<svg xmlns="http://www.w3.org/2000/svg" width="46" height="48" fill="none"><path fill="#009974" d="M14.505 29v-9.95h5.09l1.323 1.337v3.037l-1.323 1.337h-.284L21.31 29h-.823l-1.985-4.239h-3.226V29h-.77Zm.77-4.927h4.01l.877-.892V20.63l-.877-.891h-4.01v4.334ZM24.997 29l-2.605-9.95h.783l2.308 9.221h.297l2.093-9.22h.729l2.106 9.22h.283l2.309-9.22h.796L31.491 29h-1.296l-1.958-8.41L26.293 29h-1.296Z"/><path fill="#00E2AC" d="M12.925 29v-9.95h5.44l1.404 1.418v3.172l-1.404 1.418h-.04L20.12 29h-1.364l-1.768-3.942h-2.835V29h-1.229Zm1.228-5.035h3.658l.73-.743v-2.335l-.73-.743h-3.658v3.82ZM23.505 29l-2.443-9.95h1.296l1.957 8.776h.297l1.85-8.776h1.12l1.85 8.776h.297l1.957-8.776h1.296L30.54 29h-1.93l-1.594-7.344L25.435 29h-1.93Z"/><path stroke="#00E2AC" stroke-width="2" d="m43.004 33.45-.397-19.16a3.362 3.362 0 0 0-1.641-2.818L24.74 1.806a3.362 3.362 0 0 0-3.402-.023L4.376 11.576a3.362 3.362 0 0 0-1.68 2.957l.257 18.886a3.362 3.362 0 0 0 1.62 2.83l16.395 9.925a3.362 3.362 0 0 0 3.422.035l16.934-9.777a3.362 3.362 0 0 0 1.68-2.981Z"/><path stroke="#00E2AC" stroke-width=".9" d="m40.838 32.82-.057-17.247a3.026 3.026 0 0 0-1.432-2.562L24.9 4.058a3.026 3.026 0 0 0-3.06-.074L6.422 12.53a3.026 3.026 0 0 0-1.56 2.635l-.064 16.998a3.026 3.026 0 0 0 1.414 2.572l14.597 9.188c.934.588 2.113.621 3.079.086l15.391-8.532a3.026 3.026 0 0 0 1.56-2.656Z"/><path stroke="#00E2AC" stroke-width=".5" d="m39.14 33.45 1.078-16.177a2.844 2.844 0 0 0-1.175-2.496L26.08 5.435a2.844 2.844 0 0 0-2.865-.27L8.198 12.166a2.844 2.844 0 0 0-1.635 2.368L5.388 30.47a2.844 2.844 0 0 0 1.157 2.505l13.085 9.573c.837.613 1.942.72 2.882.282l14.992-6.99a2.844 2.844 0 0 0 1.636-2.39Z"/><path stroke="#00E2AC" stroke-width=".5" d="m37.485 34.292 2.359-15.221c.143-.921-.2-1.851-.906-2.46L27.444 6.696a2.702 2.702 0 0 0-2.688-.493L9.963 11.587a2.702 2.702 0 0 0-1.742 2.106L5.789 28.677c-.15.92.186 1.852.887 2.466l11.591 10.143a2.702 2.702 0 0 0 2.704.506l14.768-5.375a2.702 2.702 0 0 0 1.746-2.125Z"/><path stroke="#00E2AC" stroke-width=".5" d="m35.848 34.951 3.493-14.21a2.567 2.567 0 0 0-.653-2.402L28.631 8.004a2.567 2.567 0 0 0-2.504-.69l-14.444 3.871a2.567 2.567 0 0 0-1.824 1.849L6.316 27.012a2.567 2.567 0 0 0 .636 2.408l10.13 10.56a2.567 2.567 0 0 0 2.517.702l14.42-3.864a2.567 2.567 0 0 0 1.829-1.867Z"/><path stroke="#00E2AC" stroke-width=".5" d="m34.245 35.439 4.482-13.158a2.438 2.438 0 0 0-.419-2.328L29.646 9.338a2.439 2.439 0 0 0-2.313-.86l-13.99 2.467a2.438 2.438 0 0 0-1.88 1.6L6.955 25.48a2.439 2.439 0 0 0 .402 2.331l8.713 10.832a2.439 2.439 0 0 0 2.323.873l13.968-2.463a2.438 2.438 0 0 0 1.885-1.615Z"/><path stroke="#00E2AC" stroke-width=".5" d="m32.687 35.769 5.332-12.082a2.317 2.317 0 0 0-.204-2.238l-7.32-10.761a2.317 2.317 0 0 0-2.117-1.005l-13.444 1.176a2.317 2.317 0 0 0-1.911 1.357l-5.34 11.87a2.317 2.317 0 0 0 .189 2.239l7.348 10.972a2.316 2.316 0 0 0 2.127 1.019L30.77 37.14a2.316 2.316 0 0 0 1.917-1.372Z"/><path stroke="#00E2AC" stroke-width=".5" d="m31.186 35.952 6.046-10.993a2.2 2.2 0 0 0-.008-2.134l-6.035-10.791a2.2 2.2 0 0 0-1.921-1.127H16.446a2.2 2.2 0 0 0-1.92 1.127L8.49 22.824a2.2 2.2 0 0 0-.007 2.135l6.046 10.993a2.2 2.2 0 0 0 1.928 1.14h12.8a2.2 2.2 0 0 0 1.929-1.14Z"/></svg>