<svg xmlns="http://www.w3.org/2000/svg" width="23" height="26" fill="none"><path fill="#1F1F1F" d="M12.678 0c.322 0 .592.273.592.598v4.186c0 2.379 1.931 4.329 4.3 4.342.965 0 1.75.013 2.329.013l.22-.001c.395-.003.928-.012 1.389-.012.335 0 .592.26.592.585v10.452c0 3.224-2.6 5.837-5.792 5.837H6.075C2.715 26 0 23.257 0 19.877V5.863C0 2.639 2.587 0 5.805 0h6.873ZM10.58 8.762a.969.969 0 0 0-.965.975v6.266l-2.047-2.08a.949.949 0 0 0-1.351 0 .988.988 0 0 0 0 1.378l3.681 3.731c.09.091.193.156.309.208a.916.916 0 0 0 .734 0 .999.999 0 0 0 .308-.208l3.695-3.731a.976.976 0 0 0-.013-1.378.949.949 0 0 0-1.352 0l-2.046 2.08V9.737a.958.958 0 0 0-.953-.975Zm4.559-7.584c0-.56.673-.839 1.056-.434 1.393 1.46 3.824 4.015 5.184 5.443.375.394.1 1.048-.443 1.049-1.057.004-2.304 0-3.201-.01-1.424 0-2.596-1.183-2.596-2.621V1.178Z"/></svg>