<svg xmlns="http://www.w3.org/2000/svg" width="12" height="12" fill="none"><g filter="url(#a)"><path fill="#00FFC2" d="m4.799 11.068 4.737-1.375a.309.309 0 0 0 .211-.213l1.323-4.683a.309.309 0 0 0-.078-.302L7.426.929a.309.309 0 0 0-.302-.078L2.441 2.174a.309.309 0 0 0-.213.211L.853 7.122a.309.309 0 0 0 .078.305l3.563 3.563c.08.08.196.11.305.078Z"/></g><defs><filter id="a" width="10.396" height="10.396" x=".84" y=".839" color-interpolation-filters="sRGB" filterUnits="userSpaceOnUse"><feFlood flood-opacity="0" result="BackgroundImageFix"/><feBlend in="SourceGraphic" in2="BackgroundImageFix" result="shape"/><feColorMatrix in="SourceAlpha" result="hardAlpha" values="0 0 0 0 0 0 0 0 0 0 0 0 0 0 0 0 0 0 127 0"/><feOffset dx=".154" dy=".154"/><feGaussianBlur stdDeviation=".232"/><feComposite in2="hardAlpha" k2="-1" k3="1" operator="arithmetic"/><feColorMatrix values="0 0 0 0 0 0 0 0 0 0 0 0 0 0 0 0 0 0 0.25 0"/><feBlend in2="shape" result="effect1_innerShadow_112_645"/></filter></defs></svg>