<svg xmlns="http://www.w3.org/2000/svg" width="320" height="212" fill="none"><g filter="url(#a)"><g filter="url(#b)"><path fill="#1A1A1A" d="m307.314 89.595-8.645-4.754a.617.617 0 0 0-.599.002l-8.495 4.751a.618.618 0 0 0-.316.54v10.084c0 .224.121.43.316.539l8.495 4.752a.62.62 0 0 0 .599.002l8.645-4.755a.618.618 0 0 0 .32-.541V90.137a.618.618 0 0 0-.32-.542Z"/></g><g filter="url(#c)"><path fill="#1A1A1A" d="m318.314 108.595-8.645-4.754a.617.617 0 0 0-.599.002l-8.495 4.752a.617.617 0 0 0-.316.539v10.084c0 .224.121.43.316.539l8.495 4.752a.62.62 0 0 0 .599.002l8.645-4.755a.618.618 0 0 0 .32-.541v-10.078a.62.62 0 0 0-.32-.542Z"/></g><g filter="url(#d)"><path fill="#1A1A1A" d="m329.314 89.595-8.645-4.754a.617.617 0 0 0-.599.002l-8.495 4.751a.618.618 0 0 0-.316.54v10.084c0 .224.121.43.316.539l8.495 4.752a.62.62 0 0 0 .599.002l8.645-4.755a.618.618 0 0 0 .32-.541V90.137a.618.618 0 0 0-.32-.542Z"/></g><g filter="url(#e)"><path fill="#1A1A1A" d="m307.314 127.595-8.645-4.754a.617.617 0 0 0-.599.002l-8.495 4.752a.617.617 0 0 0-.316.539v10.084c0 .224.121.43.316.539l8.495 4.752a.62.62 0 0 0 .599.002l8.645-4.755a.618.618 0 0 0 .32-.541v-10.078a.62.62 0 0 0-.32-.542Z"/></g><g filter="url(#f)"><path fill="#1A1A1A" d="m318.314 146.595-8.645-4.754a.617.617 0 0 0-.599.002l-8.495 4.752a.617.617 0 0 0-.316.539v10.084c0 .224.121.43.316.539l8.495 4.752a.62.62 0 0 0 .599.002l8.645-4.755a.618.618 0 0 0 .32-.541v-10.078a.62.62 0 0 0-.32-.542Z"/></g><g filter="url(#g)"><path fill="#1A1A1A" d="m329.314 127.595-8.645-4.754a.617.617 0 0 0-.599.002l-8.495 4.752a.617.617 0 0 0-.316.539v10.084c0 .224.121.43.316.539l8.495 4.752a.62.62 0 0 0 .599.002l8.645-4.755a.618.618 0 0 0 .32-.541v-10.078a.62.62 0 0 0-.32-.542Z"/></g><g filter="url(#h)"><path fill="#1A1A1A" d="M19.314 5.595 10.669.841a.618.618 0 0 0-.599.002L1.575 5.595a.618.618 0 0 0-.316.539v10.084c0 .224.12.43.316.539l8.495 4.752a.618.618 0 0 0 .6.002l8.644-4.755a.618.618 0 0 0 .32-.541V6.137a.618.618 0 0 0-.32-.542Z"/></g><g filter="url(#i)"><path fill="#1A1A1A" d="m30.314 24.595-8.645-4.754a.618.618 0 0 0-.599.002l-8.495 4.752a.618.618 0 0 0-.316.539v10.084c0 .224.12.43.316.539l8.495 4.752a.618.618 0 0 0 .6.002l8.644-4.755a.618.618 0 0 0 .32-.541V25.137a.617.617 0 0 0-.32-.542Z"/></g><g filter="url(#j)"><path fill="#1A1A1A" d="M41.314 5.595 32.669.841a.618.618 0 0 0-.599.002l-8.495 4.752a.618.618 0 0 0-.316.539v10.084c0 .224.12.43.316.539l8.495 4.752a.618.618 0 0 0 .6.002l8.644-4.755a.618.618 0 0 0 .32-.541V6.137a.618.618 0 0 0-.32-.542Z"/></g><g filter="url(#k)"><path fill="#1A1A1A" d="m19.314 43.595-8.645-4.754a.618.618 0 0 0-.599.002l-8.495 4.751a.618.618 0 0 0-.316.54v10.084c0 .224.12.43.316.539l8.495 4.752a.618.618 0 0 0 .6.002l8.644-4.755a.618.618 0 0 0 .32-.541V44.137a.617.617 0 0 0-.32-.542Z"/></g><g filter="url(#l)"><path fill="#1A1A1A" d="m8.314 24.595-8.645-4.754a.618.618 0 0 0-.599.002l-8.495 4.752a.618.618 0 0 0-.316.539v10.084c0 .224.12.43.316.539l8.495 4.752a.618.618 0 0 0 .6.002l8.644-4.755a.618.618 0 0 0 .32-.541V25.137a.618.618 0 0 0-.32-.542Z"/></g><g filter="url(#m)"><path fill="#1A1A1A" d="m41.314 43.595-8.645-4.754a.618.618 0 0 0-.599.002l-8.495 4.751a.618.618 0 0 0-.316.54v10.084c0 .224.12.43.316.539l8.495 4.752a.618.618 0 0 0 .6.002l8.644-4.755a.618.618 0 0 0 .32-.541V44.137a.617.617 0 0 0-.32-.542Z"/></g><g filter="url(#n)"><path fill="#1A1A1A" d="m307.314 165.595-8.645-4.754a.617.617 0 0 0-.599.002l-8.495 4.752a.617.617 0 0 0-.316.539v10.084c0 .224.121.43.316.539l8.495 4.752a.62.62 0 0 0 .599.002l8.645-4.755a.618.618 0 0 0 .32-.541v-10.078a.62.62 0 0 0-.32-.542Z"/></g><g filter="url(#o)"><path fill="#1A1A1A" d="m318.314 184.595-8.645-4.754a.617.617 0 0 0-.599.002l-8.495 4.752a.617.617 0 0 0-.316.539v10.084c0 .224.121.43.316.539l8.495 4.752a.62.62 0 0 0 .599.002l8.645-4.755a.618.618 0 0 0 .32-.541v-10.078a.62.62 0 0 0-.32-.542Z"/></g><g filter="url(#p)"><path fill="#1A1A1A" d="m329.314 165.595-8.645-4.754a.617.617 0 0 0-.599.002l-8.495 4.752a.617.617 0 0 0-.316.539v10.084c0 .224.121.43.316.539l8.495 4.752a.62.62 0 0 0 .599.002l8.645-4.755a.618.618 0 0 0 .32-.541v-10.078a.62.62 0 0 0-.32-.542Z"/></g><g filter="url(#q)"><path fill="#1A1A1A" d="m296.314 146.595-8.645-4.754a.617.617 0 0 0-.599.002l-8.495 4.752a.617.617 0 0 0-.316.539v10.084c0 .224.121.43.316.539l8.495 4.752a.62.62 0 0 0 .599.002l8.645-4.755a.618.618 0 0 0 .32-.541v-10.078a.62.62 0 0 0-.32-.542Z"/></g><g filter="url(#r)"><path fill="#1A1A1A" d="m274.314 146.595-8.645-4.754a.617.617 0 0 0-.599.002l-8.495 4.752a.617.617 0 0 0-.316.539v10.084c0 .224.121.43.316.539l8.495 4.752a.62.62 0 0 0 .599.002l8.645-4.755a.618.618 0 0 0 .32-.541v-10.078a.62.62 0 0 0-.32-.542Z"/></g><g filter="url(#s)"><path fill="#1A1A1A" d="m285.314 165.595-8.645-4.754a.617.617 0 0 0-.599.002l-8.495 4.752a.617.617 0 0 0-.316.539v10.084c0 .224.121.43.316.539l8.495 4.752a.62.62 0 0 0 .599.002l8.645-4.755a.618.618 0 0 0 .32-.541v-10.078a.62.62 0 0 0-.32-.542Z"/></g><g filter="url(#t)"><path fill="#1A1A1A" d="m307.314 203.595-8.645-4.754a.617.617 0 0 0-.599.002l-8.495 4.752a.617.617 0 0 0-.316.539v10.084c0 .224.121.43.316.539l8.495 4.752a.62.62 0 0 0 .599.002l8.645-4.755a.618.618 0 0 0 .32-.541v-10.078a.62.62 0 0 0-.32-.542Z"/></g><g filter="url(#u)"><path fill="#1A1A1A" d="m329.314 203.595-8.645-4.754a.617.617 0 0 0-.599.002l-8.495 4.752a.617.617 0 0 0-.316.539v10.084c0 .224.121.43.316.539l8.495 4.752a.62.62 0 0 0 .599.002l8.645-4.755a.618.618 0 0 0 .32-.541v-10.078a.62.62 0 0 0-.32-.542Z"/></g><g filter="url(#v)"><path fill="#1A1A1A" d="m296.314 184.595-8.645-4.754a.617.617 0 0 0-.599.002l-8.495 4.752a.617.617 0 0 0-.316.539v10.084c0 .224.121.43.316.539l8.495 4.752a.62.62 0 0 0 .599.002l8.645-4.755a.618.618 0 0 0 .32-.541v-10.078a.62.62 0 0 0-.32-.542Z"/></g></g><defs><filter id="a" width="347.375" height="229.822" x="-13.741" y=".765" color-interpolation-filters="sRGB" filterUnits="userSpaceOnUse"><feFlood flood-opacity="0" result="BackgroundImageFix"/><feColorMatrix in="SourceAlpha" result="hardAlpha" values="0 0 0 0 0 0 0 0 0 0 0 0 0 0 0 0 0 0 127 0"/><feOffset dy="7"/><feGaussianBlur stdDeviation="2"/><feComposite in2="hardAlpha" operator="out"/><feColorMatrix values="0 0 0 0 0 0 0 0 0 0 0 0 0 0 0 0 0 0 0.15 0"/><feBlend in2="BackgroundImageFix" result="effect1_dropShadow_112_649"/><feBlend in="SourceGraphic" in2="effect1_dropShadow_112_649" result="shape"/><feColorMatrix in="SourceAlpha" result="hardAlpha" values="0 0 0 0 0 0 0 0 0 0 0 0 0 0 0 0 0 0 127 0"/><feOffset dy="2"/><feGaussianBlur stdDeviation="2"/><feComposite in2="hardAlpha" k2="-1" k3="1" operator="arithmetic"/><feColorMatrix values="0 0 0 0 1 0 0 0 0 1 0 0 0 0 1 0 0 0 0.08 0"/><feBlend in2="shape" result="effect2_innerShadow_112_649"/><feColorMatrix in="SourceAlpha" result="hardAlpha" values="0 0 0 0 0 0 0 0 0 0 0 0 0 0 0 0 0 0 127 0"/><feOffset dy="1"/><feGaussianBlur stdDeviation="1"/><feComposite in2="hardAlpha" k2="-1" k3="1" operator="arithmetic"/><feColorMatrix values="0 0 0 0 1 0 0 0 0 1 0 0 0 0 1 0 0 0 0.02 0"/><feBlend in2="effect2_innerShadow_112_649" result="effect3_innerShadow_112_649"/></filter><filter id="b" width="18.684" height="21.131" x="289.259" y="84.765" color-interpolation-filters="sRGB" filterUnits="userSpaceOnUse"><feFlood flood-opacity="0" result="BackgroundImageFix"/><feBlend in="SourceGraphic" in2="BackgroundImageFix" result="shape"/><feColorMatrix in="SourceAlpha" result="hardAlpha" values="0 0 0 0 0 0 0 0 0 0 0 0 0 0 0 0 0 0 127 0"/><feOffset dx=".309" dy=".309"/><feGaussianBlur stdDeviation=".463"/><feComposite in2="hardAlpha" k2="-1" k3="1" operator="arithmetic"/><feColorMatrix values="0 0 0 0 0 0 0 0 0 0 0 0 0 0 0 0 0 0 0.25 0"/><feBlend in2="shape" result="effect1_innerShadow_112_649"/></filter><filter id="c" width="18.684" height="21.131" x="300.259" y="103.765" color-interpolation-filters="sRGB" filterUnits="userSpaceOnUse"><feFlood flood-opacity="0" result="BackgroundImageFix"/><feBlend in="SourceGraphic" in2="BackgroundImageFix" result="shape"/><feColorMatrix in="SourceAlpha" result="hardAlpha" values="0 0 0 0 0 0 0 0 0 0 0 0 0 0 0 0 0 0 127 0"/><feOffset dx=".309" dy=".309"/><feGaussianBlur stdDeviation=".463"/><feComposite in2="hardAlpha" k2="-1" k3="1" operator="arithmetic"/><feColorMatrix values="0 0 0 0 0 0 0 0 0 0 0 0 0 0 0 0 0 0 0.25 0"/><feBlend in2="shape" result="effect1_innerShadow_112_649"/></filter><filter id="d" width="18.684" height="21.131" x="311.259" y="84.765" color-interpolation-filters="sRGB" filterUnits="userSpaceOnUse"><feFlood flood-opacity="0" result="BackgroundImageFix"/><feBlend in="SourceGraphic" in2="BackgroundImageFix" result="shape"/><feColorMatrix in="SourceAlpha" result="hardAlpha" values="0 0 0 0 0 0 0 0 0 0 0 0 0 0 0 0 0 0 127 0"/><feOffset dx=".309" dy=".309"/><feGaussianBlur stdDeviation=".463"/><feComposite in2="hardAlpha" k2="-1" k3="1" operator="arithmetic"/><feColorMatrix values="0 0 0 0 0 0 0 0 0 0 0 0 0 0 0 0 0 0 0.25 0"/><feBlend in2="shape" result="effect1_innerShadow_112_649"/></filter><filter id="e" width="18.684" height="21.131" x="289.259" y="122.765" color-interpolation-filters="sRGB" filterUnits="userSpaceOnUse"><feFlood flood-opacity="0" result="BackgroundImageFix"/><feBlend in="SourceGraphic" in2="BackgroundImageFix" result="shape"/><feColorMatrix in="SourceAlpha" result="hardAlpha" values="0 0 0 0 0 0 0 0 0 0 0 0 0 0 0 0 0 0 127 0"/><feOffset dx=".309" dy=".309"/><feGaussianBlur stdDeviation=".463"/><feComposite in2="hardAlpha" k2="-1" k3="1" operator="arithmetic"/><feColorMatrix values="0 0 0 0 0 0 0 0 0 0 0 0 0 0 0 0 0 0 0.25 0"/><feBlend in2="shape" result="effect1_innerShadow_112_649"/></filter><filter id="f" width="18.684" height="21.131" x="300.259" y="141.765" color-interpolation-filters="sRGB" filterUnits="userSpaceOnUse"><feFlood flood-opacity="0" result="BackgroundImageFix"/><feBlend in="SourceGraphic" in2="BackgroundImageFix" result="shape"/><feColorMatrix in="SourceAlpha" result="hardAlpha" values="0 0 0 0 0 0 0 0 0 0 0 0 0 0 0 0 0 0 127 0"/><feOffset dx=".309" dy=".309"/><feGaussianBlur stdDeviation=".463"/><feComposite in2="hardAlpha" k2="-1" k3="1" operator="arithmetic"/><feColorMatrix values="0 0 0 0 0 0 0 0 0 0 0 0 0 0 0 0 0 0 0.25 0"/><feBlend in2="shape" result="effect1_innerShadow_112_649"/></filter><filter id="g" width="18.684" height="21.131" x="311.259" y="122.765" color-interpolation-filters="sRGB" filterUnits="userSpaceOnUse"><feFlood flood-opacity="0" result="BackgroundImageFix"/><feBlend in="SourceGraphic" in2="BackgroundImageFix" result="shape"/><feColorMatrix in="SourceAlpha" result="hardAlpha" values="0 0 0 0 0 0 0 0 0 0 0 0 0 0 0 0 0 0 127 0"/><feOffset dx=".309" dy=".309"/><feGaussianBlur stdDeviation=".463"/><feComposite in2="hardAlpha" k2="-1" k3="1" operator="arithmetic"/><feColorMatrix values="0 0 0 0 0 0 0 0 0 0 0 0 0 0 0 0 0 0 0.25 0"/><feBlend in2="shape" result="effect1_innerShadow_112_649"/></filter><filter id="h" width="18.684" height="21.131" x="1.259" y=".765" color-interpolation-filters="sRGB" filterUnits="userSpaceOnUse"><feFlood flood-opacity="0" result="BackgroundImageFix"/><feBlend in="SourceGraphic" in2="BackgroundImageFix" result="shape"/><feColorMatrix in="SourceAlpha" result="hardAlpha" values="0 0 0 0 0 0 0 0 0 0 0 0 0 0 0 0 0 0 127 0"/><feOffset dx=".309" dy=".309"/><feGaussianBlur stdDeviation=".463"/><feComposite in2="hardAlpha" k2="-1" k3="1" operator="arithmetic"/><feColorMatrix values="0 0 0 0 0 0 0 0 0 0 0 0 0 0 0 0 0 0 0.25 0"/><feBlend in2="shape" result="effect1_innerShadow_112_649"/></filter><filter id="i" width="18.684" height="21.131" x="12.259" y="19.765" color-interpolation-filters="sRGB" filterUnits="userSpaceOnUse"><feFlood flood-opacity="0" result="BackgroundImageFix"/><feBlend in="SourceGraphic" in2="BackgroundImageFix" result="shape"/><feColorMatrix in="SourceAlpha" result="hardAlpha" values="0 0 0 0 0 0 0 0 0 0 0 0 0 0 0 0 0 0 127 0"/><feOffset dx=".309" dy=".309"/><feGaussianBlur stdDeviation=".463"/><feComposite in2="hardAlpha" k2="-1" k3="1" operator="arithmetic"/><feColorMatrix values="0 0 0 0 0 0 0 0 0 0 0 0 0 0 0 0 0 0 0.25 0"/><feBlend in2="shape" result="effect1_innerShadow_112_649"/></filter><filter id="j" width="18.684" height="21.131" x="23.259" y=".765" color-interpolation-filters="sRGB" filterUnits="userSpaceOnUse"><feFlood flood-opacity="0" result="BackgroundImageFix"/><feBlend in="SourceGraphic" in2="BackgroundImageFix" result="shape"/><feColorMatrix in="SourceAlpha" result="hardAlpha" values="0 0 0 0 0 0 0 0 0 0 0 0 0 0 0 0 0 0 127 0"/><feOffset dx=".309" dy=".309"/><feGaussianBlur stdDeviation=".463"/><feComposite in2="hardAlpha" k2="-1" k3="1" operator="arithmetic"/><feColorMatrix values="0 0 0 0 0 0 0 0 0 0 0 0 0 0 0 0 0 0 0.25 0"/><feBlend in2="shape" result="effect1_innerShadow_112_649"/></filter><filter id="k" width="18.684" height="21.131" x="1.259" y="38.765" color-interpolation-filters="sRGB" filterUnits="userSpaceOnUse"><feFlood flood-opacity="0" result="BackgroundImageFix"/><feBlend in="SourceGraphic" in2="BackgroundImageFix" result="shape"/><feColorMatrix in="SourceAlpha" result="hardAlpha" values="0 0 0 0 0 0 0 0 0 0 0 0 0 0 0 0 0 0 127 0"/><feOffset dx=".309" dy=".309"/><feGaussianBlur stdDeviation=".463"/><feComposite in2="hardAlpha" k2="-1" k3="1" operator="arithmetic"/><feColorMatrix values="0 0 0 0 0 0 0 0 0 0 0 0 0 0 0 0 0 0 0.25 0"/><feBlend in2="shape" result="effect1_innerShadow_112_649"/></filter><filter id="l" width="18.684" height="21.131" x="-9.741" y="19.765" color-interpolation-filters="sRGB" filterUnits="userSpaceOnUse"><feFlood flood-opacity="0" result="BackgroundImageFix"/><feBlend in="SourceGraphic" in2="BackgroundImageFix" result="shape"/><feColorMatrix in="SourceAlpha" result="hardAlpha" values="0 0 0 0 0 0 0 0 0 0 0 0 0 0 0 0 0 0 127 0"/><feOffset dx=".309" dy=".309"/><feGaussianBlur stdDeviation=".463"/><feComposite in2="hardAlpha" k2="-1" k3="1" operator="arithmetic"/><feColorMatrix values="0 0 0 0 0 0 0 0 0 0 0 0 0 0 0 0 0 0 0.25 0"/><feBlend in2="shape" result="effect1_innerShadow_112_649"/></filter><filter id="m" width="18.684" height="21.131" x="23.259" y="38.765" color-interpolation-filters="sRGB" filterUnits="userSpaceOnUse"><feFlood flood-opacity="0" result="BackgroundImageFix"/><feBlend in="SourceGraphic" in2="BackgroundImageFix" result="shape"/><feColorMatrix in="SourceAlpha" result="hardAlpha" values="0 0 0 0 0 0 0 0 0 0 0 0 0 0 0 0 0 0 127 0"/><feOffset dx=".309" dy=".309"/><feGaussianBlur stdDeviation=".463"/><feComposite in2="hardAlpha" k2="-1" k3="1" operator="arithmetic"/><feColorMatrix values="0 0 0 0 0 0 0 0 0 0 0 0 0 0 0 0 0 0 0.25 0"/><feBlend in2="shape" result="effect1_innerShadow_112_649"/></filter><filter id="n" width="18.684" height="21.131" x="289.259" y="160.765" color-interpolation-filters="sRGB" filterUnits="userSpaceOnUse"><feFlood flood-opacity="0" result="BackgroundImageFix"/><feBlend in="SourceGraphic" in2="BackgroundImageFix" result="shape"/><feColorMatrix in="SourceAlpha" result="hardAlpha" values="0 0 0 0 0 0 0 0 0 0 0 0 0 0 0 0 0 0 127 0"/><feOffset dx=".309" dy=".309"/><feGaussianBlur stdDeviation=".463"/><feComposite in2="hardAlpha" k2="-1" k3="1" operator="arithmetic"/><feColorMatrix values="0 0 0 0 0 0 0 0 0 0 0 0 0 0 0 0 0 0 0.25 0"/><feBlend in2="shape" result="effect1_innerShadow_112_649"/></filter><filter id="o" width="18.684" height="21.131" x="300.259" y="179.765" color-interpolation-filters="sRGB" filterUnits="userSpaceOnUse"><feFlood flood-opacity="0" result="BackgroundImageFix"/><feBlend in="SourceGraphic" in2="BackgroundImageFix" result="shape"/><feColorMatrix in="SourceAlpha" result="hardAlpha" values="0 0 0 0 0 0 0 0 0 0 0 0 0 0 0 0 0 0 127 0"/><feOffset dx=".309" dy=".309"/><feGaussianBlur stdDeviation=".463"/><feComposite in2="hardAlpha" k2="-1" k3="1" operator="arithmetic"/><feColorMatrix values="0 0 0 0 0 0 0 0 0 0 0 0 0 0 0 0 0 0 0.25 0"/><feBlend in2="shape" result="effect1_innerShadow_112_649"/></filter><filter id="p" width="18.684" height="21.131" x="311.259" y="160.765" color-interpolation-filters="sRGB" filterUnits="userSpaceOnUse"><feFlood flood-opacity="0" result="BackgroundImageFix"/><feBlend in="SourceGraphic" in2="BackgroundImageFix" result="shape"/><feColorMatrix in="SourceAlpha" result="hardAlpha" values="0 0 0 0 0 0 0 0 0 0 0 0 0 0 0 0 0 0 127 0"/><feOffset dx=".309" dy=".309"/><feGaussianBlur stdDeviation=".463"/><feComposite in2="hardAlpha" k2="-1" k3="1" operator="arithmetic"/><feColorMatrix values="0 0 0 0 0 0 0 0 0 0 0 0 0 0 0 0 0 0 0.25 0"/><feBlend in2="shape" result="effect1_innerShadow_112_649"/></filter><filter id="q" width="18.684" height="21.131" x="278.259" y="141.765" color-interpolation-filters="sRGB" filterUnits="userSpaceOnUse"><feFlood flood-opacity="0" result="BackgroundImageFix"/><feBlend in="SourceGraphic" in2="BackgroundImageFix" result="shape"/><feColorMatrix in="SourceAlpha" result="hardAlpha" values="0 0 0 0 0 0 0 0 0 0 0 0 0 0 0 0 0 0 127 0"/><feOffset dx=".309" dy=".309"/><feGaussianBlur stdDeviation=".463"/><feComposite in2="hardAlpha" k2="-1" k3="1" operator="arithmetic"/><feColorMatrix values="0 0 0 0 0 0 0 0 0 0 0 0 0 0 0 0 0 0 0.25 0"/><feBlend in2="shape" result="effect1_innerShadow_112_649"/></filter><filter id="r" width="18.684" height="21.131" x="256.259" y="141.765" color-interpolation-filters="sRGB" filterUnits="userSpaceOnUse"><feFlood flood-opacity="0" result="BackgroundImageFix"/><feBlend in="SourceGraphic" in2="BackgroundImageFix" result="shape"/><feColorMatrix in="SourceAlpha" result="hardAlpha" values="0 0 0 0 0 0 0 0 0 0 0 0 0 0 0 0 0 0 127 0"/><feOffset dx=".309" dy=".309"/><feGaussianBlur stdDeviation=".463"/><feComposite in2="hardAlpha" k2="-1" k3="1" operator="arithmetic"/><feColorMatrix values="0 0 0 0 0 0 0 0 0 0 0 0 0 0 0 0 0 0 0.25 0"/><feBlend in2="shape" result="effect1_innerShadow_112_649"/></filter><filter id="s" width="18.684" height="21.131" x="267.259" y="160.765" color-interpolation-filters="sRGB" filterUnits="userSpaceOnUse"><feFlood flood-opacity="0" result="BackgroundImageFix"/><feBlend in="SourceGraphic" in2="BackgroundImageFix" result="shape"/><feColorMatrix in="SourceAlpha" result="hardAlpha" values="0 0 0 0 0 0 0 0 0 0 0 0 0 0 0 0 0 0 127 0"/><feOffset dx=".309" dy=".309"/><feGaussianBlur stdDeviation=".463"/><feComposite in2="hardAlpha" k2="-1" k3="1" operator="arithmetic"/><feColorMatrix values="0 0 0 0 0 0 0 0 0 0 0 0 0 0 0 0 0 0 0.25 0"/><feBlend in2="shape" result="effect1_innerShadow_112_649"/></filter><filter id="t" width="18.684" height="21.131" x="289.259" y="198.765" color-interpolation-filters="sRGB" filterUnits="userSpaceOnUse"><feFlood flood-opacity="0" result="BackgroundImageFix"/><feBlend in="SourceGraphic" in2="BackgroundImageFix" result="shape"/><feColorMatrix in="SourceAlpha" result="hardAlpha" values="0 0 0 0 0 0 0 0 0 0 0 0 0 0 0 0 0 0 127 0"/><feOffset dx=".309" dy=".309"/><feGaussianBlur stdDeviation=".463"/><feComposite in2="hardAlpha" k2="-1" k3="1" operator="arithmetic"/><feColorMatrix values="0 0 0 0 0 0 0 0 0 0 0 0 0 0 0 0 0 0 0.25 0"/><feBlend in2="shape" result="effect1_innerShadow_112_649"/></filter><filter id="u" width="18.684" height="21.131" x="311.259" y="198.765" color-interpolation-filters="sRGB" filterUnits="userSpaceOnUse"><feFlood flood-opacity="0" result="BackgroundImageFix"/><feBlend in="SourceGraphic" in2="BackgroundImageFix" result="shape"/><feColorMatrix in="SourceAlpha" result="hardAlpha" values="0 0 0 0 0 0 0 0 0 0 0 0 0 0 0 0 0 0 127 0"/><feOffset dx=".309" dy=".309"/><feGaussianBlur stdDeviation=".463"/><feComposite in2="hardAlpha" k2="-1" k3="1" operator="arithmetic"/><feColorMatrix values="0 0 0 0 0 0 0 0 0 0 0 0 0 0 0 0 0 0 0.25 0"/><feBlend in2="shape" result="effect1_innerShadow_112_649"/></filter><filter id="v" width="18.684" height="21.131" x="278.259" y="179.765" color-interpolation-filters="sRGB" filterUnits="userSpaceOnUse"><feFlood flood-opacity="0" result="BackgroundImageFix"/><feBlend in="SourceGraphic" in2="BackgroundImageFix" result="shape"/><feColorMatrix in="SourceAlpha" result="hardAlpha" values="0 0 0 0 0 0 0 0 0 0 0 0 0 0 0 0 0 0 127 0"/><feOffset dx=".309" dy=".309"/><feGaussianBlur stdDeviation=".463"/><feComposite in2="hardAlpha" k2="-1" k3="1" operator="arithmetic"/><feColorMatrix values="0 0 0 0 0 0 0 0 0 0 0 0 0 0 0 0 0 0 0.25 0"/><feBlend in2="shape" result="effect1_innerShadow_112_649"/></filter></defs></svg>