<svg width="320" height="212" viewBox="0 0 320 212" fill="none" xmlns="http://www.w3.org/2000/svg">
<g filter="url(#filter0_dii_112_649)">
<g filter="url(#filter1_i_112_649)">
<path d="M307.314 89.5954L298.669 84.8409C298.483 84.7382 298.256 84.739 298.07 84.843L289.575 89.5945C289.38 89.7037 289.259 89.9099 289.259 90.1336V100.218C289.259 100.442 289.38 100.648 289.575 100.757L298.07 105.509C298.256 105.613 298.483 105.613 298.669 105.511L307.314 100.756C307.511 100.648 307.634 100.44 307.634 100.215V90.1366C307.634 89.9113 307.511 89.7039 307.314 89.5954Z" fill="#1A1A1A"/>
</g>
<g filter="url(#filter2_i_112_649)">
<path d="M318.314 108.595L309.669 103.841C309.483 103.738 309.256 103.739 309.07 103.843L300.575 108.595C300.38 108.704 300.259 108.91 300.259 109.134V119.218C300.259 119.442 300.38 119.648 300.575 119.757L309.07 124.509C309.256 124.613 309.483 124.613 309.669 124.511L318.314 119.756C318.511 119.648 318.634 119.44 318.634 119.215V109.137C318.634 108.911 318.511 108.704 318.314 108.595Z" fill="#1A1A1A"/>
</g>
<g filter="url(#filter3_i_112_649)">
<path d="M329.314 89.5954L320.669 84.8409C320.483 84.7382 320.256 84.739 320.07 84.843L311.575 89.5945C311.38 89.7037 311.259 89.9099 311.259 90.1336V100.218C311.259 100.442 311.38 100.648 311.575 100.757L320.07 105.509C320.256 105.613 320.483 105.613 320.669 105.511L329.314 100.756C329.511 100.648 329.634 100.44 329.634 100.215V90.1366C329.634 89.9113 329.511 89.7039 329.314 89.5954Z" fill="#1A1A1A"/>
</g>
<g filter="url(#filter4_i_112_649)">
<path d="M307.314 127.595L298.669 122.841C298.483 122.738 298.256 122.739 298.07 122.843L289.575 127.595C289.38 127.704 289.259 127.91 289.259 128.134V138.218C289.259 138.442 289.38 138.648 289.575 138.757L298.07 143.509C298.256 143.613 298.483 143.613 298.669 143.511L307.314 138.756C307.511 138.648 307.634 138.44 307.634 138.215V128.137C307.634 127.911 307.511 127.704 307.314 127.595Z" fill="#1A1A1A"/>
</g>
<g filter="url(#filter5_i_112_649)">
<path d="M318.314 146.595L309.669 141.841C309.483 141.738 309.256 141.739 309.07 141.843L300.575 146.595C300.38 146.704 300.259 146.91 300.259 147.134V157.218C300.259 157.442 300.38 157.648 300.575 157.757L309.07 162.509C309.256 162.613 309.483 162.613 309.669 162.511L318.314 157.756C318.511 157.648 318.634 157.44 318.634 157.215V147.137C318.634 146.911 318.511 146.704 318.314 146.595Z" fill="#1A1A1A"/>
</g>
<g filter="url(#filter6_i_112_649)">
<path d="M329.314 127.595L320.669 122.841C320.483 122.738 320.256 122.739 320.07 122.843L311.575 127.595C311.38 127.704 311.259 127.91 311.259 128.134V138.218C311.259 138.442 311.38 138.648 311.575 138.757L320.07 143.509C320.256 143.613 320.483 143.613 320.669 143.511L329.314 138.756C329.511 138.648 329.634 138.44 329.634 138.215V128.137C329.634 127.911 329.511 127.704 329.314 127.595Z" fill="#1A1A1A"/>
</g>
<g filter="url(#filter7_i_112_649)">
<path d="M19.3138 5.59537L10.6693 0.840877C10.4825 0.738182 10.2561 0.738989 10.0701 0.843012L1.57493 5.59454C1.37972 5.70373 1.25879 5.90993 1.25879 6.1336V16.218C1.25879 16.4416 1.37972 16.6478 1.57493 16.757L10.0701 21.5086C10.2561 21.6126 10.4825 21.6134 10.6693 21.5107L19.3138 16.7562C19.5112 16.6476 19.6338 16.4402 19.6338 16.215V6.13657C19.6338 5.91132 19.5112 5.70393 19.3138 5.59537Z" fill="#1A1A1A"/>
</g>
<g filter="url(#filter8_i_112_649)">
<path d="M30.3138 24.5954L21.6693 19.8409C21.4825 19.7382 21.2561 19.739 21.0701 19.843L12.5749 24.5945C12.3797 24.7037 12.2588 24.9099 12.2588 25.1336V35.218C12.2588 35.4416 12.3797 35.6478 12.5749 35.757L21.0701 40.5086C21.2561 40.6126 21.4825 40.6134 21.6693 40.5107L30.3138 35.7562C30.5112 35.6476 30.6338 35.4402 30.6338 35.215V25.1366C30.6338 24.9113 30.5112 24.7039 30.3138 24.5954Z" fill="#1A1A1A"/>
</g>
<g filter="url(#filter9_i_112_649)">
<path d="M41.3138 5.59537L32.6693 0.840877C32.4825 0.738182 32.2561 0.738989 32.0701 0.843012L23.5749 5.59454C23.3797 5.70373 23.2588 5.90993 23.2588 6.1336V16.218C23.2588 16.4416 23.3797 16.6478 23.5749 16.757L32.0701 21.5086C32.2561 21.6126 32.4825 21.6134 32.6693 21.5107L41.3138 16.7562C41.5112 16.6476 41.6338 16.4402 41.6338 16.215V6.13657C41.6338 5.91132 41.5112 5.70393 41.3138 5.59537Z" fill="#1A1A1A"/>
</g>
<g filter="url(#filter10_i_112_649)">
<path d="M19.3138 43.5954L10.6693 38.8409C10.4825 38.7382 10.2561 38.739 10.0701 38.843L1.57493 43.5945C1.37972 43.7037 1.25879 43.9099 1.25879 44.1336V54.218C1.25879 54.4416 1.37972 54.6478 1.57493 54.757L10.0701 59.5086C10.2561 59.6126 10.4825 59.6134 10.6693 59.5107L19.3138 54.7562C19.5112 54.6476 19.6338 54.4402 19.6338 54.215V44.1366C19.6338 43.9113 19.5112 43.7039 19.3138 43.5954Z" fill="#1A1A1A"/>
</g>
<g filter="url(#filter11_i_112_649)">
<path d="M8.3138 24.5954L-0.330744 19.8409C-0.51746 19.7382 -0.743925 19.739 -0.929905 19.843L-9.42507 24.5945C-9.62028 24.7037 -9.74121 24.9099 -9.74121 25.1336V35.218C-9.74121 35.4416 -9.62028 35.6478 -9.42507 35.757L-0.929905 40.5086C-0.743925 40.6126 -0.517461 40.6134 -0.330744 40.5107L8.3138 35.7562C8.51117 35.6476 8.63379 35.4402 8.63379 35.215L8.63379 25.1366C8.63379 24.9113 8.51117 24.7039 8.3138 24.5954Z" fill="#1A1A1A"/>
</g>
<g filter="url(#filter12_i_112_649)">
<path d="M41.3138 43.5954L32.6693 38.8409C32.4825 38.7382 32.2561 38.739 32.0701 38.843L23.5749 43.5945C23.3797 43.7037 23.2588 43.9099 23.2588 44.1336V54.218C23.2588 54.4416 23.3797 54.6478 23.5749 54.757L32.0701 59.5086C32.2561 59.6126 32.4825 59.6134 32.6693 59.5107L41.3138 54.7562C41.5112 54.6476 41.6338 54.4402 41.6338 54.215V44.1366C41.6338 43.9113 41.5112 43.7039 41.3138 43.5954Z" fill="#1A1A1A"/>
</g>
<g filter="url(#filter13_i_112_649)">
<path d="M307.314 165.595L298.669 160.841C298.483 160.738 298.256 160.739 298.07 160.843L289.575 165.595C289.38 165.704 289.259 165.91 289.259 166.134V176.218C289.259 176.442 289.38 176.648 289.575 176.757L298.07 181.509C298.256 181.613 298.483 181.613 298.669 181.511L307.314 176.756C307.511 176.648 307.634 176.44 307.634 176.215V166.137C307.634 165.911 307.511 165.704 307.314 165.595Z" fill="#1A1A1A"/>
</g>
<g filter="url(#filter14_i_112_649)">
<path d="M318.314 184.595L309.669 179.841C309.483 179.738 309.256 179.739 309.07 179.843L300.575 184.595C300.38 184.704 300.259 184.91 300.259 185.134V195.218C300.259 195.442 300.38 195.648 300.575 195.757L309.07 200.509C309.256 200.613 309.483 200.613 309.669 200.511L318.314 195.756C318.511 195.648 318.634 195.44 318.634 195.215V185.137C318.634 184.911 318.511 184.704 318.314 184.595Z" fill="#1A1A1A"/>
</g>
<g filter="url(#filter15_i_112_649)">
<path d="M329.314 165.595L320.669 160.841C320.483 160.738 320.256 160.739 320.07 160.843L311.575 165.595C311.38 165.704 311.259 165.91 311.259 166.134V176.218C311.259 176.442 311.38 176.648 311.575 176.757L320.07 181.509C320.256 181.613 320.483 181.613 320.669 181.511L329.314 176.756C329.511 176.648 329.634 176.44 329.634 176.215V166.137C329.634 165.911 329.511 165.704 329.314 165.595Z" fill="#1A1A1A"/>
</g>
<g filter="url(#filter16_i_112_649)">
<path d="M296.314 146.595L287.669 141.841C287.483 141.738 287.256 141.739 287.07 141.843L278.575 146.595C278.38 146.704 278.259 146.91 278.259 147.134V157.218C278.259 157.442 278.38 157.648 278.575 157.757L287.07 162.509C287.256 162.613 287.483 162.613 287.669 162.511L296.314 157.756C296.511 157.648 296.634 157.44 296.634 157.215V147.137C296.634 146.911 296.511 146.704 296.314 146.595Z" fill="#1A1A1A"/>
</g>
<g filter="url(#filter17_i_112_649)">
<path d="M274.314 146.595L265.669 141.841C265.483 141.738 265.256 141.739 265.07 141.843L256.575 146.595C256.38 146.704 256.259 146.91 256.259 147.134V157.218C256.259 157.442 256.38 157.648 256.575 157.757L265.07 162.509C265.256 162.613 265.483 162.613 265.669 162.511L274.314 157.756C274.511 157.648 274.634 157.44 274.634 157.215V147.137C274.634 146.911 274.511 146.704 274.314 146.595Z" fill="#1A1A1A"/>
</g>
<g filter="url(#filter18_i_112_649)">
<path d="M285.314 165.595L276.669 160.841C276.483 160.738 276.256 160.739 276.07 160.843L267.575 165.595C267.38 165.704 267.259 165.91 267.259 166.134V176.218C267.259 176.442 267.38 176.648 267.575 176.757L276.07 181.509C276.256 181.613 276.483 181.613 276.669 181.511L285.314 176.756C285.511 176.648 285.634 176.44 285.634 176.215V166.137C285.634 165.911 285.511 165.704 285.314 165.595Z" fill="#1A1A1A"/>
</g>
<g filter="url(#filter19_i_112_649)">
<path d="M307.314 203.595L298.669 198.841C298.483 198.738 298.256 198.739 298.07 198.843L289.575 203.595C289.38 203.704 289.259 203.91 289.259 204.134V214.218C289.259 214.442 289.38 214.648 289.575 214.757L298.07 219.509C298.256 219.613 298.483 219.613 298.669 219.511L307.314 214.756C307.511 214.648 307.634 214.44 307.634 214.215V204.137C307.634 203.911 307.511 203.704 307.314 203.595Z" fill="#1A1A1A"/>
</g>
<g filter="url(#filter20_i_112_649)">
<path d="M329.314 203.595L320.669 198.841C320.483 198.738 320.256 198.739 320.07 198.843L311.575 203.595C311.38 203.704 311.259 203.91 311.259 204.134V214.218C311.259 214.442 311.38 214.648 311.575 214.757L320.07 219.509C320.256 219.613 320.483 219.613 320.669 219.511L329.314 214.756C329.511 214.648 329.634 214.44 329.634 214.215V204.137C329.634 203.911 329.511 203.704 329.314 203.595Z" fill="#1A1A1A"/>
</g>
<g filter="url(#filter21_i_112_649)">
<path d="M296.314 184.595L287.669 179.841C287.483 179.738 287.256 179.739 287.07 179.843L278.575 184.595C278.38 184.704 278.259 184.91 278.259 185.134V195.218C278.259 195.442 278.38 195.648 278.575 195.757L287.07 200.509C287.256 200.613 287.483 200.613 287.669 200.511L296.314 195.756C296.511 195.648 296.634 195.44 296.634 195.215V185.137C296.634 184.911 296.511 184.704 296.314 184.595Z" fill="#1A1A1A"/>
</g>
</g>
<defs>
<filter id="filter0_dii_112_649" x="-13.7412" y="0.764648" width="347.375" height="229.822" filterUnits="userSpaceOnUse" color-interpolation-filters="sRGB">
<feFlood flood-opacity="0" result="BackgroundImageFix"/>
<feColorMatrix in="SourceAlpha" type="matrix" values="0 0 0 0 0 0 0 0 0 0 0 0 0 0 0 0 0 0 127 0" result="hardAlpha"/>
<feOffset dy="7"/>
<feGaussianBlur stdDeviation="2"/>
<feComposite in2="hardAlpha" operator="out"/>
<feColorMatrix type="matrix" values="0 0 0 0 0 0 0 0 0 0 0 0 0 0 0 0 0 0 0.15 0"/>
<feBlend mode="normal" in2="BackgroundImageFix" result="effect1_dropShadow_112_649"/>
<feBlend mode="normal" in="SourceGraphic" in2="effect1_dropShadow_112_649" result="shape"/>
<feColorMatrix in="SourceAlpha" type="matrix" values="0 0 0 0 0 0 0 0 0 0 0 0 0 0 0 0 0 0 127 0" result="hardAlpha"/>
<feOffset dy="2"/>
<feGaussianBlur stdDeviation="2"/>
<feComposite in2="hardAlpha" operator="arithmetic" k2="-1" k3="1"/>
<feColorMatrix type="matrix" values="0 0 0 0 1 0 0 0 0 1 0 0 0 0 1 0 0 0 0.08 0"/>
<feBlend mode="normal" in2="shape" result="effect2_innerShadow_112_649"/>
<feColorMatrix in="SourceAlpha" type="matrix" values="0 0 0 0 0 0 0 0 0 0 0 0 0 0 0 0 0 0 127 0" result="hardAlpha"/>
<feOffset dy="1"/>
<feGaussianBlur stdDeviation="1"/>
<feComposite in2="hardAlpha" operator="arithmetic" k2="-1" k3="1"/>
<feColorMatrix type="matrix" values="0 0 0 0 1 0 0 0 0 1 0 0 0 0 1 0 0 0 0.02 0"/>
<feBlend mode="normal" in2="effect2_innerShadow_112_649" result="effect3_innerShadow_112_649"/>
</filter>
<filter id="filter1_i_112_649" x="289.259" y="84.7646" width="18.6838" height="21.1311" filterUnits="userSpaceOnUse" color-interpolation-filters="sRGB">
<feFlood flood-opacity="0" result="BackgroundImageFix"/>
<feBlend mode="normal" in="SourceGraphic" in2="BackgroundImageFix" result="shape"/>
<feColorMatrix in="SourceAlpha" type="matrix" values="0 0 0 0 0 0 0 0 0 0 0 0 0 0 0 0 0 0 127 0" result="hardAlpha"/>
<feOffset dx="0.308824" dy="0.308824"/>
<feGaussianBlur stdDeviation="0.463235"/>
<feComposite in2="hardAlpha" operator="arithmetic" k2="-1" k3="1"/>
<feColorMatrix type="matrix" values="0 0 0 0 0 0 0 0 0 0 0 0 0 0 0 0 0 0 0.25 0"/>
<feBlend mode="normal" in2="shape" result="effect1_innerShadow_112_649"/>
</filter>
<filter id="filter2_i_112_649" x="300.259" y="103.765" width="18.6838" height="21.1311" filterUnits="userSpaceOnUse" color-interpolation-filters="sRGB">
<feFlood flood-opacity="0" result="BackgroundImageFix"/>
<feBlend mode="normal" in="SourceGraphic" in2="BackgroundImageFix" result="shape"/>
<feColorMatrix in="SourceAlpha" type="matrix" values="0 0 0 0 0 0 0 0 0 0 0 0 0 0 0 0 0 0 127 0" result="hardAlpha"/>
<feOffset dx="0.308824" dy="0.308824"/>
<feGaussianBlur stdDeviation="0.463235"/>
<feComposite in2="hardAlpha" operator="arithmetic" k2="-1" k3="1"/>
<feColorMatrix type="matrix" values="0 0 0 0 0 0 0 0 0 0 0 0 0 0 0 0 0 0 0.25 0"/>
<feBlend mode="normal" in2="shape" result="effect1_innerShadow_112_649"/>
</filter>
<filter id="filter3_i_112_649" x="311.259" y="84.7646" width="18.6838" height="21.1311" filterUnits="userSpaceOnUse" color-interpolation-filters="sRGB">
<feFlood flood-opacity="0" result="BackgroundImageFix"/>
<feBlend mode="normal" in="SourceGraphic" in2="BackgroundImageFix" result="shape"/>
<feColorMatrix in="SourceAlpha" type="matrix" values="0 0 0 0 0 0 0 0 0 0 0 0 0 0 0 0 0 0 127 0" result="hardAlpha"/>
<feOffset dx="0.308824" dy="0.308824"/>
<feGaussianBlur stdDeviation="0.463235"/>
<feComposite in2="hardAlpha" operator="arithmetic" k2="-1" k3="1"/>
<feColorMatrix type="matrix" values="0 0 0 0 0 0 0 0 0 0 0 0 0 0 0 0 0 0 0.25 0"/>
<feBlend mode="normal" in2="shape" result="effect1_innerShadow_112_649"/>
</filter>
<filter id="filter4_i_112_649" x="289.259" y="122.765" width="18.6838" height="21.1311" filterUnits="userSpaceOnUse" color-interpolation-filters="sRGB">
<feFlood flood-opacity="0" result="BackgroundImageFix"/>
<feBlend mode="normal" in="SourceGraphic" in2="BackgroundImageFix" result="shape"/>
<feColorMatrix in="SourceAlpha" type="matrix" values="0 0 0 0 0 0 0 0 0 0 0 0 0 0 0 0 0 0 127 0" result="hardAlpha"/>
<feOffset dx="0.308824" dy="0.308824"/>
<feGaussianBlur stdDeviation="0.463235"/>
<feComposite in2="hardAlpha" operator="arithmetic" k2="-1" k3="1"/>
<feColorMatrix type="matrix" values="0 0 0 0 0 0 0 0 0 0 0 0 0 0 0 0 0 0 0.25 0"/>
<feBlend mode="normal" in2="shape" result="effect1_innerShadow_112_649"/>
</filter>
<filter id="filter5_i_112_649" x="300.259" y="141.765" width="18.6838" height="21.1311" filterUnits="userSpaceOnUse" color-interpolation-filters="sRGB">
<feFlood flood-opacity="0" result="BackgroundImageFix"/>
<feBlend mode="normal" in="SourceGraphic" in2="BackgroundImageFix" result="shape"/>
<feColorMatrix in="SourceAlpha" type="matrix" values="0 0 0 0 0 0 0 0 0 0 0 0 0 0 0 0 0 0 127 0" result="hardAlpha"/>
<feOffset dx="0.308824" dy="0.308824"/>
<feGaussianBlur stdDeviation="0.463235"/>
<feComposite in2="hardAlpha" operator="arithmetic" k2="-1" k3="1"/>
<feColorMatrix type="matrix" values="0 0 0 0 0 0 0 0 0 0 0 0 0 0 0 0 0 0 0.25 0"/>
<feBlend mode="normal" in2="shape" result="effect1_innerShadow_112_649"/>
</filter>
<filter id="filter6_i_112_649" x="311.259" y="122.765" width="18.6838" height="21.1311" filterUnits="userSpaceOnUse" color-interpolation-filters="sRGB">
<feFlood flood-opacity="0" result="BackgroundImageFix"/>
<feBlend mode="normal" in="SourceGraphic" in2="BackgroundImageFix" result="shape"/>
<feColorMatrix in="SourceAlpha" type="matrix" values="0 0 0 0 0 0 0 0 0 0 0 0 0 0 0 0 0 0 127 0" result="hardAlpha"/>
<feOffset dx="0.308824" dy="0.308824"/>
<feGaussianBlur stdDeviation="0.463235"/>
<feComposite in2="hardAlpha" operator="arithmetic" k2="-1" k3="1"/>
<feColorMatrix type="matrix" values="0 0 0 0 0 0 0 0 0 0 0 0 0 0 0 0 0 0 0.25 0"/>
<feBlend mode="normal" in2="shape" result="effect1_innerShadow_112_649"/>
</filter>
<filter id="filter7_i_112_649" x="1.25879" y="0.764648" width="18.6838" height="21.1311" filterUnits="userSpaceOnUse" color-interpolation-filters="sRGB">
<feFlood flood-opacity="0" result="BackgroundImageFix"/>
<feBlend mode="normal" in="SourceGraphic" in2="BackgroundImageFix" result="shape"/>
<feColorMatrix in="SourceAlpha" type="matrix" values="0 0 0 0 0 0 0 0 0 0 0 0 0 0 0 0 0 0 127 0" result="hardAlpha"/>
<feOffset dx="0.308824" dy="0.308824"/>
<feGaussianBlur stdDeviation="0.463235"/>
<feComposite in2="hardAlpha" operator="arithmetic" k2="-1" k3="1"/>
<feColorMatrix type="matrix" values="0 0 0 0 0 0 0 0 0 0 0 0 0 0 0 0 0 0 0.25 0"/>
<feBlend mode="normal" in2="shape" result="effect1_innerShadow_112_649"/>
</filter>
<filter id="filter8_i_112_649" x="12.2588" y="19.7646" width="18.6838" height="21.1311" filterUnits="userSpaceOnUse" color-interpolation-filters="sRGB">
<feFlood flood-opacity="0" result="BackgroundImageFix"/>
<feBlend mode="normal" in="SourceGraphic" in2="BackgroundImageFix" result="shape"/>
<feColorMatrix in="SourceAlpha" type="matrix" values="0 0 0 0 0 0 0 0 0 0 0 0 0 0 0 0 0 0 127 0" result="hardAlpha"/>
<feOffset dx="0.308824" dy="0.308824"/>
<feGaussianBlur stdDeviation="0.463235"/>
<feComposite in2="hardAlpha" operator="arithmetic" k2="-1" k3="1"/>
<feColorMatrix type="matrix" values="0 0 0 0 0 0 0 0 0 0 0 0 0 0 0 0 0 0 0.25 0"/>
<feBlend mode="normal" in2="shape" result="effect1_innerShadow_112_649"/>
</filter>
<filter id="filter9_i_112_649" x="23.2588" y="0.764648" width="18.6838" height="21.1311" filterUnits="userSpaceOnUse" color-interpolation-filters="sRGB">
<feFlood flood-opacity="0" result="BackgroundImageFix"/>
<feBlend mode="normal" in="SourceGraphic" in2="BackgroundImageFix" result="shape"/>
<feColorMatrix in="SourceAlpha" type="matrix" values="0 0 0 0 0 0 0 0 0 0 0 0 0 0 0 0 0 0 127 0" result="hardAlpha"/>
<feOffset dx="0.308824" dy="0.308824"/>
<feGaussianBlur stdDeviation="0.463235"/>
<feComposite in2="hardAlpha" operator="arithmetic" k2="-1" k3="1"/>
<feColorMatrix type="matrix" values="0 0 0 0 0 0 0 0 0 0 0 0 0 0 0 0 0 0 0.25 0"/>
<feBlend mode="normal" in2="shape" result="effect1_innerShadow_112_649"/>
</filter>
<filter id="filter10_i_112_649" x="1.25879" y="38.7646" width="18.6838" height="21.1311" filterUnits="userSpaceOnUse" color-interpolation-filters="sRGB">
<feFlood flood-opacity="0" result="BackgroundImageFix"/>
<feBlend mode="normal" in="SourceGraphic" in2="BackgroundImageFix" result="shape"/>
<feColorMatrix in="SourceAlpha" type="matrix" values="0 0 0 0 0 0 0 0 0 0 0 0 0 0 0 0 0 0 127 0" result="hardAlpha"/>
<feOffset dx="0.308824" dy="0.308824"/>
<feGaussianBlur stdDeviation="0.463235"/>
<feComposite in2="hardAlpha" operator="arithmetic" k2="-1" k3="1"/>
<feColorMatrix type="matrix" values="0 0 0 0 0 0 0 0 0 0 0 0 0 0 0 0 0 0 0.25 0"/>
<feBlend mode="normal" in2="shape" result="effect1_innerShadow_112_649"/>
</filter>
<filter id="filter11_i_112_649" x="-9.74121" y="19.7646" width="18.6838" height="21.1311" filterUnits="userSpaceOnUse" color-interpolation-filters="sRGB">
<feFlood flood-opacity="0" result="BackgroundImageFix"/>
<feBlend mode="normal" in="SourceGraphic" in2="BackgroundImageFix" result="shape"/>
<feColorMatrix in="SourceAlpha" type="matrix" values="0 0 0 0 0 0 0 0 0 0 0 0 0 0 0 0 0 0 127 0" result="hardAlpha"/>
<feOffset dx="0.308824" dy="0.308824"/>
<feGaussianBlur stdDeviation="0.463235"/>
<feComposite in2="hardAlpha" operator="arithmetic" k2="-1" k3="1"/>
<feColorMatrix type="matrix" values="0 0 0 0 0 0 0 0 0 0 0 0 0 0 0 0 0 0 0.25 0"/>
<feBlend mode="normal" in2="shape" result="effect1_innerShadow_112_649"/>
</filter>
<filter id="filter12_i_112_649" x="23.2588" y="38.7646" width="18.6838" height="21.1311" filterUnits="userSpaceOnUse" color-interpolation-filters="sRGB">
<feFlood flood-opacity="0" result="BackgroundImageFix"/>
<feBlend mode="normal" in="SourceGraphic" in2="BackgroundImageFix" result="shape"/>
<feColorMatrix in="SourceAlpha" type="matrix" values="0 0 0 0 0 0 0 0 0 0 0 0 0 0 0 0 0 0 127 0" result="hardAlpha"/>
<feOffset dx="0.308824" dy="0.308824"/>
<feGaussianBlur stdDeviation="0.463235"/>
<feComposite in2="hardAlpha" operator="arithmetic" k2="-1" k3="1"/>
<feColorMatrix type="matrix" values="0 0 0 0 0 0 0 0 0 0 0 0 0 0 0 0 0 0 0.25 0"/>
<feBlend mode="normal" in2="shape" result="effect1_innerShadow_112_649"/>
</filter>
<filter id="filter13_i_112_649" x="289.259" y="160.765" width="18.6838" height="21.1311" filterUnits="userSpaceOnUse" color-interpolation-filters="sRGB">
<feFlood flood-opacity="0" result="BackgroundImageFix"/>
<feBlend mode="normal" in="SourceGraphic" in2="BackgroundImageFix" result="shape"/>
<feColorMatrix in="SourceAlpha" type="matrix" values="0 0 0 0 0 0 0 0 0 0 0 0 0 0 0 0 0 0 127 0" result="hardAlpha"/>
<feOffset dx="0.308824" dy="0.308824"/>
<feGaussianBlur stdDeviation="0.463235"/>
<feComposite in2="hardAlpha" operator="arithmetic" k2="-1" k3="1"/>
<feColorMatrix type="matrix" values="0 0 0 0 0 0 0 0 0 0 0 0 0 0 0 0 0 0 0.25 0"/>
<feBlend mode="normal" in2="shape" result="effect1_innerShadow_112_649"/>
</filter>
<filter id="filter14_i_112_649" x="300.259" y="179.765" width="18.6838" height="21.1311" filterUnits="userSpaceOnUse" color-interpolation-filters="sRGB">
<feFlood flood-opacity="0" result="BackgroundImageFix"/>
<feBlend mode="normal" in="SourceGraphic" in2="BackgroundImageFix" result="shape"/>
<feColorMatrix in="SourceAlpha" type="matrix" values="0 0 0 0 0 0 0 0 0 0 0 0 0 0 0 0 0 0 127 0" result="hardAlpha"/>
<feOffset dx="0.308824" dy="0.308824"/>
<feGaussianBlur stdDeviation="0.463235"/>
<feComposite in2="hardAlpha" operator="arithmetic" k2="-1" k3="1"/>
<feColorMatrix type="matrix" values="0 0 0 0 0 0 0 0 0 0 0 0 0 0 0 0 0 0 0.25 0"/>
<feBlend mode="normal" in2="shape" result="effect1_innerShadow_112_649"/>
</filter>
<filter id="filter15_i_112_649" x="311.259" y="160.765" width="18.6838" height="21.1311" filterUnits="userSpaceOnUse" color-interpolation-filters="sRGB">
<feFlood flood-opacity="0" result="BackgroundImageFix"/>
<feBlend mode="normal" in="SourceGraphic" in2="BackgroundImageFix" result="shape"/>
<feColorMatrix in="SourceAlpha" type="matrix" values="0 0 0 0 0 0 0 0 0 0 0 0 0 0 0 0 0 0 127 0" result="hardAlpha"/>
<feOffset dx="0.308824" dy="0.308824"/>
<feGaussianBlur stdDeviation="0.463235"/>
<feComposite in2="hardAlpha" operator="arithmetic" k2="-1" k3="1"/>
<feColorMatrix type="matrix" values="0 0 0 0 0 0 0 0 0 0 0 0 0 0 0 0 0 0 0.25 0"/>
<feBlend mode="normal" in2="shape" result="effect1_innerShadow_112_649"/>
</filter>
<filter id="filter16_i_112_649" x="278.259" y="141.765" width="18.6838" height="21.1311" filterUnits="userSpaceOnUse" color-interpolation-filters="sRGB">
<feFlood flood-opacity="0" result="BackgroundImageFix"/>
<feBlend mode="normal" in="SourceGraphic" in2="BackgroundImageFix" result="shape"/>
<feColorMatrix in="SourceAlpha" type="matrix" values="0 0 0 0 0 0 0 0 0 0 0 0 0 0 0 0 0 0 127 0" result="hardAlpha"/>
<feOffset dx="0.308824" dy="0.308824"/>
<feGaussianBlur stdDeviation="0.463235"/>
<feComposite in2="hardAlpha" operator="arithmetic" k2="-1" k3="1"/>
<feColorMatrix type="matrix" values="0 0 0 0 0 0 0 0 0 0 0 0 0 0 0 0 0 0 0.25 0"/>
<feBlend mode="normal" in2="shape" result="effect1_innerShadow_112_649"/>
</filter>
<filter id="filter17_i_112_649" x="256.259" y="141.765" width="18.6838" height="21.1311" filterUnits="userSpaceOnUse" color-interpolation-filters="sRGB">
<feFlood flood-opacity="0" result="BackgroundImageFix"/>
<feBlend mode="normal" in="SourceGraphic" in2="BackgroundImageFix" result="shape"/>
<feColorMatrix in="SourceAlpha" type="matrix" values="0 0 0 0 0 0 0 0 0 0 0 0 0 0 0 0 0 0 127 0" result="hardAlpha"/>
<feOffset dx="0.308824" dy="0.308824"/>
<feGaussianBlur stdDeviation="0.463235"/>
<feComposite in2="hardAlpha" operator="arithmetic" k2="-1" k3="1"/>
<feColorMatrix type="matrix" values="0 0 0 0 0 0 0 0 0 0 0 0 0 0 0 0 0 0 0.25 0"/>
<feBlend mode="normal" in2="shape" result="effect1_innerShadow_112_649"/>
</filter>
<filter id="filter18_i_112_649" x="267.259" y="160.765" width="18.6838" height="21.1311" filterUnits="userSpaceOnUse" color-interpolation-filters="sRGB">
<feFlood flood-opacity="0" result="BackgroundImageFix"/>
<feBlend mode="normal" in="SourceGraphic" in2="BackgroundImageFix" result="shape"/>
<feColorMatrix in="SourceAlpha" type="matrix" values="0 0 0 0 0 0 0 0 0 0 0 0 0 0 0 0 0 0 127 0" result="hardAlpha"/>
<feOffset dx="0.308824" dy="0.308824"/>
<feGaussianBlur stdDeviation="0.463235"/>
<feComposite in2="hardAlpha" operator="arithmetic" k2="-1" k3="1"/>
<feColorMatrix type="matrix" values="0 0 0 0 0 0 0 0 0 0 0 0 0 0 0 0 0 0 0.25 0"/>
<feBlend mode="normal" in2="shape" result="effect1_innerShadow_112_649"/>
</filter>
<filter id="filter19_i_112_649" x="289.259" y="198.765" width="18.6838" height="21.1311" filterUnits="userSpaceOnUse" color-interpolation-filters="sRGB">
<feFlood flood-opacity="0" result="BackgroundImageFix"/>
<feBlend mode="normal" in="SourceGraphic" in2="BackgroundImageFix" result="shape"/>
<feColorMatrix in="SourceAlpha" type="matrix" values="0 0 0 0 0 0 0 0 0 0 0 0 0 0 0 0 0 0 127 0" result="hardAlpha"/>
<feOffset dx="0.308824" dy="0.308824"/>
<feGaussianBlur stdDeviation="0.463235"/>
<feComposite in2="hardAlpha" operator="arithmetic" k2="-1" k3="1"/>
<feColorMatrix type="matrix" values="0 0 0 0 0 0 0 0 0 0 0 0 0 0 0 0 0 0 0.25 0"/>
<feBlend mode="normal" in2="shape" result="effect1_innerShadow_112_649"/>
</filter>
<filter id="filter20_i_112_649" x="311.259" y="198.765" width="18.6838" height="21.1311" filterUnits="userSpaceOnUse" color-interpolation-filters="sRGB">
<feFlood flood-opacity="0" result="BackgroundImageFix"/>
<feBlend mode="normal" in="SourceGraphic" in2="BackgroundImageFix" result="shape"/>
<feColorMatrix in="SourceAlpha" type="matrix" values="0 0 0 0 0 0 0 0 0 0 0 0 0 0 0 0 0 0 127 0" result="hardAlpha"/>
<feOffset dx="0.308824" dy="0.308824"/>
<feGaussianBlur stdDeviation="0.463235"/>
<feComposite in2="hardAlpha" operator="arithmetic" k2="-1" k3="1"/>
<feColorMatrix type="matrix" values="0 0 0 0 0 0 0 0 0 0 0 0 0 0 0 0 0 0 0.25 0"/>
<feBlend mode="normal" in2="shape" result="effect1_innerShadow_112_649"/>
</filter>
<filter id="filter21_i_112_649" x="278.259" y="179.765" width="18.6838" height="21.1311" filterUnits="userSpaceOnUse" color-interpolation-filters="sRGB">
<feFlood flood-opacity="0" result="BackgroundImageFix"/>
<feBlend mode="normal" in="SourceGraphic" in2="BackgroundImageFix" result="shape"/>
<feColorMatrix in="SourceAlpha" type="matrix" values="0 0 0 0 0 0 0 0 0 0 0 0 0 0 0 0 0 0 127 0" result="hardAlpha"/>
<feOffset dx="0.308824" dy="0.308824"/>
<feGaussianBlur stdDeviation="0.463235"/>
<feComposite in2="hardAlpha" operator="arithmetic" k2="-1" k3="1"/>
<feColorMatrix type="matrix" values="0 0 0 0 0 0 0 0 0 0 0 0 0 0 0 0 0 0 0.25 0"/>
<feBlend mode="normal" in2="shape" result="effect1_innerShadow_112_649"/>
</filter>
</defs>
</svg>
