<svg xmlns="http://www.w3.org/2000/svg" width="15" height="17" fill="none"><path fill="#00FFC2" d="M14.861.358a.34.34 0 0 0-.257-.118H1.014a.34.34 0 0 0-.256.118.365.365 0 0 0-.09.276l1.225 14.262a.36.36 0 0 0 .25.317l5.57 1.653c.03.01.063.014.095.014a.31.31 0 0 0 .095-.014l5.574-1.653a.361.361 0 0 0 .251-.317L14.951.634a.365.365 0 0 0-.09-.276Zm-2.93 4.917H5.387l.156 1.841h6.23l-.467 5.442-3.499 1.1-.034-.012-3.458-1.09-.189-2.217h1.695l.073.86 1.933.422 1.898-.421.203-2.329H4l-.46-5.355h8.541l-.15 1.759Z"/></svg>