<svg xmlns="http://www.w3.org/2000/svg" width="15" height="17" fill="none"><path fill="#00FFC2" d="M14.861.263a.342.342 0 0 0-.256-.117H1.015a.342.342 0 0 0-.257.117.37.37 0 0 0-.09.276l1.224 14.263c.013.149.113.274.252.316l5.568 1.654a.343.343 0 0 0 .19 0l5.574-1.654a.36.36 0 0 0 .252-.316L14.95.539a.372.372 0 0 0-.09-.276ZM3.288 9.913l2.435.703V3.401h1.391v9.405l-3.826-1.103v-1.79ZM12.35 7.38l-.366 4.432-3.479.994v-1.664l2.348-.671.087-1.357-2.435.437V3.4h4.174l-.12 1.447H9.897v2.894l2.453-.362Z"/></svg>