<svg xmlns="http://www.w3.org/2000/svg" width="49" height="17" fill="none"><path fill="gray" d="M19.604 16.033c-.667 0-1.212-.203-1.634-.608-.422-.405-.633-.928-.633-1.568v-2.944h3.2v2.048h6.935V9.569h-7.868a2.229 2.229 0 0 1-1.6-.64c-.445-.427-.667-.939-.667-1.536V2.849c0-.64.21-1.163.633-1.568.422-.405.967-.608 1.634-.608h8.801c.667 0 1.212.203 1.634.608.422.405.633.928.633 1.568v2.944h-3.2V3.745h-6.935v3.392h7.868a2.23 2.23 0 0 1 1.6.64c.445.427.668.939.668 1.536v4.544c0 .64-.212 1.163-.634 1.568-.422.405-.967.608-1.634.608h-8.801Zm17.336 0c-.666 0-1.211-.203-1.633-.608-.423-.405-.634-.928-.634-1.568v-2.944h3.2v2.048h6.936V9.569H36.94a2.229 2.229 0 0 1-1.6-.64c-.445-.427-.667-.939-.667-1.536V2.849c0-.64.211-1.163.634-1.568.422-.405.966-.608 1.633-.608h8.802c.667 0 1.211.203 1.634.608.422.405.633.928.633 1.568v2.944h-3.2V3.745h-6.935v3.392h7.868a2.23 2.23 0 0 1 1.6.64c.445.427.667.939.667 1.536v4.544c0 .64-.211 1.163-.633 1.568-.423.405-.967.608-1.634.608H36.94Zm-34.673 0c-.667 0-1.211-.203-1.634-.608C.211 15.02 0 14.497 0 13.857V2.849c0-.64.211-1.163.633-1.568C1.056.876 1.6.673 2.267.673h8.802c.666 0 1.211.203 1.633.608.423.405.634.928.634 1.568v2.944h-3.2V3.745H3.2v9.216h6.934v-2.048h3.2v2.944c0 .64-.21 1.163-.633 1.568-.422.405-.966.608-1.633.608H2.267Z"/></svg>