<svg width="64" height="17" viewBox="0 0 64 17" fill="none" xmlns="http://www.w3.org/2000/svg">
<path d="M0 16.8802V0.240234H3.2V6.4109H10.4V0.240234H13.6V16.8802H10.4V9.7389H3.2V16.8802H0ZM21.0667 16.8802V3.56823H16.4V0.240234H28.9333V3.56823H24.2667V16.8802H21.0667ZM31.7333 16.8802V2.59757C31.7333 1.90423 31.9444 1.33801 32.3667 0.898901C32.7889 0.45979 33.3333 0.240234 34 0.240234H47.3333C48 0.240234 48.5444 0.45979 48.9667 0.898901C49.3889 1.33801 49.6 1.90423 49.6 2.59757V16.8802H46.4V3.56823H42.2667V13.9682H39.0667V3.56823H34.9333V16.8802H31.7333ZM53.4667 16.8802V0.240234H56.6667V13.5522H64V16.8802H53.4667Z" fill="#808080"/>
</svg>
