<svg xmlns="http://www.w3.org/2000/svg" width="30" height="17" fill="none"><path fill="gray" d="M2.267 16.785c-.667 0-1.211-.219-1.634-.658C.211 15.687 0 15.122 0 14.428V9.852h3.2v3.605h5.6V.146H12v14.282c0 .693-.211 1.26-.633 1.699-.423.439-.967.659-1.634.659H2.267Zm16 0c-.667 0-1.211-.219-1.634-.658-.422-.44-.633-1.005-.633-1.699v-3.19h3.2v2.22h6.933V9.782h-7.866c-.623 0-1.156-.231-1.6-.693A2.315 2.315 0 0 1 16 7.426V2.503c0-.693.211-1.26.633-1.699.423-.439.967-.658 1.634-.658h8.8c.666 0 1.21.22 1.633.658.422.44.633 1.006.633 1.699v3.19h-3.2v-2.22H19.2v3.675h7.867c.622 0 1.155.231 1.6.694.444.462.666 1.016.666 1.664v4.922c0 .693-.21 1.26-.633 1.699-.422.439-.967.659-1.633.659h-8.8Z"/></svg>